<svg width="64" height="64" viewBox="0 0 64 64" fill="none" xmlns="http://www.w3.org/2000/svg">
<path d="M45.2784 54.5948V24.7267L39.2197 21.2316V51.0997L45.2784 54.5948Z" stroke="white" stroke-miterlimit="10" stroke-linecap="round" stroke-linejoin="round"/>
<path d="M33.1621 24.7267L39.2201 21.2316V58.0899L33.1621 61.5858" stroke="white" stroke-miterlimit="10" stroke-linecap="round" stroke-linejoin="round"/>
<path d="M0.54541 42.7683V5.91003L33.1619 24.7267V61.5858L0.54541 42.7683Z" stroke="white" stroke-miterlimit="10" stroke-linecap="round" stroke-linejoin="round"/>
<path d="M33.1621 61.5858V24.7267" stroke="white" stroke-miterlimit="10" stroke-linecap="round" stroke-linejoin="round"/>
<path d="M57.3961 47.6039V24.7267L51.3374 21.2316V44.1095L57.3961 47.6039Z" stroke="white" stroke-miterlimit="10" stroke-linecap="round" stroke-linejoin="round"/>
<path d="M51.337 21.2316V51.0997L45.2783 54.5948V24.7267L51.337 21.2316Z" stroke="white" stroke-miterlimit="10" stroke-linecap="round" stroke-linejoin="round"/>
<path d="M57.3957 24.7267L63.4544 21.2316L63.4537 44.1088L57.395 47.6046L57.3957 24.7267Z" stroke="white" stroke-miterlimit="10" stroke-linecap="round" stroke-linejoin="round"/>
<path d="M51.3374 44.1095L57.3954 47.6046L63.454 44.1088V21.2316" stroke="white" stroke-miterlimit="10" stroke-linecap="round" stroke-linejoin="round"/>
<path d="M0.54541 5.91004L6.60408 2.41422L39.2199 21.2316L33.1619 24.7267L0.54541 5.91004Z" stroke="white" stroke-miterlimit="10" stroke-linecap="round" stroke-linejoin="round"/>
<path d="M51.3371 21.2316L18.7213 2.41422L12.6626 5.91004L45.2784 24.7267L51.3371 21.2316Z" stroke="white" stroke-miterlimit="10" stroke-linecap="round" stroke-linejoin="round"/>
<path d="M24.7803 5.91004L30.8382 2.41422L63.4548 21.2316L57.3961 24.7267L24.7803 5.91004Z" stroke="white" stroke-miterlimit="10" stroke-linecap="round" stroke-linejoin="round"/>
<path d="M57.3957 24.7267L51.337 21.2316L45.2783 24.7267" stroke="white" stroke-miterlimit="10" stroke-linecap="round" stroke-linejoin="round"/>
</svg>
