<?xml version="1.0" encoding="utf-8"?>
<!-- Generator: Adobe Illustrator 25.2.3, SVG Export Plug-In . SVG Version: 6.00 Build 0)  -->
<svg version="1.1" id="Layer_1" xmlns="http://www.w3.org/2000/svg" xmlns:xlink="http://www.w3.org/1999/xlink" x="0px" y="0px"
	 viewBox="0 0 524.25 524.25" style="enable-background:new 0 0 524.25 524.25;" xml:space="preserve">
<style type="text/css">
	.st0{fill:#73ACFF;}
	.st1{fill:#FFFFFF;}
	.st2{fill:none;stroke:#000000;stroke-width:3;stroke-miterlimit:10;}
	.st3{fill:none;stroke:#000000;stroke-width:4;stroke-miterlimit:10;}
	.st4{fill:none;stroke:#FFFFFF;stroke-width:3;stroke-miterlimit:10;}
</style>
<rect x="0" class="st0" width="524.25" height="524.25"/>
<g>
	<g>
		<path class="st1" d="M59.95,241.38c2.55,0,5.14,0.59,7.76,1.78c2.62,1.18,4.8,2.77,6.54,4.77v-5.33h11.87v47.19H74.25v-7.94
			c-1.37,2.56-3.36,4.75-5.98,6.59c-2.62,1.84-5.67,2.76-9.16,2.76c-3.8,0-7.3-0.97-10.51-2.9c-3.21-1.93-5.78-4.73-7.71-8.41
			c-1.93-3.68-2.9-8.13-2.9-13.36s0.98-9.72,2.94-13.46c1.96-3.74,4.61-6.62,7.94-8.64C52.21,242.39,55.9,241.38,59.95,241.38z
			 M62.38,252.97c-2.49,0-4.63,0.64-6.4,1.92c-1.78,1.28-3.16,2.94-4.16,5c-1,2.06-1.5,4.27-1.5,6.63c0,3.55,1.07,6.57,3.22,9.06
			c2.15,2.49,5,3.74,8.55,3.74c2.12,0,4.1-0.56,5.93-1.68c1.84-1.12,3.33-2.69,4.49-4.72c1.15-2.02,1.73-4.47,1.73-7.34v-6.73
			c-1.68-1.81-3.5-3.24-5.47-4.3C66.82,253.5,64.69,252.97,62.38,252.97z"/>
		<path class="st1" d="M112.56,222.5v67.28h-11.87V222.5H112.56z"/>
		<path class="st1" d="M154.71,242.59v9.91h-12.24v37.29H130.6V252.5h-7.2v-9.91h7.2v-4.21c0-3.61,0.76-6.71,2.29-9.3
			c1.53-2.58,3.54-4.56,6.03-5.93c2.49-1.37,5.23-2.06,8.22-2.06c1.99,0,3.74,0.22,5.23,0.65c1.5,0.44,2.8,1.03,3.92,1.78v9.91
			c-2.06-1.25-4.42-1.84-7.1-1.78c-1.87,0.06-3.46,0.67-4.77,1.82c-1.31,1.15-1.96,3.04-1.96,5.65v3.46H154.71z"/>
		<path class="st1" d="M183.21,241.38c2.55,0,5.14,0.59,7.76,1.78c2.62,1.18,4.8,2.77,6.54,4.77v-5.33h11.87v47.19h-11.87v-7.94
			c-1.37,2.56-3.36,4.75-5.98,6.59c-2.62,1.84-5.67,2.76-9.16,2.76c-3.8,0-7.3-0.97-10.51-2.9c-3.21-1.93-5.78-4.73-7.71-8.41
			c-1.93-3.68-2.9-8.13-2.9-13.36s0.98-9.72,2.94-13.46c1.96-3.74,4.61-6.62,7.94-8.64C175.47,242.39,179.16,241.38,183.21,241.38z
			 M185.64,252.97c-2.49,0-4.63,0.64-6.4,1.92c-1.78,1.28-3.16,2.94-4.16,5c-1,2.06-1.5,4.27-1.5,6.63c0,3.55,1.07,6.57,3.22,9.06
			c2.15,2.49,5,3.74,8.55,3.74c2.12,0,4.1-0.56,5.93-1.68c1.84-1.12,3.33-2.69,4.49-4.72c1.15-2.02,1.73-4.47,1.73-7.34v-6.73
			c-1.68-1.81-3.5-3.24-5.47-4.3C190.08,253.5,187.94,252.97,185.64,252.97z"/>
		<path class="st1" d="M250.96,241.38c3.74,0,7.21,0.95,10.42,2.85c3.21,1.9,5.79,4.67,7.76,8.32s2.94,8.08,2.94,13.32
			c0,5.23-0.98,9.75-2.94,13.55c-1.96,3.8-4.61,6.71-7.94,8.74c-3.33,2.02-7.02,3.04-11.07,3.04c-2.62,0-5.22-0.64-7.8-1.92
			c-2.59-1.28-4.75-2.88-6.49-4.81v27.75h-11.87v-69.62h11.87v7.94c1.37-2.55,3.36-4.72,5.98-6.49
			C244.42,242.27,247.47,241.38,250.96,241.38z M247.97,253.25c-2.12,0-4.11,0.55-5.98,1.64c-1.87,1.09-3.38,2.63-4.53,4.62
			c-1.15,2-1.7,4.39-1.64,7.2v6.82c1.68,1.75,3.5,3.19,5.47,4.34c1.96,1.15,4.1,1.73,6.4,1.73c2.43,0,4.55-0.65,6.35-1.96
			c1.81-1.31,3.21-3,4.21-5.09c1-2.09,1.5-4.31,1.5-6.68c0-3.55-1.07-6.54-3.22-8.97S251.52,253.25,247.97,253.25z"/>
		<path class="st1" d="M305.34,241.38c4.61,0,8.81,1.11,12.62,3.32c3.8,2.21,6.87,5.2,9.2,8.97c2.34,3.77,3.5,7.99,3.5,12.66
			c0,4.67-1.17,8.88-3.5,12.62c-2.34,3.74-5.41,6.71-9.2,8.92c-3.8,2.21-8.01,3.32-12.62,3.32c-4.55,0-8.74-1.11-12.57-3.32
			c-3.83-2.21-6.9-5.19-9.2-8.92c-2.31-3.74-3.46-7.94-3.46-12.62c0-4.67,1.15-8.89,3.46-12.66c2.3-3.77,5.37-6.76,9.2-8.97
			C296.61,242.49,300.8,241.38,305.34,241.38z M305.34,252.87c-2.24,0-4.33,0.53-6.26,1.59c-1.93,1.06-3.47,2.59-4.63,4.58
			c-1.15,1.99-1.73,4.42-1.73,7.29c0,2.87,0.58,5.3,1.73,7.29c1.15,1.99,2.69,3.5,4.63,4.53c1.93,1.03,4.02,1.54,6.26,1.54
			s4.33-0.51,6.26-1.54c1.93-1.03,3.49-2.54,4.67-4.53c1.18-1.99,1.78-4.42,1.78-7.29c0-2.87-0.59-5.29-1.78-7.29
			c-1.18-1.99-2.74-3.52-4.67-4.58C309.67,253.4,307.59,252.87,305.34,252.87z"/>
		<path class="st1" d="M358.7,242.59v47.19h-11.87v-37.1h-7.57v-10.09H358.7z M351.79,218.02c2.24,0,4.17,0.79,5.79,2.38
			c1.62,1.59,2.43,3.47,2.43,5.65c0,2.12-0.81,3.99-2.43,5.61c-1.62,1.62-3.55,2.43-5.79,2.43s-4.16-0.81-5.75-2.43
			c-1.59-1.62-2.38-3.49-2.38-5.61c0-2.18,0.79-4.06,2.38-5.65C347.63,218.81,349.55,218.02,351.79,218.02z"/>
		<path class="st1" d="M385.52,242.59v6.73c1.43-1.93,3.38-3.74,5.84-5.42c2.46-1.68,5.28-2.52,8.46-2.52
			c4.8,0,8.81,1.62,12.05,4.86c3.24,3.24,4.86,8.1,4.86,14.58v28.97h-11.87l-0.09-27.38c0-3.18-0.76-5.54-2.29-7.1
			c-1.53-1.56-3.63-2.34-6.31-2.34c-2.12,0-4.1,0.69-5.93,2.06c-1.84,1.37-3.41,2.99-4.72,4.86v29.9h-11.87v-47.19H385.52z"/>
		<path class="st1" d="M446.08,228.86v13.74h13.08v9.91h-13.08v20.37c0,2.12,0.48,3.78,1.45,5c0.96,1.21,2.41,1.82,4.35,1.82
			c1.68,0,3.13-0.19,4.35-0.56c1.21-0.37,2.35-0.9,3.41-1.59v9.44c-1.18,1.18-2.66,2.18-4.44,2.99c-1.78,0.81-4,1.21-6.68,1.21
			c-4.24,0-7.68-1.35-10.33-4.06c-2.65-2.71-3.97-6.43-3.97-11.17V252.5h-8.5v-6.07c2.99-1.06,5.75-3.05,8.27-5.98
			c2.52-2.93,4.53-6.79,6.03-11.59H446.08z"/>
		<path class="st1" d="M477.38,276.52c2.06,0,3.81,0.73,5.28,2.2c1.46,1.46,2.2,3.22,2.2,5.28s-0.73,3.82-2.2,5.28
			c-1.46,1.46-3.22,2.2-5.28,2.2c-2.06,0-3.82-0.73-5.28-2.2c-1.46-1.46-2.2-3.22-2.2-5.28s0.73-3.82,2.2-5.28
			C473.57,277.25,475.33,276.52,477.38,276.52z"/>
	</g>
</g>
</svg>
