<svg width="65" height="65" viewBox="0 0 65 65" fill="none" xmlns="http://www.w3.org/2000/svg">
<rect x="1.5" y="1.5" width="62" height="62" rx="8.5" stroke="white" stroke-width="3"/>
<path d="M45.2357 45.0293L42.8084 39.3244C42.805 39.3173 42.8016 39.3102 42.7981 39.3031L33.6492 17.7938C33.4255 17.2676 32.925 16.9298 32.3732 16.9298C31.8215 16.9298 31.321 17.2693 31.0972 17.7938L27.9662 25.152L26.4305 28.7609C26.4305 28.7609 29.0492 29.5467 30.8496 25.5502L31.0494 25.0827C31.0511 25.0791 31.0528 25.0756 31.0545 25.072C31.0562 25.0702 31.0562 25.0667 31.0579 25.0649L32.3732 21.9716L37.1202 33.1324C35.6529 32.384 34.0421 31.9787 32.3732 31.9787C27.8961 31.9787 23.8666 34.8622 21.8527 39.52L19.5125 45.0293L18.6447 47.0702H18.6516L18.6738 47.0062C18.6738 47.0062 21.2651 47.7831 23.0655 43.8524L24.239 41.0951L24.4064 40.6933C24.4269 40.6471 24.4491 40.6044 24.4696 40.5582L24.6148 40.2169L24.6216 40.2329C26.229 36.9209 29.1568 34.8818 32.3732 34.8818C35.67 34.8818 38.69 37.04 40.253 40.4907L42.682 46.2027C42.9126 46.7449 43.4233 47.0684 43.9597 47.0684C44.1476 47.0684 44.3406 47.0276 44.5234 46.944C45.2288 46.6204 45.5466 45.7636 45.2357 45.0293Z" fill="white"/>
</svg>
