<svg width="156" height="34" viewBox="0 0 156 34" fill="none" xmlns="http://www.w3.org/2000/svg">
<path d="M7.79917 8.99094C8.6869 8.99094 9.58487 9.19851 10.4931 9.61712C11.4013 10.0357 12.1593 10.5927 12.767 11.295V9.41993H16.8916V26.0329H12.767V23.2375C12.289 24.137 11.5993 24.9085 10.6877 25.5555C9.77949 26.2024 8.71763 26.5276 7.50553 26.5276C6.18418 26.5276 4.96867 26.1886 3.85217 25.507C2.73568 24.829 1.84453 23.8395 1.17191 22.5456C0.499279 21.2517 0.164673 19.6845 0.164673 17.8406C0.164673 16.0001 0.506108 14.419 1.18898 13.1044C1.87185 11.7897 2.79031 10.7726 3.94778 10.06C5.10866 9.35073 6.39245 8.99094 7.79917 8.99094ZM8.64251 13.0733C7.77527 13.0733 7.03435 13.2981 6.41977 13.7479C5.80177 14.1976 5.32035 14.7858 4.9755 15.5088C4.62723 16.2319 4.45651 17.0103 4.45651 17.844C4.45651 19.0929 4.82868 20.1585 5.57642 21.0372C6.32417 21.916 7.31433 22.3519 8.54691 22.3519C9.281 22.3519 9.9707 22.1547 10.6092 21.7603C11.2477 21.3659 11.7666 20.8124 12.1695 20.0997C12.569 19.387 12.7705 18.5256 12.7705 17.5188V15.149C12.1866 14.5124 11.5515 14.0073 10.8721 13.6372C10.1858 13.2601 9.44147 13.0733 8.64251 13.0733Z" fill="white"/>
<path d="M26.0796 2.34851V26.0363H21.9551V2.34851H26.0796Z" fill="white"/>
<path d="M40.7238 9.41992V12.9072H36.4695V26.0329H32.3449V12.9072H29.8456V9.41992H32.3449V7.93922C32.3449 6.66609 32.6113 5.57631 33.1405 4.66644C33.6697 3.75657 34.3697 3.06119 35.2335 2.57685C36.0973 2.09596 37.0499 1.85379 38.0913 1.85379C38.7844 1.85379 39.3888 1.9299 39.9077 2.08558C40.4267 2.23781 40.8808 2.44884 41.2701 2.71177V6.19904C40.5565 5.75967 39.7336 5.5521 38.8015 5.57285C38.1528 5.59361 37.5996 5.80811 37.1455 6.21288C36.6914 6.61765 36.4627 7.28189 36.4627 8.20215V9.41992H40.7238Z" fill="white"/>
<path d="M50.6254 8.99094C51.5131 8.99094 52.4111 9.19851 53.3193 9.61712C54.2275 10.0357 54.9855 10.5927 55.5933 11.295V9.41993H59.7178V26.0329H55.5933V23.2375C55.1153 24.137 54.4256 24.9085 53.5139 25.5555C52.6057 26.2024 51.5439 26.5276 50.3318 26.5276C49.0104 26.5276 47.7949 26.1886 46.6784 25.507C45.5619 24.829 44.6708 23.8395 43.9981 22.5456C43.3255 21.2517 42.9909 19.6845 42.9909 17.8406C42.9909 16.0001 43.3323 14.419 44.0152 13.1044C44.6981 11.7897 45.6165 10.7726 46.774 10.06C47.9349 9.35073 49.2187 8.99094 50.6254 8.99094ZM51.4687 13.0733C50.6015 13.0733 49.8606 13.2981 49.246 13.7479C48.628 14.1976 48.1466 14.7858 47.8017 15.5088C47.4535 16.2319 47.2827 17.0103 47.2827 17.844C47.2827 19.0929 47.6549 20.1585 48.4027 21.0372C49.1504 21.916 50.1406 22.3519 51.3731 22.3519C52.1072 22.3519 52.7969 22.1547 53.4354 21.7603C54.0739 21.3659 54.5929 20.8124 54.9958 20.0997C55.3952 19.387 55.5967 18.5256 55.5967 17.5188V15.149C55.0128 14.5124 54.3778 14.0073 53.6983 13.6372C53.012 13.2601 52.2711 13.0733 51.4687 13.0733Z" fill="white"/>
<path d="M74.1674 8.99094C75.4648 8.99094 76.6735 9.32652 77.7866 9.99422C78.8997 10.6619 79.8011 11.6375 80.4805 12.921C81.1634 14.2045 81.5048 15.7683 81.5048 17.6088C81.5048 19.4527 81.1634 21.0407 80.4805 22.3796C79.7976 23.7184 78.8792 24.7425 77.7217 25.4551C76.5642 26.1678 75.2804 26.5242 73.8737 26.5242C72.9655 26.5242 72.0607 26.2993 71.1627 25.8495C70.2648 25.3998 69.5102 24.8359 68.9059 24.1543V33.9242H64.7813V9.41993H68.9059V12.2153C69.3804 11.3158 70.0736 10.5547 70.9852 9.92849C71.8934 9.30576 72.9553 8.99094 74.1674 8.99094ZM73.1294 13.1701C72.3919 13.1701 71.7022 13.3639 71.0501 13.7444C70.4013 14.1284 69.8755 14.6716 69.476 15.3739C69.0766 16.0762 68.8854 16.9203 68.9093 17.9063V20.3073C69.4931 20.9231 70.1282 21.4316 70.8076 21.8364C71.4905 22.2412 72.2314 22.4453 73.0304 22.4453C73.8737 22.4453 74.6112 22.2135 75.2395 21.7534C75.8677 21.2933 76.356 20.6947 76.7008 19.9613C77.0457 19.2279 77.2198 18.4425 77.2198 17.6088C77.2198 16.3599 76.8476 15.3047 76.0999 14.4502C75.3522 13.5991 74.362 13.1701 73.1294 13.1701Z" fill="white"/>
<path d="M93.0658 8.99094C94.6671 8.99094 96.1285 9.38187 97.4498 10.1603C98.7712 10.9387 99.8365 11.9904 100.649 13.3189C101.462 14.6474 101.868 16.1315 101.868 17.7783C101.868 19.4251 101.462 20.9023 100.649 22.2204C99.8365 23.5351 98.7712 24.5833 97.4498 25.3617C96.1285 26.1401 94.6671 26.5311 93.0658 26.5311C91.4849 26.5311 90.0304 26.1401 88.6988 25.3617C87.3672 24.5833 86.302 23.5351 85.4996 22.2204C84.6972 20.9058 84.2977 19.4251 84.2977 17.7783C84.2977 16.135 84.6972 14.6474 85.4996 13.3189C86.302 11.9939 87.3672 10.9387 88.6988 10.1603C90.027 9.38187 91.4849 8.99094 93.0658 8.99094ZM93.0658 13.0387C92.2873 13.0387 91.5601 13.2255 90.8908 13.5991C90.2182 13.9728 89.6822 14.509 89.2827 15.2113C88.8832 15.9136 88.6818 16.7681 88.6818 17.7783C88.6818 18.7885 88.8832 19.643 89.2827 20.3453C89.6822 21.0476 90.2182 21.5804 90.8908 21.9402C91.5601 22.3035 92.2873 22.4834 93.0658 22.4834C93.8443 22.4834 94.5715 22.3035 95.2407 21.9402C95.9099 21.5769 96.4528 21.0476 96.8625 20.3453C97.2723 19.643 97.4805 18.7885 97.4805 17.7783C97.4805 16.7716 97.2757 15.9136 96.8625 15.2113C96.4528 14.509 95.9099 13.9728 95.2407 13.5991C94.5681 13.2255 93.8443 13.0387 93.0658 13.0387Z" fill="white"/>
<path d="M111.606 9.41993V26.0329H107.481V12.9729H104.852V9.41993H111.606ZM109.202 0.767487C109.981 0.767487 110.653 1.04771 111.217 1.60817C111.78 2.16862 112.06 2.8294 112.06 3.59743C112.06 4.34471 111.776 5.00203 111.217 5.57286C110.653 6.1437 109.984 6.42738 109.202 6.42738C108.424 6.42738 107.758 6.1437 107.205 5.57286C106.652 5.00203 106.375 4.34471 106.375 3.59743C106.375 2.8294 106.652 2.16516 107.205 1.60817C107.758 1.04771 108.424 0.767487 109.202 0.767487Z" fill="white"/>
<path d="M120.923 9.41993V11.7897C121.422 11.1117 122.098 10.4751 122.952 9.88005C123.805 9.28846 124.785 8.99094 125.891 8.99094C127.558 8.99094 128.954 9.56177 130.081 10.7034C131.208 11.8451 131.767 13.5541 131.767 15.8375V26.0364H127.643L127.612 16.3979C127.612 15.2805 127.346 14.4467 126.817 13.8966C126.287 13.35 125.557 13.0733 124.625 13.0733C123.887 13.0733 123.201 13.3154 122.562 13.7963C121.924 14.2807 121.378 14.848 120.923 15.5088V26.0364H116.799V9.41993H120.923Z" fill="white"/>
<path d="M141.963 4.5834V9.41992H146.507V12.9072H141.963V20.0789C141.963 20.8262 142.13 21.4109 142.465 21.8399C142.799 22.2688 143.305 22.4799 143.974 22.4799C144.558 22.4799 145.063 22.4142 145.483 22.2827C145.903 22.1512 146.299 21.9644 146.668 21.7222V25.0434C146.255 25.4621 145.742 25.8115 145.124 26.0952C144.506 26.3788 143.735 26.5241 142.803 26.5241C141.331 26.5241 140.136 26.0467 139.214 25.0919C138.292 24.137 137.835 22.8258 137.835 21.1618V12.9072H134.881V10.7692C135.919 10.3955 136.879 9.69322 137.756 8.66227C138.634 7.63131 139.33 6.27169 139.849 4.5834H141.963Z" fill="white"/>
<path d="M152.841 21.3625C153.554 21.3625 154.166 21.6219 154.674 22.1374C155.183 22.6529 155.436 23.2722 155.436 23.9952C155.436 24.7183 155.18 25.3375 154.674 25.853C154.166 26.3685 153.554 26.6245 152.841 26.6245C152.127 26.6245 151.516 26.365 151.007 25.853C150.499 25.3375 150.246 24.7183 150.246 23.9952C150.246 23.2722 150.499 22.6529 151.007 22.1374C151.516 21.6219 152.127 21.3625 152.841 21.3625Z" fill="white"/>
</svg>
