<svg width="92" height="91" viewBox="0 0 92 91" fill="none" xmlns="http://www.w3.org/2000/svg">
<path d="M0 0V91H92V0H0ZM64.3364 67.8182C64.0687 67.9439 63.7856 68.0041 63.5101 68.0041C62.725 68.0041 61.9786 67.5231 61.6414 66.7115L58.084 58.1826C55.7982 53.0287 51.376 49.8068 46.5496 49.8068C41.8416 49.8068 37.5532 52.851 35.2005 57.7973L35.1902 57.7727L34.9765 58.2837C34.9456 58.352 34.9122 58.4176 34.8839 58.4859L34.6367 59.0871L32.9198 63.2054C30.2866 69.0725 26.4898 67.9139 26.4898 67.9139L26.4589 68.0068H26.4486L27.7176 64.9598L31.1437 56.7315C34.0936 49.7767 39.9908 45.4699 46.547 45.4699C48.9898 45.4699 51.3476 46.0739 53.497 47.1916L46.547 30.5246L44.6216 35.1429C44.619 35.1457 44.619 35.1511 44.6164 35.1539C44.6139 35.1593 44.6113 35.1648 44.6087 35.1703L44.3178 35.8698C41.682 41.8381 37.8492 40.6658 37.8492 40.6658L40.0964 35.2768L44.6782 24.2885C45.0051 23.5042 45.7387 22.9959 46.547 22.9959C47.3552 22.9959 48.0889 23.5015 48.4158 24.2885L61.8113 56.4063C61.8164 56.4173 61.8215 56.4282 61.8241 56.4391L65.3763 64.9598C65.8345 66.0529 65.3686 67.3345 64.3364 67.8182Z" fill="#67A5FF"/>
</svg>
