<svg width="144" height="60" viewBox="0 0 144 60" fill="none" xmlns="http://www.w3.org/2000/svg">
<path d="M0 0H144V60H0V0Z" fill="#3E8CFF"/>
<path d="M26.3695 24.6865C26.9465 24.6865 27.5302 24.8196 28.1205 25.0879C28.7109 25.3562 29.2036 25.7133 29.5986 26.1635V24.9615H32.2796V35.6108H29.5986V33.8189C29.2879 34.3955 28.8396 34.8901 28.247 35.3048C27.6567 35.7195 26.9665 35.928 26.1786 35.928C25.3197 35.928 24.5297 35.7106 23.8039 35.2738C23.0782 34.8391 22.499 34.2048 22.0618 33.3754C21.6246 32.546 21.4071 31.5414 21.4071 30.3594C21.4071 29.1795 21.629 28.1661 22.0729 27.3233C22.5167 26.4806 23.1137 25.8286 23.8661 25.3718C24.6206 24.9171 25.4551 24.6865 26.3695 24.6865ZM26.9177 27.3034C26.3539 27.3034 25.8723 27.4475 25.4729 27.7358C25.0712 28.0241 24.7582 28.4011 24.5341 28.8646C24.3077 29.3281 24.1968 29.8271 24.1968 30.3616C24.1968 31.1622 24.4387 31.8452 24.9247 32.4085C25.4107 32.9718 26.0543 33.2512 26.8555 33.2512C27.3327 33.2512 27.781 33.1248 28.196 32.872C28.611 32.6192 28.9483 32.2643 29.2102 31.8075C29.4699 31.3507 29.6008 30.7985 29.6008 30.1531V28.634C29.2213 28.2259 28.8085 27.9022 28.3669 27.6649C27.9208 27.4231 27.437 27.3034 26.9177 27.3034Z" fill="#F5F5F5"/>
<path d="M38.2518 20.4285V35.6131H35.5708V20.4285H38.2518Z" fill="#F5F5F5"/>
<path d="M47.7705 24.9615V27.1969H45.0052V35.6108H42.3242V27.1969H40.6997V24.9615H42.3242V24.0123C42.3242 23.1962 42.4973 22.4976 42.8413 21.9144C43.1853 21.3311 43.6403 20.8854 44.2018 20.5749C44.7633 20.2667 45.3825 20.1114 46.0594 20.1114C46.5099 20.1114 46.9027 20.1602 47.24 20.26C47.5774 20.3576 47.8726 20.4929 48.1256 20.6614V22.8968C47.6617 22.6152 47.1269 22.4821 46.521 22.4954C46.0993 22.5087 45.7398 22.6462 45.4446 22.9057C45.1494 23.1652 45.0007 23.591 45.0007 24.1809V24.9615H47.7705Z" fill="#F5F5F5"/>
<path d="M54.2065 24.6865C54.7836 24.6865 55.3672 24.8196 55.9576 25.0879C56.5479 25.3562 57.0406 25.7133 57.4356 26.1635V24.9615H60.1166V35.6108H57.4356V33.8189C57.1249 34.3955 56.6766 34.8901 56.0841 35.3048C55.4937 35.7195 54.8035 35.928 54.0157 35.928C53.1568 35.928 52.3667 35.7106 51.641 35.2738C50.9153 34.8391 50.336 34.2048 49.8988 33.3754C49.4616 32.546 49.2441 31.5414 49.2441 30.3594C49.2441 29.1795 49.466 28.1661 49.9099 27.3233C50.3538 26.4806 50.9508 25.8286 51.7031 25.3718C52.4577 24.9171 53.2922 24.6865 54.2065 24.6865ZM54.7547 27.3034C54.191 27.3034 53.7094 27.4475 53.3099 27.7358C52.9082 28.0241 52.5953 28.4011 52.3711 28.8646C52.1448 29.3281 52.0338 29.8271 52.0338 30.3616C52.0338 31.1622 52.2757 31.8452 52.7617 32.4085C53.2478 32.9718 53.8914 33.2512 54.6926 33.2512C55.1697 33.2512 55.618 33.1248 56.033 32.872C56.448 32.6192 56.7854 32.2643 57.0473 31.8075C57.3069 31.3507 57.4379 30.7985 57.4379 30.1531V28.634C57.0584 28.2259 56.6456 27.9022 56.2039 27.6649C55.7578 27.4231 55.2762 27.3034 54.7547 27.3034Z" fill="#F5F5F5"/>
<path d="M69.5088 24.6865C70.3521 24.6865 71.1378 24.9016 71.8613 25.3296C72.5848 25.7577 73.1707 26.383 73.6123 27.2058C74.0562 28.0286 74.2781 29.031 74.2781 30.2108C74.2781 31.3928 74.0562 32.4107 73.6123 33.269C73.1685 34.1272 72.5715 34.7836 71.8191 35.2405C71.0668 35.6973 70.2323 35.9258 69.3179 35.9258C68.7276 35.9258 68.1395 35.7816 67.5558 35.4933C66.9721 35.205 66.4816 34.8435 66.0888 34.4066V40.6694H63.4079V24.9615H66.0888V26.7534C66.3973 26.1768 66.8478 25.6889 67.4404 25.2875C68.0307 24.8883 68.7209 24.6865 69.5088 24.6865ZM68.8341 27.3655C68.3547 27.3655 67.9064 27.4897 67.4826 27.7336C67.0609 27.9798 66.7191 28.328 66.4594 28.7781C66.1998 29.2283 66.0755 29.7695 66.091 30.4015V31.9406C66.4705 32.3353 66.8833 32.6613 67.325 32.9208C67.7688 33.1803 68.2504 33.3111 68.7698 33.3111C69.3179 33.3111 69.7973 33.1625 70.2057 32.8676C70.614 32.5726 70.9314 32.1889 71.1555 31.7188C71.3797 31.2486 71.4929 30.7452 71.4929 30.2108C71.4929 29.4102 71.251 28.7338 70.7649 28.186C70.2789 27.6405 69.6353 27.3655 68.8341 27.3655Z" fill="#F5F5F5"/>
<path d="M81.7928 24.6865C82.8337 24.6865 83.7835 24.9371 84.6424 25.4361C85.5013 25.9351 86.1937 26.6092 86.7219 27.4608C87.2501 28.3124 87.5142 29.2638 87.5142 30.3194C87.5142 31.3751 87.2501 32.322 86.7219 33.1669C86.1937 34.0097 85.5013 34.6816 84.6424 35.1806C83.7835 35.6796 82.8337 35.9302 81.7928 35.9302C80.7652 35.9302 79.8198 35.6796 78.9543 35.1806C78.0887 34.6816 77.3963 34.0097 76.8748 33.1669C76.3532 32.3242 76.0936 31.3751 76.0936 30.3194C76.0936 29.266 76.3532 28.3124 76.8748 27.4608C77.3963 26.6115 78.0887 25.9351 78.9543 25.4361C79.8176 24.9371 80.7652 24.6865 81.7928 24.6865ZM81.7928 27.2812C81.2868 27.2812 80.8141 27.401 80.3791 27.6405C79.9419 27.88 79.5934 28.2237 79.3338 28.6739C79.0741 29.1241 78.9432 29.6719 78.9432 30.3194C78.9432 30.967 79.0741 31.5148 79.3338 31.965C79.5934 32.4152 79.9419 32.7567 80.3791 32.9873C80.8141 33.2202 81.2868 33.3355 81.7928 33.3355C82.2988 33.3355 82.7715 33.2202 83.2065 32.9873C83.6415 32.7545 83.9944 32.4152 84.2607 31.965C84.527 31.5148 84.6624 30.967 84.6624 30.3194C84.6624 29.6741 84.5292 29.1241 84.2607 28.6739C83.9944 28.2237 83.6415 27.88 83.2065 27.6405C82.7693 27.401 82.2988 27.2812 81.7928 27.2812Z" fill="#F5F5F5"/>
<path d="M93.8438 24.9615V35.6108H91.1628V27.2391H89.4539V24.9615H93.8438ZM92.2813 19.4151C92.7874 19.4151 93.2246 19.5947 93.5908 19.954C93.9569 20.3132 94.1389 20.7368 94.1389 21.2291C94.1389 21.7082 93.9547 22.1295 93.5908 22.4954C93.2246 22.8614 92.7896 23.0432 92.2813 23.0432C91.7753 23.0432 91.3426 22.8614 90.983 22.4954C90.6235 22.1295 90.4437 21.7082 90.4437 21.2291C90.4437 20.7368 90.6235 20.311 90.983 19.954C91.3426 19.5947 91.7753 19.4151 92.2813 19.4151Z" fill="#F5F5F5"/>
<path d="M99.9003 24.9615V26.4806C100.224 26.046 100.664 25.6379 101.219 25.2565C101.773 24.8772 102.41 24.6865 103.129 24.6865C104.212 24.6865 105.12 25.0524 105.853 25.7843C106.585 26.5161 106.949 27.6116 106.949 29.0753V35.6131H104.268L104.248 29.4346C104.248 28.7183 104.075 28.1838 103.731 27.8312C103.387 27.4808 102.912 27.3034 102.306 27.3034C101.827 27.3034 101.381 27.4586 100.966 27.7669C100.551 28.0774 100.195 28.4411 99.9003 28.8646V35.6131H97.2194V24.9615H99.9003Z" fill="#F5F5F5"/>
<path d="M113.576 21.8612V24.9615H116.53V27.1969H113.576V31.7942C113.576 32.2732 113.685 32.648 113.902 32.923C114.12 33.198 114.448 33.3333 114.883 33.3333C115.263 33.3333 115.591 33.2911 115.864 33.2069C116.137 33.1226 116.394 33.0028 116.634 32.8476V34.9766C116.366 35.2449 116.033 35.4689 115.631 35.6508C115.229 35.8326 114.728 35.9258 114.122 35.9258C113.165 35.9258 112.388 35.6197 111.789 35.0076C111.19 34.3955 110.893 33.555 110.893 32.4883V27.1969H108.973V25.8264C109.648 25.5869 110.271 25.1367 110.842 24.4758C111.412 23.815 111.865 22.9434 112.202 21.8612H113.576Z" fill="#F5F5F5"/>
<path d="M120.647 32.617C121.11 32.617 121.508 32.7833 121.838 33.1137C122.169 33.4442 122.333 33.8411 122.333 34.3046C122.333 34.7681 122.167 35.1651 121.838 35.4955C121.508 35.826 121.11 35.9901 120.647 35.9901C120.183 35.9901 119.786 35.8237 119.455 35.4955C119.124 35.1651 118.96 34.7681 118.96 34.3046C118.96 33.8411 119.124 33.4442 119.455 33.1137C119.786 32.7833 120.183 32.617 120.647 32.617Z" fill="#F5F5F5"/>
</svg>
