<svg width="65" height="65" viewBox="0 0 65 65" fill="none" xmlns="http://www.w3.org/2000/svg">
<g clip-path="url(#clip0_68_330)">
<path opacity="0.7" d="M32.2867 61.5646C32.5746 61.9028 32.7847 61.5688 32.9864 61.4574C40.3406 57.4063 47.6863 53.3426 55.0404 49.2937C55.4607 49.0625 55.6519 48.7768 55.7044 48.304C56.3242 42.7737 56.9588 37.2455 57.5954 31.7173C58.2888 25.7058 58.9822 19.6943 59.7092 13.6871C59.7786 13.1135 59.6441 12.9054 59.1146 12.7184C50.5208 9.68013 41.9354 6.61661 33.3415 3.572C33.0032 3.45223 32.6713 3.10764 32.2573 3.4018C32.583 3.68336 32.4927 4.06578 32.4927 4.41667C32.499 6.22579 32.4969 8.0349 32.4969 9.84402C32.5725 9.97219 32.6586 10.0962 32.7196 10.2327C34.3648 13.9182 36.0037 17.6079 37.6532 21.2933C41.0634 28.9122 44.4799 36.5269 47.8901 44.1458C48.428 45.3498 48.9512 46.5621 49.5164 47.8544C47.4594 47.8544 45.5389 47.8397 43.6205 47.8649C43.1246 47.8712 43.0343 47.5686 42.8956 47.2177C41.9333 44.7929 40.9583 42.3766 39.9876 39.956C39.8657 39.6535 39.8174 39.3299 39.3425 39.3383C37.0585 39.3782 34.7724 39.3866 32.4885 39.4055C32.4906 46.476 32.4948 53.5486 32.4927 60.619C32.4948 60.9468 32.5725 61.2977 32.2867 61.5646Z" fill="#D2D2D2"/>
<path d="M32.2867 61.5646C32.5725 61.2977 32.4948 60.9468 32.4948 60.6211C32.4948 53.5507 32.4927 46.4781 32.4906 39.4076C30.2381 39.3887 27.9856 39.3782 25.7311 39.3425C25.2562 39.3341 25.1364 39.6135 24.9914 39.9791C24.0249 42.4291 23.0331 44.8686 22.0582 47.3165C21.9447 47.6022 21.8817 47.8691 21.4657 47.867C19.4927 47.8502 17.5217 47.8586 15.5487 47.8586C15.5487 47.7304 15.5298 47.6653 15.5508 47.6169C18.1542 41.7862 20.7639 35.9575 23.3693 30.1267C25.2688 25.8718 27.1536 21.6085 29.0614 17.3578C30.1877 14.8469 31.3496 12.3528 32.4969 9.85033C32.4969 8.04121 32.499 6.2321 32.4927 4.42298C32.4906 4.07208 32.583 3.68757 32.2573 3.40811C29.3052 4.43979 26.3467 5.46096 23.3987 6.50735C17.5596 8.57701 11.7288 10.674 5.88331 12.731C5.337 12.9223 5.22564 13.1198 5.29288 13.6892C6.08713 20.3562 6.84145 27.0296 7.61048 33.7008C8.16939 38.5608 8.73251 43.4209 9.28722 48.2809C9.33765 48.7264 9.48894 49.0394 9.92388 49.2769C17.2465 53.3006 24.5586 57.3454 31.8749 61.3818C32.0031 61.4553 32.1481 61.5036 32.2867 61.5646Z" fill="#D2D2D2"/>
<path opacity="0.7" d="M32.4885 34.0349C34.1022 34.0349 35.7159 34.0349 37.3422 34.0349C37.4473 33.8647 37.3191 33.7029 37.2519 33.5432C35.7747 29.9796 34.2934 26.416 32.7826 22.865C32.77 22.8377 32.852 21.9132 32.3246 22.6297C32.5557 22.884 32.4927 23.1991 32.4927 23.4954C32.4948 27.0107 32.4927 30.5238 32.4885 34.0349Z" fill="#D2D2D2"/>
<path d="M32.4885 34.0349C32.4906 30.5217 32.4948 27.0107 32.4948 23.4975C32.4948 23.2012 32.5578 22.886 32.3267 22.6318C30.7361 26.4013 29.1455 30.1708 27.5129 34.037C29.2443 34.0349 30.8664 34.0349 32.4885 34.0349Z" fill="#D2D2D2"/>
</g>
<defs>
<clipPath id="clip0_68_330">
<rect width="65" height="65" fill="white"/>
</clipPath>
</defs>
</svg>
