<svg width="15" height="12" viewBox="0 0 15 12" fill="none" xmlns="http://www.w3.org/2000/svg">
<g clip-path="url(#clip0_440_3)">
<path d="M14.7034 5.66593L9.77862 0.47759C9.55534 0.242415 9.19237 0.242415 8.96908 0.47759C8.7458 0.712766 8.7458 1.09508 8.96908 1.33025L12.9172 5.48865H0.687021C0.370991 5.48865 0.114502 5.7588 0.114502 6.09166C0.114502 6.42452 0.370991 6.69467 0.687021 6.69467H12.9172L8.96908 10.8531C8.7458 11.0882 8.7458 11.4706 8.96908 11.7057C9.0813 11.8239 9.22786 11.8818 9.37443 11.8818C9.52099 11.8818 9.66756 11.8227 9.77977 11.7057L14.7046 6.51859C14.9279 6.28221 14.9279 5.90111 14.7034 5.66593Z" fill="black"/>
</g>
<defs>
<clipPath id="clip0_440_3">
<rect width="15" height="12" fill="white"/>
</clipPath>
</defs>
</svg>
