<svg width="335" height="391" viewBox="0 0 335 391" fill="none" xmlns="http://www.w3.org/2000/svg">
<rect width="335" height="391" fill="#3D8CFF"/>
<path d="M127.981 349V319.912L122.557 321.112V318.328L129.325 315.4H132.061V349H127.981ZM152.258 349.576C149.282 349.576 146.706 348.856 144.53 347.416C142.386 345.944 140.738 343.912 139.586 341.32C138.434 338.696 137.858 335.656 137.858 332.2C137.858 328.744 138.434 325.72 139.586 323.128C140.738 320.504 142.386 318.472 144.53 317.032C146.706 315.56 149.282 314.824 152.258 314.824C155.234 314.824 157.794 315.56 159.938 317.032C162.082 318.472 163.73 320.504 164.882 323.128C166.034 325.72 166.61 328.744 166.61 332.2C166.61 335.656 166.034 338.696 164.882 341.32C163.73 343.912 162.082 345.944 159.938 347.416C157.794 348.856 155.234 349.576 152.258 349.576ZM152.258 346.024C154.21 346.024 155.954 345.48 157.49 344.392C159.058 343.272 160.274 341.688 161.138 339.64C162.034 337.56 162.482 335.08 162.482 332.2C162.482 329.32 162.034 326.856 161.138 324.808C160.274 322.76 159.058 321.192 157.49 320.104C155.954 318.984 154.21 318.424 152.258 318.424C150.274 318.424 148.514 318.984 146.978 320.104C145.442 321.192 144.226 322.76 143.33 324.808C142.434 326.856 141.986 329.32 141.986 332.2C141.986 335.08 142.434 337.56 143.33 339.64C144.226 341.688 145.442 343.272 146.978 344.392C148.514 345.48 150.274 346.024 152.258 346.024Z" fill="white"/>
<path d="M183.759 327.192C182.969 327.192 182.276 327.011 181.679 326.648C181.092 326.285 180.633 325.789 180.303 325.16C179.983 324.531 179.823 323.816 179.823 323.016C179.823 322.216 179.988 321.507 180.319 320.888C180.649 320.259 181.108 319.768 181.695 319.416C182.281 319.053 182.975 318.872 183.775 318.872C184.425 318.872 185.001 319.005 185.503 319.272C186.004 319.539 186.393 319.912 186.671 320.392V315.48H188.015V327H186.799L186.671 325.688C186.415 326.072 186.047 326.419 185.567 326.728C185.087 327.037 184.484 327.192 183.759 327.192ZM183.903 326.024C184.436 326.024 184.905 325.901 185.311 325.656C185.727 325.4 186.047 325.048 186.271 324.6C186.505 324.152 186.623 323.629 186.623 323.032C186.623 322.435 186.505 321.912 186.271 321.464C186.047 321.016 185.727 320.669 185.311 320.424C184.905 320.168 184.436 320.04 183.903 320.04C183.38 320.04 182.911 320.168 182.495 320.424C182.089 320.669 181.769 321.016 181.535 321.464C181.311 321.912 181.199 322.435 181.199 323.032C181.199 323.629 181.311 324.152 181.535 324.6C181.769 325.048 182.089 325.4 182.495 325.656C182.911 325.901 183.38 326.024 183.903 326.024ZM192.846 327.192C192.184 327.192 191.635 327.08 191.198 326.856C190.76 326.632 190.435 326.333 190.222 325.96C190.008 325.587 189.902 325.181 189.902 324.744C189.902 323.933 190.211 323.309 190.83 322.872C191.448 322.435 192.291 322.216 193.358 322.216H195.502V322.12C195.502 321.427 195.32 320.904 194.958 320.552C194.595 320.189 194.11 320.008 193.502 320.008C192.979 320.008 192.526 320.141 192.142 320.408C191.768 320.664 191.534 321.043 191.438 321.544H190.062C190.115 320.968 190.307 320.483 190.638 320.088C190.979 319.693 191.4 319.395 191.902 319.192C192.403 318.979 192.936 318.872 193.502 318.872C194.611 318.872 195.443 319.171 195.998 319.768C196.563 320.355 196.846 321.139 196.846 322.12V327H195.646L195.566 325.576C195.342 326.024 195.011 326.408 194.574 326.728C194.147 327.037 193.571 327.192 192.846 327.192ZM193.054 326.056C193.566 326.056 194.003 325.923 194.366 325.656C194.739 325.389 195.022 325.043 195.214 324.616C195.406 324.189 195.502 323.741 195.502 323.272V323.256H193.47C192.68 323.256 192.12 323.395 191.79 323.672C191.47 323.939 191.31 324.275 191.31 324.68C191.31 325.096 191.459 325.432 191.758 325.688C192.067 325.933 192.499 326.056 193.054 326.056ZM199.491 330.52L201.459 326.232H200.995L197.843 319.064H199.299L201.923 325.24L204.707 319.064H206.099L200.899 330.52H199.491ZM210.089 327.192C209.14 327.192 208.351 326.952 207.721 326.472C207.092 325.992 206.724 325.341 206.617 324.52H207.993C208.079 324.936 208.297 325.299 208.649 325.608C209.012 325.907 209.497 326.056 210.105 326.056C210.671 326.056 211.087 325.939 211.353 325.704C211.62 325.459 211.753 325.171 211.753 324.84C211.753 324.36 211.577 324.04 211.225 323.88C210.884 323.72 210.399 323.576 209.769 323.448C209.343 323.363 208.916 323.24 208.489 323.08C208.063 322.92 207.705 322.696 207.417 322.408C207.129 322.109 206.985 321.72 206.985 321.24C206.985 320.547 207.241 319.981 207.753 319.544C208.276 319.096 208.98 318.872 209.865 318.872C210.708 318.872 211.396 319.085 211.929 319.512C212.473 319.928 212.788 320.525 212.873 321.304H211.545C211.492 320.899 211.316 320.584 211.017 320.36C210.729 320.125 210.34 320.008 209.849 320.008C209.369 320.008 208.996 320.109 208.729 320.312C208.473 320.515 208.345 320.781 208.345 321.112C208.345 321.432 208.511 321.683 208.841 321.864C209.183 322.045 209.641 322.2 210.217 322.328C210.708 322.435 211.172 322.568 211.609 322.728C212.057 322.877 212.42 323.107 212.697 323.416C212.985 323.715 213.129 324.152 213.129 324.728C213.14 325.443 212.868 326.035 212.313 326.504C211.769 326.963 211.028 327.192 210.089 327.192Z" fill="white"/>
<circle cx="302.5" cy="94.5" r="7.5" fill="white" fill-opacity="0.5"/>
<circle cx="257.5" cy="94.5" r="7.5" fill="white" fill-opacity="0.5"/>
<rect x="15" y="78" width="214" height="33" rx="16.5" fill="#FCFCFC"/>
<path d="M31.6943 100V90.72L29.8863 91.136V89.888L32.3663 88.8H33.4543V100H31.6943Z" fill="#2D64B6"/>
<path d="M73.3339 100V98.784C74.0592 98.208 74.7525 97.6267 75.4139 97.04C76.0752 96.4533 76.6619 95.8773 77.1739 95.312C77.6965 94.736 78.1072 94.176 78.4059 93.632C78.7045 93.0773 78.8539 92.544 78.8539 92.032C78.8539 91.6907 78.7952 91.3707 78.6779 91.072C78.5605 90.7627 78.3685 90.5173 78.1019 90.336C77.8352 90.144 77.4779 90.048 77.0299 90.048C76.3579 90.048 75.8512 90.2613 75.5099 90.688C75.1792 91.1147 75.0192 91.6267 75.0299 92.224H73.3819C73.3925 91.4347 73.5579 90.7733 73.8779 90.24C74.2085 89.7067 74.6459 89.3013 75.1899 89.024C75.7445 88.7467 76.3685 88.608 77.0619 88.608C78.1179 88.608 78.9605 88.9067 79.5899 89.504C80.2299 90.0907 80.5499 90.912 80.5499 91.968C80.5499 92.5973 80.3952 93.2213 80.0859 93.84C79.7872 94.4587 79.3925 95.056 78.9019 95.632C78.4219 96.1973 77.9045 96.7307 77.3499 97.232C76.7952 97.7333 76.2672 98.1867 75.7659 98.592H80.8859V100H73.3339Z" fill="#2D64B6"/>
<path d="M121.986 100.192C121.26 100.192 120.599 100.064 120.002 99.808C119.415 99.5413 118.946 99.1413 118.594 98.608C118.242 98.0747 118.055 97.408 118.034 96.608H119.714C119.735 97.2053 119.938 97.712 120.322 98.128C120.716 98.5333 121.271 98.736 121.986 98.736C122.668 98.736 123.191 98.5493 123.554 98.176C123.916 97.792 124.098 97.3173 124.098 96.752C124.098 96.0693 123.852 95.5627 123.362 95.232C122.882 94.9013 122.29 94.736 121.586 94.736H120.754V93.328H121.602C122.231 93.328 122.738 93.1787 123.122 92.88C123.516 92.5813 123.714 92.16 123.714 91.616C123.714 91.1573 123.559 90.784 123.25 90.496C122.951 90.208 122.524 90.064 121.97 90.064C121.394 90.064 120.94 90.2347 120.61 90.576C120.279 90.9067 120.098 91.3227 120.066 91.824H118.386C118.407 91.1733 118.567 90.608 118.866 90.128C119.175 89.648 119.596 89.2747 120.13 89.008C120.663 88.7413 121.276 88.608 121.97 88.608C122.716 88.608 123.34 88.7413 123.842 89.008C124.354 89.264 124.738 89.616 124.994 90.064C125.26 90.5013 125.394 90.9813 125.394 91.504C125.394 92.1013 125.228 92.624 124.898 93.072C124.567 93.52 124.124 93.8187 123.57 93.968C124.21 94.1067 124.738 94.4213 125.154 94.912C125.57 95.392 125.778 96.016 125.778 96.784C125.778 97.4027 125.634 97.9733 125.346 98.496C125.058 99.008 124.631 99.4187 124.066 99.728C123.5 100.037 122.807 100.192 121.986 100.192Z" fill="#2D64B6"/>
<path d="M168.256 100V97.76H162.64V96.416L167.984 88.8H169.936V96.288H171.504V97.76H169.936V100H168.256ZM164.48 96.288H168.352V90.672L164.48 96.288Z" fill="#2D64B6"/>
<path d="M212.11 100.192C211.321 100.192 210.638 100.053 210.062 99.776C209.486 99.488 209.028 99.0987 208.686 98.608C208.356 98.1067 208.153 97.5413 208.078 96.912H209.742C209.849 97.4453 210.116 97.888 210.542 98.24C210.969 98.5813 211.497 98.752 212.126 98.752C212.596 98.752 213.001 98.64 213.342 98.416C213.684 98.1813 213.95 97.872 214.142 97.488C214.334 97.104 214.43 96.672 214.43 96.192C214.43 95.4347 214.217 94.832 213.79 94.384C213.364 93.9253 212.825 93.696 212.174 93.696C211.62 93.696 211.145 93.8293 210.75 94.096C210.356 94.352 210.068 94.6773 209.886 95.072H208.27L209.23 88.8H215.278V90.288H210.51L209.934 93.28C210.18 93.0027 210.516 92.7733 210.942 92.592C211.38 92.4 211.87 92.304 212.414 92.304C213.172 92.304 213.822 92.48 214.366 92.832C214.91 93.1733 215.326 93.6373 215.614 94.224C215.913 94.8107 216.062 95.4613 216.062 96.176C216.062 96.9227 215.902 97.6 215.582 98.208C215.262 98.816 214.804 99.3013 214.206 99.664C213.62 100.016 212.921 100.192 212.11 100.192Z" fill="#2D64B6"/>
<circle cx="302.5" cy="134.5" r="7.5" fill="white" fill-opacity="0.5"/>
<circle cx="257.5" cy="134.5" r="7.5" fill="white" fill-opacity="0.5"/>
<rect x="15" y="118" width="214" height="33" rx="16.5" fill="#FCFCFC"/>
<path d="M32.6933 140.192C31.872 140.192 31.1786 140.037 30.6133 139.728C30.048 139.419 29.5893 139.008 29.2373 138.496C28.896 137.984 28.6506 137.408 28.5013 136.768C28.352 136.128 28.2773 135.472 28.2773 134.8C28.2773 133.563 28.448 132.48 28.7893 131.552C29.1413 130.624 29.6426 129.904 30.2933 129.392C30.944 128.869 31.7333 128.608 32.6613 128.608C33.3973 128.608 34.0266 128.752 34.5493 129.04C35.072 129.328 35.4773 129.712 35.7653 130.192C36.064 130.672 36.2453 131.195 36.3093 131.76H34.7253C34.6293 131.205 34.4 130.779 34.0373 130.48C33.6746 130.181 33.2106 130.032 32.6453 130.032C31.8666 130.032 31.2213 130.4 30.7093 131.136C30.208 131.861 29.9413 132.981 29.9093 134.496C30.1653 134.027 30.56 133.627 31.0933 133.296C31.6373 132.965 32.2613 132.8 32.9653 132.8C33.5946 132.8 34.1813 132.949 34.7253 133.248C35.28 133.547 35.728 133.968 36.0693 134.512C36.4213 135.045 36.5973 135.68 36.5973 136.416C36.5973 137.067 36.4373 137.68 36.1173 138.256C35.7973 138.832 35.344 139.301 34.7573 139.664C34.1813 140.016 33.4933 140.192 32.6933 140.192ZM32.5973 138.72C33.0453 138.72 33.4453 138.624 33.7973 138.432C34.1493 138.24 34.4266 137.979 34.6293 137.648C34.832 137.307 34.9333 136.923 34.9333 136.496C34.9333 135.813 34.7093 135.269 34.2613 134.864C33.824 134.459 33.264 134.256 32.5813 134.256C32.1333 134.256 31.728 134.357 31.3653 134.56C31.0133 134.763 30.736 135.035 30.5333 135.376C30.3306 135.707 30.2293 136.075 30.2293 136.48C30.2293 136.917 30.3306 137.307 30.5333 137.648C30.7466 137.979 31.0293 138.24 31.3813 138.432C31.744 138.624 32.1493 138.72 32.5973 138.72Z" fill="#2D64B6"/>
<path d="M75.1466 140L79.4826 130.256H73.6586V128.8H81.2266V130.032L76.9226 140H75.1466Z" fill="#2D64B6"/>
<path d="M121.999 140.192C121.252 140.192 120.575 140.059 119.967 139.792C119.37 139.515 118.89 139.131 118.527 138.64C118.175 138.149 117.999 137.573 117.999 136.912C117.999 136.24 118.186 135.637 118.559 135.104C118.943 134.571 119.45 134.208 120.079 134.016C119.514 133.792 119.076 133.467 118.767 133.04C118.458 132.603 118.303 132.123 118.303 131.6C118.303 131.056 118.447 130.56 118.735 130.112C119.023 129.653 119.439 129.291 119.983 129.024C120.538 128.747 121.21 128.608 121.999 128.608C122.788 128.608 123.455 128.747 123.999 129.024C124.554 129.291 124.975 129.653 125.263 130.112C125.551 130.56 125.695 131.056 125.695 131.6C125.695 132.112 125.535 132.592 125.215 133.04C124.906 133.477 124.468 133.803 123.903 134.016C124.532 134.219 125.034 134.587 125.407 135.12C125.791 135.643 125.983 136.24 125.983 136.912C125.983 137.573 125.807 138.149 125.455 138.64C125.103 139.131 124.623 139.515 124.015 139.792C123.418 140.059 122.746 140.192 121.999 140.192ZM121.999 133.472C122.618 133.472 123.103 133.312 123.455 132.992C123.818 132.672 123.999 132.261 123.999 131.76C123.999 131.195 123.823 130.763 123.471 130.464C123.119 130.165 122.628 130.016 121.999 130.016C121.37 130.016 120.879 130.165 120.527 130.464C120.175 130.763 119.999 131.195 119.999 131.76C119.999 132.261 120.175 132.672 120.527 132.992C120.879 133.312 121.37 133.472 121.999 133.472ZM121.999 138.752C122.767 138.752 123.343 138.571 123.727 138.208C124.111 137.835 124.303 137.36 124.303 136.784C124.303 136.144 124.095 135.653 123.679 135.312C123.274 134.96 122.714 134.784 121.999 134.784C121.284 134.784 120.719 134.96 120.303 135.312C119.887 135.653 119.679 136.144 119.679 136.784C119.679 137.36 119.871 137.835 120.255 138.208C120.65 138.571 121.231 138.752 121.999 138.752Z" fill="#2D64B6"/>
<path d="M167.341 140.192C166.605 140.192 165.976 140.048 165.453 139.76C164.931 139.472 164.52 139.088 164.221 138.608C163.933 138.128 163.757 137.605 163.693 137.04H165.277C165.373 137.595 165.603 138.021 165.965 138.32C166.328 138.619 166.792 138.768 167.357 138.768C168.136 138.768 168.776 138.405 169.277 137.68C169.789 136.944 170.061 135.819 170.093 134.304C169.837 134.773 169.437 135.173 168.893 135.504C168.36 135.835 167.741 136 167.037 136C166.408 136 165.816 135.851 165.261 135.552C164.707 135.253 164.259 134.837 163.917 134.304C163.576 133.76 163.405 133.12 163.405 132.384C163.405 131.733 163.565 131.12 163.885 130.544C164.205 129.968 164.653 129.504 165.229 129.152C165.816 128.789 166.509 128.608 167.309 128.608C168.131 128.608 168.824 128.763 169.389 129.072C169.955 129.381 170.408 129.792 170.749 130.304C171.091 130.816 171.336 131.392 171.485 132.032C171.645 132.672 171.725 133.328 171.725 134C171.725 135.237 171.549 136.32 171.197 137.248C170.856 138.176 170.36 138.901 169.709 139.424C169.059 139.936 168.269 140.192 167.341 140.192ZM167.421 134.544C167.869 134.544 168.269 134.443 168.621 134.24C168.973 134.037 169.251 133.771 169.453 133.44C169.667 133.099 169.773 132.725 169.773 132.32C169.773 131.883 169.667 131.499 169.453 131.168C169.251 130.827 168.968 130.56 168.605 130.368C168.253 130.176 167.853 130.08 167.405 130.08C166.957 130.08 166.557 130.176 166.205 130.368C165.853 130.56 165.571 130.827 165.357 131.168C165.155 131.499 165.053 131.877 165.053 132.304C165.053 132.987 165.277 133.531 165.725 133.936C166.173 134.341 166.739 134.544 167.421 134.544Z" fill="#2D64B6"/>
<path d="M206.577 140V130.72L204.769 131.136V129.888L207.249 128.8H208.337V140H206.577ZM215.093 140.192C214.079 140.192 213.205 139.952 212.469 139.472C211.743 138.981 211.183 138.304 210.789 137.44C210.405 136.565 210.213 135.552 210.213 134.4C210.213 133.248 210.405 132.24 210.789 131.376C211.183 130.501 211.743 129.824 212.469 129.344C213.205 128.853 214.079 128.608 215.093 128.608C216.106 128.608 216.975 128.853 217.701 129.344C218.426 129.824 218.981 130.501 219.365 131.376C219.759 132.24 219.957 133.248 219.957 134.4C219.957 135.552 219.759 136.565 219.365 137.44C218.981 138.304 218.426 138.981 217.701 139.472C216.975 139.952 216.106 140.192 215.093 140.192ZM215.093 138.672C215.701 138.672 216.239 138.501 216.709 138.16C217.189 137.819 217.562 137.328 217.829 136.688C218.095 136.048 218.229 135.285 218.229 134.4C218.229 133.515 218.095 132.752 217.829 132.112C217.562 131.472 217.189 130.981 216.709 130.64C216.239 130.299 215.701 130.128 215.093 130.128C214.474 130.128 213.93 130.299 213.461 130.64C212.991 130.981 212.623 131.472 212.357 132.112C212.09 132.752 211.957 133.515 211.957 134.4C211.957 135.285 212.09 136.048 212.357 136.688C212.623 137.328 212.991 137.819 213.461 138.16C213.93 138.501 214.474 138.672 215.093 138.672Z" fill="#2D64B6"/>
<circle cx="32.5" cy="174.5" r="7.5" fill="white" fill-opacity="0.5"/>
<circle cx="302.5" cy="174.5" r="7.5" fill="white" fill-opacity="0.5"/>
<circle cx="122.5" cy="174.5" r="7.5" fill="white" fill-opacity="0.5"/>
<circle cx="77.5" cy="174.5" r="7.5" fill="white" fill-opacity="0.5"/>
<circle cx="167.5" cy="174.5" r="7.5" fill="white" fill-opacity="0.5"/>
<circle cx="212.5" cy="174.5" r="7.5" fill="white" fill-opacity="0.5"/>
<circle cx="257.5" cy="174.5" r="7.5" fill="white" fill-opacity="0.5"/>
<circle cx="32.5" cy="214.5" r="7.5" fill="white" fill-opacity="0.5"/>
<circle cx="302.5" cy="214.5" r="7.5" fill="white" fill-opacity="0.5"/>
<circle cx="122.5" cy="214.5" r="7.5" fill="white" fill-opacity="0.5"/>
<circle cx="77.5" cy="214.5" r="7.5" fill="white" fill-opacity="0.5"/>
<circle cx="167.5" cy="214.5" r="7.5" fill="white" fill-opacity="0.5"/>
<circle cx="212.5" cy="214.5" r="7.5" fill="white" fill-opacity="0.5"/>
<circle cx="257.5" cy="214.5" r="7.5" fill="white" fill-opacity="0.5"/>
<circle cx="32.5" cy="254.5" r="7.5" fill="white" fill-opacity="0.5"/>
<circle cx="122.5" cy="254.5" r="7.5" fill="white" fill-opacity="0.5"/>
<circle cx="77.5" cy="254.5" r="7.5" fill="white" fill-opacity="0.5"/>
<path d="M26.562 47V31.6H29.312L34.526 41.852L39.718 31.6H42.468V47H40.136V35.626L35.428 44.8H33.624L28.894 35.648V47H26.562ZM46.8292 34.02C46.3892 34.02 46.0225 33.888 45.7292 33.624C45.4505 33.3453 45.3112 33.0007 45.3112 32.59C45.3112 32.1793 45.4505 31.842 45.7292 31.578C46.0225 31.2993 46.3892 31.16 46.8292 31.16C47.2692 31.16 47.6285 31.2993 47.9072 31.578C48.2005 31.842 48.3472 32.1793 48.3472 32.59C48.3472 33.0007 48.2005 33.3453 47.9072 33.624C47.6285 33.888 47.2692 34.02 46.8292 34.02ZM45.6632 47V36.088H47.9952V47H45.6632ZM56.0456 47.264C54.9896 47.264 54.0583 47.0147 53.2516 46.516C52.4449 46.0173 51.8143 45.3353 51.3596 44.47C50.9049 43.6047 50.6776 42.622 50.6776 41.522C50.6776 40.422 50.9049 39.4467 51.3596 38.596C51.8143 37.7307 52.4449 37.056 53.2516 36.572C54.0729 36.0733 55.0116 35.824 56.0676 35.824C56.9329 35.824 57.6883 35.9927 58.3336 36.33C58.9936 36.6673 59.5069 37.144 59.8736 37.76V31.16H62.2056V47H60.1156L59.8736 45.306C59.5216 45.8193 59.0376 46.274 58.4216 46.67C57.8056 47.066 57.0136 47.264 56.0456 47.264ZM56.4636 45.24C57.4609 45.24 58.2749 44.8953 58.9056 44.206C59.5509 43.5167 59.8736 42.6293 59.8736 41.544C59.8736 40.444 59.5509 39.5567 58.9056 38.882C58.2749 38.1927 57.4609 37.848 56.4636 37.848C55.4663 37.848 54.6449 38.1927 53.9996 38.882C53.3543 39.5567 53.0316 40.444 53.0316 41.544C53.0316 42.2627 53.1783 42.9007 53.4716 43.458C53.7649 44.0153 54.1683 44.4553 54.6816 44.778C55.2096 45.086 55.8036 45.24 56.4636 45.24ZM64.9259 41.588V39.63H73.8799V41.588H64.9259ZM81.7456 47.264C80.6162 47.264 79.6262 47.066 78.7756 46.67C77.9249 46.274 77.2576 45.7093 76.7736 44.976C76.3042 44.2427 76.0622 43.37 76.0476 42.358H78.5116C78.5262 43.1793 78.8122 43.876 79.3696 44.448C79.9269 45.02 80.7116 45.306 81.7236 45.306C82.6182 45.306 83.3149 45.0933 83.8136 44.668C84.3269 44.228 84.5836 43.6707 84.5836 42.996C84.5836 42.4533 84.4589 42.0133 84.2096 41.676C83.9749 41.3387 83.6449 41.06 83.2196 40.84C82.8089 40.62 82.3322 40.422 81.7896 40.246C81.2469 40.07 80.6749 39.8793 80.0736 39.674C78.8856 39.278 77.9909 38.7647 77.3896 38.134C76.8029 37.5033 76.5096 36.6747 76.5096 35.648C76.4949 34.7827 76.6929 34.0273 77.1036 33.382C77.5289 32.7367 78.1156 32.238 78.8636 31.886C79.6262 31.5193 80.5136 31.336 81.5256 31.336C82.5229 31.336 83.3956 31.5193 84.1436 31.886C84.9062 32.2527 85.5002 32.766 85.9256 33.426C86.3509 34.0713 86.5709 34.8267 86.5856 35.692H84.1216C84.1216 35.296 84.0189 34.922 83.8136 34.57C83.6082 34.2033 83.3076 33.9027 82.9116 33.668C82.5156 33.4333 82.0316 33.316 81.4596 33.316C80.7262 33.3013 80.1176 33.4847 79.6336 33.866C79.1642 34.2473 78.9296 34.7753 78.9296 35.45C78.9296 36.0513 79.1056 36.5133 79.4576 36.836C79.8096 37.1587 80.2936 37.43 80.9096 37.65C81.5256 37.8553 82.2296 38.0973 83.0216 38.376C83.7842 38.6253 84.4662 38.926 85.0676 39.278C85.6689 39.63 86.1456 40.092 86.4976 40.664C86.8642 41.236 87.0476 41.962 87.0476 42.842C87.0476 43.6193 86.8496 44.3453 86.4536 45.02C86.0576 45.68 85.4636 46.2227 84.6716 46.648C83.8796 47.0587 82.9042 47.264 81.7456 47.264ZM94.6132 47.264C93.5425 47.264 92.5892 47.0293 91.7532 46.56C90.9318 46.076 90.2865 45.4087 89.8172 44.558C89.3478 43.7073 89.1132 42.7173 89.1132 41.588C89.1132 40.444 89.3405 39.4393 89.7952 38.574C90.2645 37.7087 90.9098 37.034 91.7312 36.55C92.5672 36.066 93.5352 35.824 94.6352 35.824C95.7058 35.824 96.6372 36.066 97.4292 36.55C98.2212 37.0193 98.8372 37.65 99.2772 38.442C99.7172 39.234 99.9372 40.1067 99.9372 41.06C99.9372 41.2067 99.9298 41.368 99.9152 41.544C99.9152 41.7053 99.9078 41.8887 99.8932 42.094H91.4012C91.4745 43.15 91.8192 43.9567 92.4352 44.514C93.0658 45.0567 93.7918 45.328 94.6132 45.328C95.2732 45.328 95.8232 45.1813 96.2632 44.888C96.7178 44.58 97.0552 44.1693 97.2752 43.656H99.6072C99.3138 44.6827 98.7272 45.5407 97.8472 46.23C96.9818 46.9193 95.9038 47.264 94.6132 47.264ZM94.6132 37.738C93.8358 37.738 93.1465 37.9727 92.5452 38.442C91.9438 38.8967 91.5772 39.586 91.4452 40.51H97.6052C97.5612 39.6593 97.2605 38.9847 96.7032 38.486C96.1458 37.9873 95.4492 37.738 94.6132 37.738ZM102.357 47V36.088H104.425L104.601 38.002C104.938 37.3273 105.429 36.7993 106.075 36.418C106.735 36.022 107.49 35.824 108.341 35.824C109.661 35.824 110.695 36.2347 111.443 37.056C112.205 37.8773 112.587 39.102 112.587 40.73V47H110.277V40.972C110.277 38.86 109.411 37.804 107.681 37.804C106.815 37.804 106.097 38.112 105.525 38.728C104.967 39.344 104.689 40.224 104.689 41.368V47H102.357ZM116.653 34.02C116.213 34.02 115.847 33.888 115.553 33.624C115.275 33.3453 115.135 33.0007 115.135 32.59C115.135 32.1793 115.275 31.842 115.553 31.578C115.847 31.2993 116.213 31.16 116.653 31.16C117.093 31.16 117.453 31.2993 117.731 31.578C118.025 31.842 118.171 32.1793 118.171 32.59C118.171 33.0007 118.025 33.3453 117.731 33.624C117.453 33.888 117.093 34.02 116.653 34.02ZM115.487 47V36.088H117.819V47H115.487ZM126.002 47.264C124.96 47.264 124.022 47.0293 123.186 46.56C122.364 46.076 121.712 45.4087 121.228 44.558C120.744 43.6927 120.502 42.688 120.502 41.544C120.502 40.4 120.744 39.4027 121.228 38.552C121.726 37.6867 122.394 37.0193 123.23 36.55C124.066 36.066 124.997 35.824 126.024 35.824C127.065 35.824 127.996 36.066 128.818 36.55C129.654 37.0193 130.314 37.6867 130.798 38.552C131.296 39.4027 131.546 40.4 131.546 41.544C131.546 42.688 131.296 43.6927 130.798 44.558C130.314 45.4087 129.654 46.076 128.818 46.56C127.982 47.0293 127.043 47.264 126.002 47.264ZM126.002 45.262C126.559 45.262 127.072 45.1227 127.542 44.844C128.026 44.5653 128.414 44.1547 128.708 43.612C129.001 43.0547 129.148 42.3653 129.148 41.544C129.148 40.7227 129.001 40.0407 128.708 39.498C128.429 38.9407 128.048 38.5227 127.564 38.244C127.094 37.9653 126.581 37.826 126.024 37.826C125.466 37.826 124.946 37.9653 124.462 38.244C123.992 38.5227 123.611 38.9407 123.318 39.498C123.024 40.0407 122.878 40.7227 122.878 41.544C122.878 42.3653 123.024 43.0547 123.318 43.612C123.611 44.1547 123.992 44.5653 124.462 44.844C124.931 45.1227 125.444 45.262 126.002 45.262ZM134.068 47V36.088H136.158L136.356 38.156C136.737 37.4373 137.265 36.8727 137.94 36.462C138.629 36.0367 139.458 35.824 140.426 35.824V38.266H139.788C139.142 38.266 138.563 38.376 138.05 38.596C137.551 38.8013 137.148 39.1607 136.84 39.674C136.546 40.1727 136.4 40.8693 136.4 41.764V47H134.068ZM152.94 47.264C151.884 47.264 150.953 47.0147 150.146 46.516C149.339 46.0173 148.709 45.3353 148.254 44.47C147.799 43.6047 147.572 42.622 147.572 41.522C147.572 40.422 147.799 39.4467 148.254 38.596C148.709 37.7307 149.339 37.056 150.146 36.572C150.967 36.0733 151.906 35.824 152.962 35.824C153.827 35.824 154.583 35.9927 155.228 36.33C155.888 36.6673 156.401 37.144 156.768 37.76V31.16H159.1V47H157.01L156.768 45.306C156.416 45.8193 155.932 46.274 155.316 46.67C154.7 47.066 153.908 47.264 152.94 47.264ZM153.358 45.24C154.355 45.24 155.169 44.8953 155.8 44.206C156.445 43.5167 156.768 42.6293 156.768 41.544C156.768 40.444 156.445 39.5567 155.8 38.882C155.169 38.1927 154.355 37.848 153.358 37.848C152.361 37.848 151.539 38.1927 150.894 38.882C150.249 39.5567 149.926 40.444 149.926 41.544C149.926 42.2627 150.073 42.9007 150.366 43.458C150.659 44.0153 151.063 44.4553 151.576 44.778C152.104 45.086 152.698 45.24 153.358 45.24ZM167.144 47.264C166.074 47.264 165.12 47.0293 164.284 46.56C163.463 46.076 162.818 45.4087 162.348 44.558C161.879 43.7073 161.644 42.7173 161.644 41.588C161.644 40.444 161.872 39.4393 162.326 38.574C162.796 37.7087 163.441 37.034 164.262 36.55C165.098 36.066 166.066 35.824 167.166 35.824C168.237 35.824 169.168 36.066 169.96 36.55C170.752 37.0193 171.368 37.65 171.808 38.442C172.248 39.234 172.468 40.1067 172.468 41.06C172.468 41.2067 172.461 41.368 172.446 41.544C172.446 41.7053 172.439 41.8887 172.424 42.094H163.932C164.006 43.15 164.35 43.9567 164.966 44.514C165.597 45.0567 166.323 45.328 167.144 45.328C167.804 45.328 168.354 45.1813 168.794 44.888C169.249 44.58 169.586 44.1693 169.806 43.656H172.138C171.845 44.6827 171.258 45.5407 170.378 46.23C169.513 46.9193 168.435 47.264 167.144 47.264ZM167.144 37.738C166.367 37.738 165.678 37.9727 165.076 38.442C164.475 38.8967 164.108 39.586 163.976 40.51H170.136C170.092 39.6593 169.792 38.9847 169.234 38.486C168.677 37.9873 167.98 37.738 167.144 37.738ZM177.516 47L173.424 36.088H175.866L178.902 44.778L181.938 36.088H184.358L180.288 47H177.516ZM190.82 47.264C189.75 47.264 188.796 47.0293 187.96 46.56C187.139 46.076 186.494 45.4087 186.024 44.558C185.555 43.7073 185.32 42.7173 185.32 41.588C185.32 40.444 185.548 39.4393 186.002 38.574C186.472 37.7087 187.117 37.034 187.938 36.55C188.774 36.066 189.742 35.824 190.842 35.824C191.913 35.824 192.844 36.066 193.636 36.55C194.428 37.0193 195.044 37.65 195.484 38.442C195.924 39.234 196.144 40.1067 196.144 41.06C196.144 41.2067 196.137 41.368 196.122 41.544C196.122 41.7053 196.115 41.8887 196.1 42.094H187.608C187.682 43.15 188.026 43.9567 188.642 44.514C189.273 45.0567 189.999 45.328 190.82 45.328C191.48 45.328 192.03 45.1813 192.47 44.888C192.925 44.58 193.262 44.1693 193.482 43.656H195.814C195.521 44.6827 194.934 45.5407 194.054 46.23C193.189 46.9193 192.111 47.264 190.82 47.264ZM190.82 37.738C190.043 37.738 189.354 37.9727 188.752 38.442C188.151 38.8967 187.784 39.586 187.652 40.51H193.812C193.768 39.6593 193.468 38.9847 192.91 38.486C192.353 37.9873 191.656 37.738 190.82 37.738ZM198.564 47V31.16H200.896V47H198.564ZM208.953 47.264C207.912 47.264 206.973 47.0293 206.137 46.56C205.316 46.076 204.663 45.4087 204.179 44.558C203.695 43.6927 203.453 42.688 203.453 41.544C203.453 40.4 203.695 39.4027 204.179 38.552C204.678 37.6867 205.345 37.0193 206.181 36.55C207.017 36.066 207.948 35.824 208.975 35.824C210.016 35.824 210.948 36.066 211.769 36.55C212.605 37.0193 213.265 37.6867 213.749 38.552C214.248 39.4027 214.497 40.4 214.497 41.544C214.497 42.688 214.248 43.6927 213.749 44.558C213.265 45.4087 212.605 46.076 211.769 46.56C210.933 47.0293 209.994 47.264 208.953 47.264ZM208.953 45.262C209.51 45.262 210.024 45.1227 210.493 44.844C210.977 44.5653 211.366 44.1547 211.659 43.612C211.952 43.0547 212.099 42.3653 212.099 41.544C212.099 40.7227 211.952 40.0407 211.659 39.498C211.38 38.9407 210.999 38.5227 210.515 38.244C210.046 37.9653 209.532 37.826 208.975 37.826C208.418 37.826 207.897 37.9653 207.413 38.244C206.944 38.5227 206.562 38.9407 206.269 39.498C205.976 40.0407 205.829 40.7227 205.829 41.544C205.829 42.3653 205.976 43.0547 206.269 43.612C206.562 44.1547 206.944 44.5653 207.413 44.844C207.882 45.1227 208.396 45.262 208.953 45.262ZM217.019 51.84V36.088H219.109L219.351 37.782C219.703 37.2687 220.187 36.814 220.803 36.418C221.419 36.022 222.211 35.824 223.179 35.824C224.235 35.824 225.166 36.0733 225.973 36.572C226.78 37.0707 227.41 37.7527 227.865 38.618C228.334 39.4833 228.569 40.466 228.569 41.566C228.569 42.666 228.334 43.6487 227.865 44.514C227.41 45.3647 226.78 46.0393 225.973 46.538C225.166 47.022 224.228 47.264 223.157 47.264C222.306 47.264 221.551 47.0953 220.891 46.758C220.246 46.4207 219.732 45.944 219.351 45.328V51.84H217.019ZM222.761 45.24C223.758 45.24 224.58 44.9027 225.225 44.228C225.87 43.5387 226.193 42.644 226.193 41.544C226.193 40.8253 226.046 40.1873 225.753 39.63C225.46 39.0727 225.056 38.64 224.543 38.332C224.03 38.0093 223.436 37.848 222.761 37.848C221.764 37.848 220.942 38.1927 220.297 38.882C219.666 39.5713 219.351 40.4587 219.351 41.544C219.351 42.644 219.666 43.5387 220.297 44.228C220.942 44.9027 221.764 45.24 222.761 45.24ZM236.195 47.264C235.125 47.264 234.171 47.0293 233.335 46.56C232.514 46.076 231.869 45.4087 231.399 44.558C230.93 43.7073 230.695 42.7173 230.695 41.588C230.695 40.444 230.923 39.4393 231.377 38.574C231.847 37.7087 232.492 37.034 233.313 36.55C234.149 36.066 235.117 35.824 236.217 35.824C237.288 35.824 238.219 36.066 239.011 36.55C239.803 37.0193 240.419 37.65 240.859 38.442C241.299 39.234 241.519 40.1067 241.519 41.06C241.519 41.2067 241.512 41.368 241.497 41.544C241.497 41.7053 241.49 41.8887 241.475 42.094H232.983C233.057 43.15 233.401 43.9567 234.017 44.514C234.648 45.0567 235.374 45.328 236.195 45.328C236.855 45.328 237.405 45.1813 237.845 44.888C238.3 44.58 238.637 44.1693 238.857 43.656H241.189C240.896 44.6827 240.309 45.5407 239.429 46.23C238.564 46.9193 237.486 47.264 236.195 47.264ZM236.195 37.738C235.418 37.738 234.729 37.9727 234.127 38.442C233.526 38.8967 233.159 39.586 233.027 40.51H239.187C239.143 39.6593 238.843 38.9847 238.285 38.486C237.728 37.9873 237.031 37.738 236.195 37.738ZM243.939 47V36.088H246.029L246.227 38.156C246.608 37.4373 247.136 36.8727 247.811 36.462C248.5 36.0367 249.329 35.824 250.297 35.824V38.266H249.659C249.014 38.266 248.434 38.376 247.921 38.596C247.422 38.8013 247.019 39.1607 246.711 39.674C246.418 40.1727 246.271 40.8693 246.271 41.764V47H243.939ZM256.652 47.264C255.274 47.264 254.137 46.9267 253.242 46.252C252.348 45.5773 251.834 44.6827 251.702 43.568H254.056C254.174 44.0667 254.452 44.4993 254.892 44.866C255.332 45.218 255.912 45.394 256.63 45.394C257.334 45.394 257.848 45.2473 258.17 44.954C258.493 44.6607 258.654 44.3233 258.654 43.942C258.654 43.3847 258.427 43.0107 257.972 42.82C257.532 42.6147 256.916 42.4313 256.124 42.27C255.508 42.138 254.892 41.962 254.276 41.742C253.675 41.522 253.169 41.214 252.758 40.818C252.362 40.4073 252.164 39.8573 252.164 39.168C252.164 38.2147 252.531 37.4227 253.264 36.792C253.998 36.1467 255.024 35.824 256.344 35.824C257.562 35.824 258.544 36.1173 259.292 36.704C260.055 37.2907 260.502 38.1193 260.634 39.19H258.39C258.317 38.7207 258.097 38.354 257.73 38.09C257.378 37.826 256.902 37.694 256.3 37.694C255.714 37.694 255.259 37.8187 254.936 38.068C254.614 38.3027 254.452 38.6107 254.452 38.992C254.452 39.3733 254.672 39.674 255.112 39.894C255.567 40.114 256.161 40.312 256.894 40.488C257.628 40.6493 258.302 40.84 258.918 41.06C259.549 41.2653 260.055 41.5733 260.436 41.984C260.818 42.3947 261.008 42.996 261.008 43.788C261.023 44.7853 260.634 45.614 259.842 46.274C259.065 46.934 258.002 47.264 256.652 47.264Z" fill="white"/>
</svg>
