<svg width="335" height="391" viewBox="0 0 335 391" fill="none" xmlns="http://www.w3.org/2000/svg">
<rect width="335" height="391" fill="#3D8CFF"/>
<path d="M117.383 349V346.168C119.655 344.376 121.799 342.568 123.815 340.744C125.863 338.888 127.671 337.064 129.239 335.272C130.839 333.48 132.087 331.72 132.983 329.992C133.911 328.264 134.375 326.6 134.375 325C134.375 323.816 134.167 322.712 133.751 321.688C133.367 320.664 132.727 319.848 131.831 319.24C130.935 318.6 129.719 318.28 128.183 318.28C126.711 318.28 125.479 318.616 124.487 319.288C123.495 319.928 122.743 320.792 122.231 321.88C121.751 322.968 121.511 324.136 121.511 325.384H117.623C117.623 323.176 118.087 321.288 119.015 319.72C119.943 318.12 121.207 316.904 122.807 316.072C124.407 315.24 126.215 314.824 128.231 314.824C131.207 314.824 133.639 315.672 135.527 317.368C137.447 319.032 138.407 321.528 138.407 324.856C138.407 326.84 137.911 328.808 136.919 330.76C135.927 332.68 134.663 334.552 133.127 336.376C131.591 338.168 129.943 339.848 128.183 341.416C126.455 342.984 124.839 344.392 123.335 345.64H139.559V349H117.383ZM158.015 349.576C155.039 349.576 152.463 348.856 150.287 347.416C148.143 345.944 146.495 343.912 145.343 341.32C144.191 338.696 143.615 335.656 143.615 332.2C143.615 328.744 144.191 325.72 145.343 323.128C146.495 320.504 148.143 318.472 150.287 317.032C152.463 315.56 155.039 314.824 158.015 314.824C160.991 314.824 163.551 315.56 165.695 317.032C167.839 318.472 169.487 320.504 170.639 323.128C171.791 325.72 172.367 328.744 172.367 332.2C172.367 335.656 171.791 338.696 170.639 341.32C169.487 343.912 167.839 345.944 165.695 347.416C163.551 348.856 160.991 349.576 158.015 349.576ZM158.015 346.024C159.967 346.024 161.711 345.48 163.247 344.392C164.815 343.272 166.031 341.688 166.895 339.64C167.791 337.56 168.239 335.08 168.239 332.2C168.239 329.32 167.791 326.856 166.895 324.808C166.031 322.76 164.815 321.192 163.247 320.104C161.711 318.984 159.967 318.424 158.015 318.424C156.031 318.424 154.271 318.984 152.735 320.104C151.199 321.192 149.983 322.76 149.087 324.808C148.191 326.856 147.743 329.32 147.743 332.2C147.743 335.08 148.191 337.56 149.087 339.64C149.983 341.688 151.199 343.272 152.735 344.392C154.271 345.48 156.031 346.024 158.015 346.024Z" fill="white"/>
<path d="M189.759 327.192C188.969 327.192 188.276 327.011 187.679 326.648C187.092 326.285 186.633 325.789 186.303 325.16C185.983 324.531 185.823 323.816 185.823 323.016C185.823 322.216 185.988 321.507 186.319 320.888C186.649 320.259 187.108 319.768 187.695 319.416C188.281 319.053 188.975 318.872 189.775 318.872C190.425 318.872 191.001 319.005 191.503 319.272C192.004 319.539 192.393 319.912 192.671 320.392V315.48H194.015V327H192.799L192.671 325.688C192.415 326.072 192.047 326.419 191.567 326.728C191.087 327.037 190.484 327.192 189.759 327.192ZM189.903 326.024C190.436 326.024 190.905 325.901 191.311 325.656C191.727 325.4 192.047 325.048 192.271 324.6C192.505 324.152 192.623 323.629 192.623 323.032C192.623 322.435 192.505 321.912 192.271 321.464C192.047 321.016 191.727 320.669 191.311 320.424C190.905 320.168 190.436 320.04 189.903 320.04C189.38 320.04 188.911 320.168 188.495 320.424C188.089 320.669 187.769 321.016 187.535 321.464C187.311 321.912 187.199 322.435 187.199 323.032C187.199 323.629 187.311 324.152 187.535 324.6C187.769 325.048 188.089 325.4 188.495 325.656C188.911 325.901 189.38 326.024 189.903 326.024ZM198.846 327.192C198.184 327.192 197.635 327.08 197.198 326.856C196.76 326.632 196.435 326.333 196.222 325.96C196.008 325.587 195.902 325.181 195.902 324.744C195.902 323.933 196.211 323.309 196.83 322.872C197.448 322.435 198.291 322.216 199.358 322.216H201.502V322.12C201.502 321.427 201.32 320.904 200.958 320.552C200.595 320.189 200.11 320.008 199.502 320.008C198.979 320.008 198.526 320.141 198.142 320.408C197.768 320.664 197.534 321.043 197.438 321.544H196.062C196.115 320.968 196.307 320.483 196.638 320.088C196.979 319.693 197.4 319.395 197.902 319.192C198.403 318.979 198.936 318.872 199.502 318.872C200.611 318.872 201.443 319.171 201.998 319.768C202.563 320.355 202.846 321.139 202.846 322.12V327H201.646L201.566 325.576C201.342 326.024 201.011 326.408 200.574 326.728C200.147 327.037 199.571 327.192 198.846 327.192ZM199.054 326.056C199.566 326.056 200.003 325.923 200.366 325.656C200.739 325.389 201.022 325.043 201.214 324.616C201.406 324.189 201.502 323.741 201.502 323.272V323.256H199.47C198.68 323.256 198.12 323.395 197.79 323.672C197.47 323.939 197.31 324.275 197.31 324.68C197.31 325.096 197.459 325.432 197.758 325.688C198.067 325.933 198.499 326.056 199.054 326.056ZM205.491 330.52L207.459 326.232H206.995L203.843 319.064H205.299L207.923 325.24L210.707 319.064H212.099L206.899 330.52H205.491ZM216.089 327.192C215.14 327.192 214.351 326.952 213.721 326.472C213.092 325.992 212.724 325.341 212.617 324.52H213.993C214.079 324.936 214.297 325.299 214.649 325.608C215.012 325.907 215.497 326.056 216.105 326.056C216.671 326.056 217.087 325.939 217.353 325.704C217.62 325.459 217.753 325.171 217.753 324.84C217.753 324.36 217.577 324.04 217.225 323.88C216.884 323.72 216.399 323.576 215.769 323.448C215.343 323.363 214.916 323.24 214.489 323.08C214.063 322.92 213.705 322.696 213.417 322.408C213.129 322.109 212.985 321.72 212.985 321.24C212.985 320.547 213.241 319.981 213.753 319.544C214.276 319.096 214.98 318.872 215.865 318.872C216.708 318.872 217.396 319.085 217.929 319.512C218.473 319.928 218.788 320.525 218.873 321.304H217.545C217.492 320.899 217.316 320.584 217.017 320.36C216.729 320.125 216.34 320.008 215.849 320.008C215.369 320.008 214.996 320.109 214.729 320.312C214.473 320.515 214.345 320.781 214.345 321.112C214.345 321.432 214.511 321.683 214.841 321.864C215.183 322.045 215.641 322.2 216.217 322.328C216.708 322.435 217.172 322.568 217.609 322.728C218.057 322.877 218.42 323.107 218.697 323.416C218.985 323.715 219.129 324.152 219.129 324.728C219.14 325.443 218.868 326.035 218.313 326.504C217.769 326.963 217.028 327.192 216.089 327.192Z" fill="white"/>
<circle cx="302.5" cy="94.5" r="7.5" fill="white" fill-opacity="0.5"/>
<circle cx="257.5" cy="94.5" r="7.5" fill="white" fill-opacity="0.5"/>
<rect x="15" y="78" width="214" height="33" rx="16.5" fill="#FCFCFC"/>
<path d="M31.6943 100V90.72L29.8863 91.136V89.888L32.3663 88.8H33.4543V100H31.6943Z" fill="#2D64B6"/>
<path d="M73.3339 100V98.784C74.0592 98.208 74.7525 97.6267 75.4139 97.04C76.0752 96.4533 76.6619 95.8773 77.1739 95.312C77.6965 94.736 78.1072 94.176 78.4059 93.632C78.7045 93.0773 78.8539 92.544 78.8539 92.032C78.8539 91.6907 78.7952 91.3707 78.6779 91.072C78.5605 90.7627 78.3685 90.5173 78.1019 90.336C77.8352 90.144 77.4779 90.048 77.0299 90.048C76.3579 90.048 75.8512 90.2613 75.5099 90.688C75.1792 91.1147 75.0192 91.6267 75.0299 92.224H73.3819C73.3925 91.4347 73.5579 90.7733 73.8779 90.24C74.2085 89.7067 74.6459 89.3013 75.1899 89.024C75.7445 88.7467 76.3685 88.608 77.0619 88.608C78.1179 88.608 78.9605 88.9067 79.5899 89.504C80.2299 90.0907 80.5499 90.912 80.5499 91.968C80.5499 92.5973 80.3952 93.2213 80.0859 93.84C79.7872 94.4587 79.3925 95.056 78.9019 95.632C78.4219 96.1973 77.9045 96.7307 77.3499 97.232C76.7952 97.7333 76.2672 98.1867 75.7659 98.592H80.8859V100H73.3339Z" fill="#2D64B6"/>
<path d="M121.986 100.192C121.26 100.192 120.599 100.064 120.002 99.808C119.415 99.5413 118.946 99.1413 118.594 98.608C118.242 98.0747 118.055 97.408 118.034 96.608H119.714C119.735 97.2053 119.938 97.712 120.322 98.128C120.716 98.5333 121.271 98.736 121.986 98.736C122.668 98.736 123.191 98.5493 123.554 98.176C123.916 97.792 124.098 97.3173 124.098 96.752C124.098 96.0693 123.852 95.5627 123.362 95.232C122.882 94.9013 122.29 94.736 121.586 94.736H120.754V93.328H121.602C122.231 93.328 122.738 93.1787 123.122 92.88C123.516 92.5813 123.714 92.16 123.714 91.616C123.714 91.1573 123.559 90.784 123.25 90.496C122.951 90.208 122.524 90.064 121.97 90.064C121.394 90.064 120.94 90.2347 120.61 90.576C120.279 90.9067 120.098 91.3227 120.066 91.824H118.386C118.407 91.1733 118.567 90.608 118.866 90.128C119.175 89.648 119.596 89.2747 120.13 89.008C120.663 88.7413 121.276 88.608 121.97 88.608C122.716 88.608 123.34 88.7413 123.842 89.008C124.354 89.264 124.738 89.616 124.994 90.064C125.26 90.5013 125.394 90.9813 125.394 91.504C125.394 92.1013 125.228 92.624 124.898 93.072C124.567 93.52 124.124 93.8187 123.57 93.968C124.21 94.1067 124.738 94.4213 125.154 94.912C125.57 95.392 125.778 96.016 125.778 96.784C125.778 97.4027 125.634 97.9733 125.346 98.496C125.058 99.008 124.631 99.4187 124.066 99.728C123.5 100.037 122.807 100.192 121.986 100.192Z" fill="#2D64B6"/>
<path d="M168.256 100V97.76H162.64V96.416L167.984 88.8H169.936V96.288H171.504V97.76H169.936V100H168.256ZM164.48 96.288H168.352V90.672L164.48 96.288Z" fill="#2D64B6"/>
<path d="M212.11 100.192C211.321 100.192 210.638 100.053 210.062 99.776C209.486 99.488 209.028 99.0987 208.686 98.608C208.356 98.1067 208.153 97.5413 208.078 96.912H209.742C209.849 97.4453 210.116 97.888 210.542 98.24C210.969 98.5813 211.497 98.752 212.126 98.752C212.596 98.752 213.001 98.64 213.342 98.416C213.684 98.1813 213.95 97.872 214.142 97.488C214.334 97.104 214.43 96.672 214.43 96.192C214.43 95.4347 214.217 94.832 213.79 94.384C213.364 93.9253 212.825 93.696 212.174 93.696C211.62 93.696 211.145 93.8293 210.75 94.096C210.356 94.352 210.068 94.6773 209.886 95.072H208.27L209.23 88.8H215.278V90.288H210.51L209.934 93.28C210.18 93.0027 210.516 92.7733 210.942 92.592C211.38 92.4 211.87 92.304 212.414 92.304C213.172 92.304 213.822 92.48 214.366 92.832C214.91 93.1733 215.326 93.6373 215.614 94.224C215.913 94.8107 216.062 95.4613 216.062 96.176C216.062 96.9227 215.902 97.6 215.582 98.208C215.262 98.816 214.804 99.3013 214.206 99.664C213.62 100.016 212.921 100.192 212.11 100.192Z" fill="#2D64B6"/>
<circle cx="302.5" cy="134.5" r="7.5" fill="white" fill-opacity="0.5"/>
<circle cx="257.5" cy="134.5" r="7.5" fill="white" fill-opacity="0.5"/>
<rect x="15" y="118" width="214" height="33" rx="16.5" fill="#FCFCFC"/>
<path d="M32.6933 140.192C31.872 140.192 31.1786 140.037 30.6133 139.728C30.048 139.419 29.5893 139.008 29.2373 138.496C28.896 137.984 28.6506 137.408 28.5013 136.768C28.352 136.128 28.2773 135.472 28.2773 134.8C28.2773 133.563 28.448 132.48 28.7893 131.552C29.1413 130.624 29.6426 129.904 30.2933 129.392C30.944 128.869 31.7333 128.608 32.6613 128.608C33.3973 128.608 34.0266 128.752 34.5493 129.04C35.072 129.328 35.4773 129.712 35.7653 130.192C36.064 130.672 36.2453 131.195 36.3093 131.76H34.7253C34.6293 131.205 34.4 130.779 34.0373 130.48C33.6746 130.181 33.2106 130.032 32.6453 130.032C31.8666 130.032 31.2213 130.4 30.7093 131.136C30.208 131.861 29.9413 132.981 29.9093 134.496C30.1653 134.027 30.56 133.627 31.0933 133.296C31.6373 132.965 32.2613 132.8 32.9653 132.8C33.5946 132.8 34.1813 132.949 34.7253 133.248C35.28 133.547 35.728 133.968 36.0693 134.512C36.4213 135.045 36.5973 135.68 36.5973 136.416C36.5973 137.067 36.4373 137.68 36.1173 138.256C35.7973 138.832 35.344 139.301 34.7573 139.664C34.1813 140.016 33.4933 140.192 32.6933 140.192ZM32.5973 138.72C33.0453 138.72 33.4453 138.624 33.7973 138.432C34.1493 138.24 34.4266 137.979 34.6293 137.648C34.832 137.307 34.9333 136.923 34.9333 136.496C34.9333 135.813 34.7093 135.269 34.2613 134.864C33.824 134.459 33.264 134.256 32.5813 134.256C32.1333 134.256 31.728 134.357 31.3653 134.56C31.0133 134.763 30.736 135.035 30.5333 135.376C30.3306 135.707 30.2293 136.075 30.2293 136.48C30.2293 136.917 30.3306 137.307 30.5333 137.648C30.7466 137.979 31.0293 138.24 31.3813 138.432C31.744 138.624 32.1493 138.72 32.5973 138.72Z" fill="#2D64B6"/>
<path d="M75.1466 140L79.4826 130.256H73.6586V128.8H81.2266V130.032L76.9226 140H75.1466Z" fill="#2D64B6"/>
<path d="M121.999 140.192C121.252 140.192 120.575 140.059 119.967 139.792C119.37 139.515 118.89 139.131 118.527 138.64C118.175 138.149 117.999 137.573 117.999 136.912C117.999 136.24 118.186 135.637 118.559 135.104C118.943 134.571 119.45 134.208 120.079 134.016C119.514 133.792 119.076 133.467 118.767 133.04C118.458 132.603 118.303 132.123 118.303 131.6C118.303 131.056 118.447 130.56 118.735 130.112C119.023 129.653 119.439 129.291 119.983 129.024C120.538 128.747 121.21 128.608 121.999 128.608C122.788 128.608 123.455 128.747 123.999 129.024C124.554 129.291 124.975 129.653 125.263 130.112C125.551 130.56 125.695 131.056 125.695 131.6C125.695 132.112 125.535 132.592 125.215 133.04C124.906 133.477 124.468 133.803 123.903 134.016C124.532 134.219 125.034 134.587 125.407 135.12C125.791 135.643 125.983 136.24 125.983 136.912C125.983 137.573 125.807 138.149 125.455 138.64C125.103 139.131 124.623 139.515 124.015 139.792C123.418 140.059 122.746 140.192 121.999 140.192ZM121.999 133.472C122.618 133.472 123.103 133.312 123.455 132.992C123.818 132.672 123.999 132.261 123.999 131.76C123.999 131.195 123.823 130.763 123.471 130.464C123.119 130.165 122.628 130.016 121.999 130.016C121.37 130.016 120.879 130.165 120.527 130.464C120.175 130.763 119.999 131.195 119.999 131.76C119.999 132.261 120.175 132.672 120.527 132.992C120.879 133.312 121.37 133.472 121.999 133.472ZM121.999 138.752C122.767 138.752 123.343 138.571 123.727 138.208C124.111 137.835 124.303 137.36 124.303 136.784C124.303 136.144 124.095 135.653 123.679 135.312C123.274 134.96 122.714 134.784 121.999 134.784C121.284 134.784 120.719 134.96 120.303 135.312C119.887 135.653 119.679 136.144 119.679 136.784C119.679 137.36 119.871 137.835 120.255 138.208C120.65 138.571 121.231 138.752 121.999 138.752Z" fill="#2D64B6"/>
<path d="M167.341 140.192C166.605 140.192 165.976 140.048 165.453 139.76C164.931 139.472 164.52 139.088 164.221 138.608C163.933 138.128 163.757 137.605 163.693 137.04H165.277C165.373 137.595 165.603 138.021 165.965 138.32C166.328 138.619 166.792 138.768 167.357 138.768C168.136 138.768 168.776 138.405 169.277 137.68C169.789 136.944 170.061 135.819 170.093 134.304C169.837 134.773 169.437 135.173 168.893 135.504C168.36 135.835 167.741 136 167.037 136C166.408 136 165.816 135.851 165.261 135.552C164.707 135.253 164.259 134.837 163.917 134.304C163.576 133.76 163.405 133.12 163.405 132.384C163.405 131.733 163.565 131.12 163.885 130.544C164.205 129.968 164.653 129.504 165.229 129.152C165.816 128.789 166.509 128.608 167.309 128.608C168.131 128.608 168.824 128.763 169.389 129.072C169.955 129.381 170.408 129.792 170.749 130.304C171.091 130.816 171.336 131.392 171.485 132.032C171.645 132.672 171.725 133.328 171.725 134C171.725 135.237 171.549 136.32 171.197 137.248C170.856 138.176 170.36 138.901 169.709 139.424C169.059 139.936 168.269 140.192 167.341 140.192ZM167.421 134.544C167.869 134.544 168.269 134.443 168.621 134.24C168.973 134.037 169.251 133.771 169.453 133.44C169.667 133.099 169.773 132.725 169.773 132.32C169.773 131.883 169.667 131.499 169.453 131.168C169.251 130.827 168.968 130.56 168.605 130.368C168.253 130.176 167.853 130.08 167.405 130.08C166.957 130.08 166.557 130.176 166.205 130.368C165.853 130.56 165.571 130.827 165.357 131.168C165.155 131.499 165.053 131.877 165.053 132.304C165.053 132.987 165.277 133.531 165.725 133.936C166.173 134.341 166.739 134.544 167.421 134.544Z" fill="#2D64B6"/>
<path d="M206.577 140V130.72L204.769 131.136V129.888L207.249 128.8H208.337V140H206.577ZM215.093 140.192C214.079 140.192 213.205 139.952 212.469 139.472C211.743 138.981 211.183 138.304 210.789 137.44C210.405 136.565 210.213 135.552 210.213 134.4C210.213 133.248 210.405 132.24 210.789 131.376C211.183 130.501 211.743 129.824 212.469 129.344C213.205 128.853 214.079 128.608 215.093 128.608C216.106 128.608 216.975 128.853 217.701 129.344C218.426 129.824 218.981 130.501 219.365 131.376C219.759 132.24 219.957 133.248 219.957 134.4C219.957 135.552 219.759 136.565 219.365 137.44C218.981 138.304 218.426 138.981 217.701 139.472C216.975 139.952 216.106 140.192 215.093 140.192ZM215.093 138.672C215.701 138.672 216.239 138.501 216.709 138.16C217.189 137.819 217.562 137.328 217.829 136.688C218.095 136.048 218.229 135.285 218.229 134.4C218.229 133.515 218.095 132.752 217.829 132.112C217.562 131.472 217.189 130.981 216.709 130.64C216.239 130.299 215.701 130.128 215.093 130.128C214.474 130.128 213.93 130.299 213.461 130.64C212.991 130.981 212.623 131.472 212.357 132.112C212.09 132.752 211.957 133.515 211.957 134.4C211.957 135.285 212.09 136.048 212.357 136.688C212.623 137.328 212.991 137.819 213.461 138.16C213.93 138.501 214.474 138.672 215.093 138.672Z" fill="#2D64B6"/>
<circle cx="302.5" cy="174.5" r="7.5" fill="white" fill-opacity="0.5"/>
<circle cx="257.5" cy="174.5" r="7.5" fill="white" fill-opacity="0.5"/>
<rect x="15" y="158" width="214" height="33" rx="16.5" fill="#FCFCFC"/>
<path d="M29.6005 180V170.72L27.7925 171.136V169.888L30.2725 168.8H31.3605V180H29.6005ZM34.788 180V170.72L32.98 171.136V169.888L35.46 168.8H36.548V180H34.788Z" fill="#2D64B6"/>
<path d="M72.6161 180V170.72L70.8081 171.136V169.888L73.2881 168.8H74.3761V180H72.6161ZM76.4276 180V178.784C77.153 178.208 77.8463 177.627 78.5076 177.04C79.169 176.453 79.7556 175.877 80.2676 175.312C80.7903 174.736 81.201 174.176 81.4996 173.632C81.7983 173.077 81.9476 172.544 81.9476 172.032C81.9476 171.691 81.889 171.371 81.7716 171.072C81.6543 170.763 81.4623 170.517 81.1956 170.336C80.929 170.144 80.5716 170.048 80.1236 170.048C79.4516 170.048 78.945 170.261 78.6036 170.688C78.273 171.115 78.113 171.627 78.1236 172.224H76.4756C76.4863 171.435 76.6516 170.773 76.9716 170.24C77.3023 169.707 77.7396 169.301 78.2836 169.024C78.8383 168.747 79.4623 168.608 80.1556 168.608C81.2116 168.608 82.0543 168.907 82.6836 169.504C83.3236 170.091 83.6436 170.912 83.6436 171.968C83.6436 172.597 83.489 173.221 83.1796 173.84C82.881 174.459 82.4863 175.056 81.9956 175.632C81.5156 176.197 80.9983 176.731 80.4436 177.232C79.889 177.733 79.361 178.187 78.8596 178.592H83.9796V180H76.4276Z" fill="#2D64B6"/>
<path d="M117.46 180V170.72L115.652 171.136V169.888L118.132 168.8H119.22V180H117.46ZM125.079 180.192C124.354 180.192 123.693 180.064 123.095 179.808C122.509 179.541 122.039 179.141 121.687 178.608C121.335 178.075 121.149 177.408 121.127 176.608H122.807C122.829 177.205 123.031 177.712 123.415 178.128C123.81 178.533 124.365 178.736 125.079 178.736C125.762 178.736 126.285 178.549 126.647 178.176C127.01 177.792 127.191 177.317 127.191 176.752C127.191 176.069 126.946 175.563 126.455 175.232C125.975 174.901 125.383 174.736 124.679 174.736H123.847V173.328H124.695C125.325 173.328 125.831 173.179 126.215 172.88C126.61 172.581 126.807 172.16 126.807 171.616C126.807 171.157 126.653 170.784 126.343 170.496C126.045 170.208 125.618 170.064 125.063 170.064C124.487 170.064 124.034 170.235 123.703 170.576C123.373 170.907 123.191 171.323 123.159 171.824H121.479C121.501 171.173 121.661 170.608 121.959 170.128C122.269 169.648 122.69 169.275 123.223 169.008C123.757 168.741 124.37 168.608 125.063 168.608C125.81 168.608 126.434 168.741 126.935 169.008C127.447 169.264 127.831 169.616 128.087 170.064C128.354 170.501 128.487 170.981 128.487 171.504C128.487 172.101 128.322 172.624 127.991 173.072C127.661 173.52 127.218 173.819 126.663 173.968C127.303 174.107 127.831 174.421 128.247 174.912C128.663 175.392 128.871 176.016 128.871 176.784C128.871 177.403 128.727 177.973 128.439 178.496C128.151 179.008 127.725 179.419 127.159 179.728C126.594 180.037 125.901 180.192 125.079 180.192Z" fill="#2D64B6"/>
<path d="M161.71 180V170.72L159.902 171.136V169.888L162.382 168.8H163.47V180H161.71ZM170.849 180V177.76H165.233V176.416L170.577 168.8H172.529V176.288H174.097V177.76H172.529V180H170.849ZM167.073 176.288H170.945V170.672L167.073 176.288Z" fill="#2D64B6"/>
<path d="M206.765 180V170.72L204.957 171.136V169.888L207.437 168.8H208.525V180H206.765ZM214.704 180.192C213.915 180.192 213.232 180.053 212.656 179.776C212.08 179.488 211.621 179.099 211.28 178.608C210.949 178.107 210.747 177.541 210.672 176.912H212.336C212.443 177.445 212.709 177.888 213.136 178.24C213.563 178.581 214.091 178.752 214.72 178.752C215.189 178.752 215.595 178.64 215.936 178.416C216.277 178.181 216.544 177.872 216.736 177.488C216.928 177.104 217.024 176.672 217.024 176.192C217.024 175.435 216.811 174.832 216.384 174.384C215.957 173.925 215.419 173.696 214.768 173.696C214.213 173.696 213.739 173.829 213.344 174.096C212.949 174.352 212.661 174.677 212.48 175.072H210.864L211.824 168.8H217.872V170.288H213.104L212.528 173.28C212.773 173.003 213.109 172.773 213.536 172.592C213.973 172.4 214.464 172.304 215.008 172.304C215.765 172.304 216.416 172.48 216.96 172.832C217.504 173.173 217.92 173.637 218.208 174.224C218.507 174.811 218.656 175.461 218.656 176.176C218.656 176.923 218.496 177.6 218.176 178.208C217.856 178.816 217.397 179.301 216.8 179.664C216.213 180.016 215.515 180.192 214.704 180.192Z" fill="#2D64B6"/>
<circle cx="302.5" cy="214.5" r="7.5" fill="white" fill-opacity="0.5"/>
<circle cx="257.5" cy="214.5" r="7.5" fill="white" fill-opacity="0.5"/>
<rect x="15" y="198" width="214" height="33" rx="16.5" fill="#FCFCFC"/>
<path d="M26.6396 220V210.72L24.8316 211.136V209.888L27.3116 208.8H28.3996V220H26.6396ZM34.7871 220.192C33.9657 220.192 33.2724 220.037 32.7071 219.728C32.1417 219.419 31.6831 219.008 31.3311 218.496C30.9897 217.984 30.7444 217.408 30.5951 216.768C30.4457 216.128 30.3711 215.472 30.3711 214.8C30.3711 213.563 30.5417 212.48 30.8831 211.552C31.2351 210.624 31.7364 209.904 32.3871 209.392C33.0377 208.869 33.8271 208.608 34.7551 208.608C35.4911 208.608 36.1204 208.752 36.6431 209.04C37.1657 209.328 37.5711 209.712 37.8591 210.192C38.1577 210.672 38.3391 211.195 38.4031 211.76H36.8191C36.7231 211.205 36.4937 210.779 36.1311 210.48C35.7684 210.181 35.3044 210.032 34.7391 210.032C33.9604 210.032 33.3151 210.4 32.8031 211.136C32.3017 211.861 32.0351 212.981 32.0031 214.496C32.2591 214.027 32.6537 213.627 33.1871 213.296C33.7311 212.965 34.3551 212.8 35.0591 212.8C35.6884 212.8 36.2751 212.949 36.8191 213.248C37.3737 213.547 37.8217 213.968 38.1631 214.512C38.5151 215.045 38.6911 215.68 38.6911 216.416C38.6911 217.067 38.5311 217.68 38.2111 218.256C37.8911 218.832 37.4377 219.301 36.8511 219.664C36.2751 220.016 35.5871 220.192 34.7871 220.192ZM34.6911 218.72C35.1391 218.72 35.5391 218.624 35.8911 218.432C36.2431 218.24 36.5204 217.979 36.7231 217.648C36.9257 217.307 37.0271 216.923 37.0271 216.496C37.0271 215.813 36.8031 215.269 36.3551 214.864C35.9177 214.459 35.3577 214.256 34.6751 214.256C34.2271 214.256 33.8217 214.357 33.4591 214.56C33.1071 214.763 32.8297 215.035 32.6271 215.376C32.4244 215.707 32.3231 216.075 32.3231 216.48C32.3231 216.917 32.4244 217.307 32.6271 217.648C32.8404 217.979 33.1231 218.24 33.4751 218.432C33.8377 218.624 34.2431 218.72 34.6911 218.72Z" fill="#2D64B6"/>
<path d="M72.4208 220V210.72L70.6128 211.136V209.888L73.0928 208.8H74.1808V220H72.4208ZM77.2403 220L81.5763 210.256H75.7523V208.8H83.3203V210.032L79.0163 220H77.2403Z" fill="#2D64B6"/>
<path d="M116.733 220V210.72L114.925 211.136V209.888L117.405 208.8H118.493V220H116.733ZM124.593 220.192C123.846 220.192 123.169 220.059 122.561 219.792C121.963 219.515 121.483 219.131 121.121 218.64C120.769 218.149 120.593 217.573 120.593 216.912C120.593 216.24 120.779 215.637 121.153 215.104C121.537 214.571 122.043 214.208 122.673 214.016C122.107 213.792 121.67 213.467 121.361 213.04C121.051 212.603 120.897 212.123 120.897 211.6C120.897 211.056 121.041 210.56 121.329 210.112C121.617 209.653 122.033 209.291 122.577 209.024C123.131 208.747 123.803 208.608 124.593 208.608C125.382 208.608 126.049 208.747 126.593 209.024C127.147 209.291 127.569 209.653 127.857 210.112C128.145 210.56 128.289 211.056 128.289 211.6C128.289 212.112 128.129 212.592 127.809 213.04C127.499 213.477 127.062 213.803 126.497 214.016C127.126 214.219 127.627 214.587 128.001 215.12C128.385 215.643 128.577 216.24 128.577 216.912C128.577 217.573 128.401 218.149 128.049 218.64C127.697 219.131 127.217 219.515 126.609 219.792C126.011 220.059 125.339 220.192 124.593 220.192ZM124.593 213.472C125.211 213.472 125.697 213.312 126.049 212.992C126.411 212.672 126.593 212.261 126.593 211.76C126.593 211.195 126.417 210.763 126.065 210.464C125.713 210.165 125.222 210.016 124.593 210.016C123.963 210.016 123.473 210.165 123.121 210.464C122.769 210.763 122.593 211.195 122.593 211.76C122.593 212.261 122.769 212.672 123.121 212.992C123.473 213.312 123.963 213.472 124.593 213.472ZM124.593 218.752C125.361 218.752 125.937 218.571 126.321 218.208C126.705 217.835 126.897 217.36 126.897 216.784C126.897 216.144 126.689 215.653 126.273 215.312C125.867 214.96 125.307 214.784 124.593 214.784C123.878 214.784 123.313 214.96 122.897 215.312C122.481 215.653 122.273 216.144 122.273 216.784C122.273 217.36 122.465 217.835 122.849 218.208C123.243 218.571 123.825 218.752 124.593 218.752Z" fill="#2D64B6"/>
<path d="M161.64 220V210.72L159.832 211.136V209.888L162.312 208.8H163.4V220H161.64ZM169.435 220.192C168.699 220.192 168.07 220.048 167.547 219.76C167.024 219.472 166.614 219.088 166.315 218.608C166.027 218.128 165.851 217.605 165.787 217.04H167.371C167.467 217.595 167.696 218.021 168.059 218.32C168.422 218.619 168.886 218.768 169.451 218.768C170.23 218.768 170.87 218.405 171.371 217.68C171.883 216.944 172.155 215.819 172.187 214.304C171.931 214.773 171.531 215.173 170.987 215.504C170.454 215.835 169.835 216 169.131 216C168.502 216 167.91 215.851 167.355 215.552C166.8 215.253 166.352 214.837 166.011 214.304C165.67 213.76 165.499 213.12 165.499 212.384C165.499 211.733 165.659 211.12 165.979 210.544C166.299 209.968 166.747 209.504 167.323 209.152C167.91 208.789 168.603 208.608 169.403 208.608C170.224 208.608 170.918 208.763 171.483 209.072C172.048 209.381 172.502 209.792 172.843 210.304C173.184 210.816 173.43 211.392 173.579 212.032C173.739 212.672 173.819 213.328 173.819 214C173.819 215.237 173.643 216.32 173.291 217.248C172.95 218.176 172.454 218.901 171.803 219.424C171.152 219.936 170.363 220.192 169.435 220.192ZM169.515 214.544C169.963 214.544 170.363 214.443 170.715 214.24C171.067 214.037 171.344 213.771 171.547 213.44C171.76 213.099 171.867 212.725 171.867 212.32C171.867 211.883 171.76 211.499 171.547 211.168C171.344 210.827 171.062 210.56 170.699 210.368C170.347 210.176 169.947 210.08 169.499 210.08C169.051 210.08 168.651 210.176 168.299 210.368C167.947 210.56 167.664 210.827 167.451 211.168C167.248 211.499 167.147 211.877 167.147 212.304C167.147 212.987 167.371 213.531 167.819 213.936C168.267 214.341 168.832 214.544 169.515 214.544Z" fill="#2D64B6"/>
<path d="M203.279 220V218.784C204.005 218.208 204.698 217.627 205.359 217.04C206.021 216.453 206.607 215.877 207.119 215.312C207.642 214.736 208.053 214.176 208.351 213.632C208.65 213.077 208.799 212.544 208.799 212.032C208.799 211.691 208.741 211.371 208.623 211.072C208.506 210.763 208.314 210.517 208.047 210.336C207.781 210.144 207.423 210.048 206.975 210.048C206.303 210.048 205.797 210.261 205.455 210.688C205.125 211.115 204.965 211.627 204.975 212.224H203.327C203.338 211.435 203.503 210.773 203.823 210.24C204.154 209.707 204.591 209.301 205.135 209.024C205.69 208.747 206.314 208.608 207.007 208.608C208.063 208.608 208.906 208.907 209.535 209.504C210.175 210.091 210.495 210.912 210.495 211.968C210.495 212.597 210.341 213.221 210.031 213.84C209.733 214.459 209.338 215.056 208.847 215.632C208.367 216.197 207.85 216.731 207.295 217.232C206.741 217.733 206.213 218.187 205.711 218.592H210.831V220H203.279ZM217.014 220.192C216.001 220.192 215.126 219.952 214.39 219.472C213.665 218.981 213.105 218.304 212.71 217.44C212.326 216.565 212.134 215.552 212.134 214.4C212.134 213.248 212.326 212.24 212.71 211.376C213.105 210.501 213.665 209.824 214.39 209.344C215.126 208.853 216.001 208.608 217.014 208.608C218.028 208.608 218.897 208.853 219.622 209.344C220.348 209.824 220.902 210.501 221.286 211.376C221.681 212.24 221.878 213.248 221.878 214.4C221.878 215.552 221.681 216.565 221.286 217.44C220.902 218.304 220.348 218.981 219.622 219.472C218.897 219.952 218.028 220.192 217.014 220.192ZM217.014 218.672C217.622 218.672 218.161 218.501 218.63 218.16C219.11 217.819 219.484 217.328 219.75 216.688C220.017 216.048 220.15 215.285 220.15 214.4C220.15 213.515 220.017 212.752 219.75 212.112C219.484 211.472 219.11 210.981 218.63 210.64C218.161 210.299 217.622 210.128 217.014 210.128C216.396 210.128 215.852 210.299 215.382 210.64C214.913 210.981 214.545 211.472 214.278 212.112C214.012 212.752 213.878 213.515 213.878 214.4C213.878 215.285 214.012 216.048 214.278 216.688C214.545 217.328 214.913 217.819 215.382 218.16C215.852 218.501 216.396 218.672 217.014 218.672Z" fill="#2D64B6"/>
<circle cx="32.5" cy="254.5" r="7.5" fill="white" fill-opacity="0.5"/>
<circle cx="122.5" cy="254.5" r="7.5" fill="white" fill-opacity="0.5"/>
<circle cx="77.5" cy="254.5" r="7.5" fill="white" fill-opacity="0.5"/>
<path d="M26.562 47V31.6H31.864C33.0813 31.6 34.0787 31.8053 34.856 32.216C35.648 32.6267 36.2347 33.184 36.616 33.888C36.9973 34.5773 37.188 35.3473 37.188 36.198C37.188 37.1513 36.9313 38.0167 36.418 38.794C35.9193 39.5713 35.1347 40.1287 34.064 40.466L37.342 47H34.636L31.644 40.796H28.894V47H26.562ZM28.894 39.036H31.732C32.788 39.036 33.558 38.7793 34.042 38.266C34.5407 37.7527 34.79 37.0853 34.79 36.264C34.79 35.4427 34.548 34.79 34.064 34.306C33.58 33.8073 32.7953 33.558 31.71 33.558H28.894V39.036ZM43.211 47.264C42.287 47.264 41.5243 47.11 40.923 46.802C40.3217 46.494 39.8743 46.0907 39.581 45.592C39.2877 45.0787 39.141 44.5213 39.141 43.92C39.141 42.864 39.5517 42.028 40.373 41.412C41.1943 40.796 42.3677 40.488 43.893 40.488H46.753V40.29C46.753 39.4393 46.5183 38.8013 46.049 38.376C45.5943 37.9507 45.0003 37.738 44.267 37.738C43.6217 37.738 43.057 37.8993 42.573 38.222C42.1037 38.53 41.8177 38.992 41.715 39.608H39.383C39.4563 38.816 39.7203 38.1413 40.175 37.584C40.6443 37.012 41.231 36.5793 41.935 36.286C42.6537 35.978 43.4383 35.824 44.289 35.824C45.8143 35.824 46.995 36.2273 47.831 37.034C48.667 37.826 49.085 38.9113 49.085 40.29V47H47.061L46.863 45.13C46.555 45.7313 46.1077 46.2373 45.521 46.648C44.9343 47.0587 44.1643 47.264 43.211 47.264ZM43.673 45.372C44.3037 45.372 44.8317 45.2253 45.257 44.932C45.697 44.624 46.0343 44.2207 46.269 43.722C46.5183 43.2233 46.6723 42.6733 46.731 42.072H44.135C43.211 42.072 42.551 42.2333 42.155 42.556C41.7737 42.8787 41.583 43.282 41.583 43.766C41.583 44.2647 41.7663 44.6607 42.133 44.954C42.5143 45.2327 43.0277 45.372 43.673 45.372ZM51.8041 47V36.088H53.8941L54.0921 38.156C54.4734 37.4373 55.0014 36.8727 55.6761 36.462C56.3654 36.0367 57.1941 35.824 58.1621 35.824V38.266H57.5241C56.8787 38.266 56.2994 38.376 55.7861 38.596C55.2874 38.8013 54.8841 39.1607 54.5761 39.674C54.2827 40.1727 54.1361 40.8693 54.1361 41.764V47H51.8041ZM64.9647 47.264C63.8941 47.264 62.9407 47.0293 62.1047 46.56C61.2834 46.076 60.6381 45.4087 60.1687 44.558C59.6994 43.7073 59.4647 42.7173 59.4647 41.588C59.4647 40.444 59.6921 39.4393 60.1467 38.574C60.6161 37.7087 61.2614 37.034 62.0827 36.55C62.9187 36.066 63.8867 35.824 64.9867 35.824C66.0574 35.824 66.9887 36.066 67.7807 36.55C68.5727 37.0193 69.1887 37.65 69.6287 38.442C70.0687 39.234 70.2887 40.1067 70.2887 41.06C70.2887 41.2067 70.2814 41.368 70.2667 41.544C70.2667 41.7053 70.2594 41.8887 70.2447 42.094H61.7527C61.8261 43.15 62.1707 43.9567 62.7867 44.514C63.4174 45.0567 64.1434 45.328 64.9647 45.328C65.6247 45.328 66.1747 45.1813 66.6147 44.888C67.0694 44.58 67.4067 44.1693 67.6267 43.656H69.9587C69.6654 44.6827 69.0787 45.5407 68.1987 46.23C67.3334 46.9193 66.2554 47.264 64.9647 47.264ZM64.9647 37.738C64.1874 37.738 63.4981 37.9727 62.8967 38.442C62.2954 38.8967 61.9287 39.586 61.7967 40.51H67.9567C67.9127 39.6593 67.6121 38.9847 67.0547 38.486C66.4974 37.9873 65.8007 37.738 64.9647 37.738ZM82.6073 47.264C81.2287 47.264 80.092 46.9267 79.1973 46.252C78.3027 45.5773 77.7893 44.6827 77.6573 43.568H80.0113C80.1287 44.0667 80.4073 44.4993 80.8473 44.866C81.2873 45.218 81.8667 45.394 82.5853 45.394C83.2893 45.394 83.8027 45.2473 84.1253 44.954C84.448 44.6607 84.6093 44.3233 84.6093 43.942C84.6093 43.3847 84.382 43.0107 83.9273 42.82C83.4873 42.6147 82.8713 42.4313 82.0793 42.27C81.4633 42.138 80.8473 41.962 80.2313 41.742C79.63 41.522 79.124 41.214 78.7133 40.818C78.3173 40.4073 78.1193 39.8573 78.1193 39.168C78.1193 38.2147 78.486 37.4227 79.2193 36.792C79.9527 36.1467 80.9793 35.824 82.2993 35.824C83.5167 35.824 84.4993 36.1173 85.2473 36.704C86.01 37.2907 86.4573 38.1193 86.5893 39.19H84.3453C84.272 38.7207 84.052 38.354 83.6853 38.09C83.3333 37.826 82.8567 37.694 82.2553 37.694C81.6687 37.694 81.214 37.8187 80.8913 38.068C80.5687 38.3027 80.4073 38.6107 80.4073 38.992C80.4073 39.3733 80.6273 39.674 81.0673 39.894C81.522 40.114 82.116 40.312 82.8493 40.488C83.5827 40.6493 84.2573 40.84 84.8733 41.06C85.504 41.2653 86.01 41.5733 86.3913 41.984C86.7727 42.3947 86.9633 42.996 86.9633 43.788C86.978 44.7853 86.5893 45.614 85.7973 46.274C85.02 46.934 83.9567 47.264 82.6073 47.264ZM89.5092 51.84V36.088H91.5992L91.8412 37.782C92.1932 37.2687 92.6772 36.814 93.2932 36.418C93.9092 36.022 94.7012 35.824 95.6692 35.824C96.7252 35.824 97.6565 36.0733 98.4632 36.572C99.2698 37.0707 99.9005 37.7527 100.355 38.618C100.824 39.4833 101.059 40.466 101.059 41.566C101.059 42.666 100.824 43.6487 100.355 44.514C99.9005 45.3647 99.2698 46.0393 98.4632 46.538C97.6565 47.022 96.7178 47.264 95.6472 47.264C94.7965 47.264 94.0412 47.0953 93.3812 46.758C92.7358 46.4207 92.2225 45.944 91.8412 45.328V51.84H89.5092ZM95.2512 45.24C96.2485 45.24 97.0698 44.9027 97.7152 44.228C98.3605 43.5387 98.6832 42.644 98.6832 41.544C98.6832 40.8253 98.5365 40.1873 98.2432 39.63C97.9498 39.0727 97.5465 38.64 97.0332 38.332C96.5198 38.0093 95.9258 37.848 95.2512 37.848C94.2538 37.848 93.4325 38.1927 92.7872 38.882C92.1565 39.5713 91.8412 40.4587 91.8412 41.544C91.8412 42.644 92.1565 43.5387 92.7872 44.228C93.4325 44.9027 94.2538 45.24 95.2512 45.24ZM108.685 47.264C107.615 47.264 106.661 47.0293 105.825 46.56C105.004 46.076 104.359 45.4087 103.889 44.558C103.42 43.7073 103.185 42.7173 103.185 41.588C103.185 40.444 103.413 39.4393 103.867 38.574C104.337 37.7087 104.982 37.034 105.803 36.55C106.639 36.066 107.607 35.824 108.707 35.824C109.778 35.824 110.709 36.066 111.501 36.55C112.293 37.0193 112.909 37.65 113.349 38.442C113.789 39.234 114.009 40.1067 114.009 41.06C114.009 41.2067 114.002 41.368 113.987 41.544C113.987 41.7053 113.98 41.8887 113.965 42.094H105.473C105.547 43.15 105.891 43.9567 106.507 44.514C107.138 45.0567 107.864 45.328 108.685 45.328C109.345 45.328 109.895 45.1813 110.335 44.888C110.79 44.58 111.127 44.1693 111.347 43.656H113.679C113.386 44.6827 112.799 45.5407 111.919 46.23C111.054 46.9193 109.976 47.264 108.685 47.264ZM108.685 37.738C107.908 37.738 107.219 37.9727 106.617 38.442C106.016 38.8967 105.649 39.586 105.517 40.51H111.677C111.633 39.6593 111.333 38.9847 110.775 38.486C110.218 37.9873 109.521 37.738 108.685 37.738ZM121.599 47.264C120.528 47.264 119.568 47.022 118.717 46.538C117.881 46.054 117.221 45.3867 116.737 44.536C116.268 43.6707 116.033 42.6733 116.033 41.544C116.033 40.4147 116.268 39.4247 116.737 38.574C117.221 37.7087 117.881 37.034 118.717 36.55C119.568 36.066 120.528 35.824 121.599 35.824C122.948 35.824 124.078 36.176 124.987 36.88C125.911 37.584 126.505 38.5373 126.769 39.74H124.327C124.18 39.1387 123.858 38.6693 123.359 38.332C122.86 37.9947 122.274 37.826 121.599 37.826C121.027 37.826 120.499 37.9727 120.015 38.266C119.531 38.5447 119.142 38.9627 118.849 39.52C118.556 40.0627 118.409 40.7373 118.409 41.544C118.409 42.3507 118.556 43.0327 118.849 43.59C119.142 44.1327 119.531 44.5507 120.015 44.844C120.499 45.1373 121.027 45.284 121.599 45.284C122.274 45.284 122.86 45.1153 123.359 44.778C123.858 44.4407 124.18 43.964 124.327 43.348H126.769C126.52 44.5213 125.933 45.4673 125.009 46.186C124.085 46.9047 122.948 47.264 121.599 47.264ZM130.618 34.02C130.178 34.02 129.812 33.888 129.518 33.624C129.24 33.3453 129.1 33.0007 129.1 32.59C129.1 32.1793 129.24 31.842 129.518 31.578C129.812 31.2993 130.178 31.16 130.618 31.16C131.058 31.16 131.418 31.2993 131.696 31.578C131.99 31.842 132.136 32.1793 132.136 32.59C132.136 33.0007 131.99 33.3453 131.696 33.624C131.418 33.888 131.058 34.02 130.618 34.02ZM129.452 47V36.088H131.784V47H129.452ZM138.559 47.264C137.635 47.264 136.872 47.11 136.271 46.802C135.669 46.494 135.222 46.0907 134.929 45.592C134.635 45.0787 134.489 44.5213 134.489 43.92C134.489 42.864 134.899 42.028 135.721 41.412C136.542 40.796 137.715 40.488 139.241 40.488H142.101V40.29C142.101 39.4393 141.866 38.8013 141.397 38.376C140.942 37.9507 140.348 37.738 139.615 37.738C138.969 37.738 138.405 37.8993 137.921 38.222C137.451 38.53 137.165 38.992 137.063 39.608H134.731C134.804 38.816 135.068 38.1413 135.523 37.584C135.992 37.012 136.579 36.5793 137.283 36.286C138.001 35.978 138.786 35.824 139.637 35.824C141.162 35.824 142.343 36.2273 143.179 37.034C144.015 37.826 144.433 38.9113 144.433 40.29V47H142.409L142.211 45.13C141.903 45.7313 141.455 46.2373 140.869 46.648C140.282 47.0587 139.512 47.264 138.559 47.264ZM139.021 45.372C139.651 45.372 140.179 45.2253 140.605 44.932C141.045 44.624 141.382 44.2207 141.617 43.722C141.866 43.2233 142.02 42.6733 142.079 42.072H139.483C138.559 42.072 137.899 42.2333 137.503 42.556C137.121 42.8787 136.931 43.282 136.931 43.766C136.931 44.2647 137.114 44.6607 137.481 44.954C137.862 45.2327 138.375 45.372 139.021 45.372ZM147.152 47V31.16H149.484V47H147.152ZM153.757 34.02C153.317 34.02 152.95 33.888 152.657 33.624C152.378 33.3453 152.239 33.0007 152.239 32.59C152.239 32.1793 152.378 31.842 152.657 31.578C152.95 31.2993 153.317 31.16 153.757 31.16C154.197 31.16 154.556 31.2993 154.835 31.578C155.128 31.842 155.275 32.1793 155.275 32.59C155.275 33.0007 155.128 33.3453 154.835 33.624C154.556 33.888 154.197 34.02 153.757 34.02ZM152.591 47V36.088H154.923V47H152.591ZM162.357 47.264C160.979 47.264 159.842 46.9267 158.947 46.252C158.053 45.5773 157.539 44.6827 157.407 43.568H159.761C159.879 44.0667 160.157 44.4993 160.597 44.866C161.037 45.218 161.617 45.394 162.335 45.394C163.039 45.394 163.553 45.2473 163.875 44.954C164.198 44.6607 164.359 44.3233 164.359 43.942C164.359 43.3847 164.132 43.0107 163.677 42.82C163.237 42.6147 162.621 42.4313 161.829 42.27C161.213 42.138 160.597 41.962 159.981 41.742C159.38 41.522 158.874 41.214 158.463 40.818C158.067 40.4073 157.869 39.8573 157.869 39.168C157.869 38.2147 158.236 37.4227 158.969 36.792C159.703 36.1467 160.729 35.824 162.049 35.824C163.267 35.824 164.249 36.1173 164.997 36.704C165.76 37.2907 166.207 38.1193 166.339 39.19H164.095C164.022 38.7207 163.802 38.354 163.435 38.09C163.083 37.826 162.607 37.694 162.005 37.694C161.419 37.694 160.964 37.8187 160.641 38.068C160.319 38.3027 160.157 38.6107 160.157 38.992C160.157 39.3733 160.377 39.674 160.817 39.894C161.272 40.114 161.866 40.312 162.599 40.488C163.333 40.6493 164.007 40.84 164.623 41.06C165.254 41.2653 165.76 41.5733 166.141 41.984C166.523 42.3947 166.713 42.996 166.713 43.788C166.728 44.7853 166.339 45.614 165.547 46.274C164.77 46.934 163.707 47.264 162.357 47.264ZM173.427 47C172.356 47 171.506 46.7433 170.875 46.23C170.244 45.702 169.929 44.7707 169.929 43.436V38.046H168.059V36.088H169.929L170.215 33.316H172.261V36.088H175.341V38.046H172.261V43.436C172.261 44.0373 172.386 44.4553 172.635 44.69C172.899 44.91 173.346 45.02 173.977 45.02H175.231V47H173.427ZM182.101 47.264C180.723 47.264 179.586 46.9267 178.691 46.252C177.797 45.5773 177.283 44.6827 177.151 43.568H179.505C179.623 44.0667 179.901 44.4993 180.341 44.866C180.781 45.218 181.361 45.394 182.079 45.394C182.783 45.394 183.297 45.2473 183.619 44.954C183.942 44.6607 184.103 44.3233 184.103 43.942C184.103 43.3847 183.876 43.0107 183.421 42.82C182.981 42.6147 182.365 42.4313 181.573 42.27C180.957 42.138 180.341 41.962 179.725 41.742C179.124 41.522 178.618 41.214 178.207 40.818C177.811 40.4073 177.613 39.8573 177.613 39.168C177.613 38.2147 177.98 37.4227 178.713 36.792C179.447 36.1467 180.473 35.824 181.793 35.824C183.011 35.824 183.993 36.1173 184.741 36.704C185.504 37.2907 185.951 38.1193 186.083 39.19H183.839C183.766 38.7207 183.546 38.354 183.179 38.09C182.827 37.826 182.351 37.694 181.749 37.694C181.163 37.694 180.708 37.8187 180.385 38.068C180.063 38.3027 179.901 38.6107 179.901 38.992C179.901 39.3733 180.121 39.674 180.561 39.894C181.016 40.114 181.61 40.312 182.343 40.488C183.077 40.6493 183.751 40.84 184.367 41.06C184.998 41.2653 185.504 41.5733 185.885 41.984C186.267 42.3947 186.457 42.996 186.457 43.788C186.472 44.7853 186.083 45.614 185.291 46.274C184.514 46.934 183.451 47.264 182.101 47.264Z" fill="white"/>
</svg>
