<svg width="80" height="80" viewBox="0 0 80 80" fill="none" xmlns="http://www.w3.org/2000/svg">
<path d="M4.16702 52.2764C4.65123 52.2764 5.14246 52.3886 5.6393 52.6132C6.13614 52.8378 6.54877 53.1395 6.88 53.5171V52.5065H9.13123V61.4609H6.88V59.9536C6.62035 60.4378 6.2414 60.8546 5.74596 61.2041C5.24912 61.5522 4.67088 61.7276 4.00842 61.7276C3.28702 61.7276 2.62175 61.5437 2.01404 61.1774C1.40491 60.8111 0.917895 60.2792 0.551579 59.5816C0.18386 58.8841 0 58.0378 0 57.0455C0 56.0532 0.186667 55.2013 0.558596 54.4925C0.930526 53.7837 1.43298 53.2364 2.06596 52.8518C2.69754 52.4686 3.39789 52.2764 4.16702 52.2764ZM4.62737 54.4743C4.15439 54.4743 3.75018 54.5964 3.41333 54.8378C3.07649 55.0806 2.81263 55.3964 2.62456 55.7865C2.43509 56.1767 2.34105 56.5964 2.34105 57.0455C2.34105 57.7192 2.54456 58.2932 2.95298 58.7662C3.3614 59.2392 3.90175 59.475 4.57544 59.475C4.97684 59.475 5.35298 59.3683 5.70105 59.1564C6.04912 58.943 6.33404 58.6455 6.55158 58.2609C6.77053 57.8764 6.88 57.4132 6.88 56.8686V55.5915C6.5614 55.249 6.21474 54.9767 5.84281 54.776C5.46947 54.5753 5.06526 54.4743 4.62737 54.4743Z" fill="#606060"/>
<path d="M14.1488 48.6948V61.4611H11.8975V48.6948H14.1488Z" fill="#606060"/>
<path d="M22.1459 52.5068V54.3861H19.8231V61.4612H17.5719V54.3861H16.2063V52.5068H17.5719V51.7082C17.5719 51.0233 17.7165 50.4352 18.007 49.944C18.2961 49.4542 18.6779 49.078 19.1509 48.8184C19.6238 48.5587 20.1431 48.4282 20.7116 48.4282C21.0891 48.4282 21.4203 48.4703 21.7038 48.5517C21.9874 48.6345 22.2358 48.7468 22.4491 48.8886V50.7679C22.0589 50.5321 21.6098 50.4198 21.1017 50.431C20.7467 50.4437 20.4463 50.5588 20.1979 50.7763C19.9495 50.9952 19.8259 51.3531 19.8259 51.8486V52.504H22.1459V52.5068Z" fill="#606060"/>
<path d="M27.5537 52.2764C28.0379 52.2764 28.5291 52.3886 29.026 52.6132C29.5228 52.8378 29.9354 53.1395 30.2667 53.5171V52.5065H32.5179V61.4609H30.2667V59.9536C30.007 60.4378 29.6281 60.8546 29.1326 61.2041C28.6358 61.5522 28.0575 61.7276 27.3951 61.7276C26.6737 61.7276 26.0084 61.5437 25.4007 61.1774C24.7916 60.8111 24.3046 60.2792 23.9382 59.5816C23.5719 58.8841 23.3881 58.0392 23.3881 57.0455C23.3881 56.0532 23.5747 55.2013 23.9467 54.4925C24.3186 53.7837 24.821 53.2364 25.454 52.8518C26.0842 52.4686 26.7846 52.2764 27.5537 52.2764ZM28.014 54.4743C27.541 54.4743 27.1368 54.5964 26.8 54.8378C26.4631 55.0806 26.1993 55.3964 26.0112 55.7865C25.8217 56.1767 25.7277 56.5964 25.7277 57.0455C25.7277 57.7192 25.9312 58.2932 26.3396 58.7662C26.7481 59.2392 27.2884 59.475 27.9621 59.475C28.3635 59.475 28.7396 59.3683 29.0877 59.1564C29.4358 58.9444 29.7207 58.6455 29.9382 58.2609C30.1572 57.8764 30.2667 57.4132 30.2667 56.8686V55.5915C29.9481 55.249 29.6014 54.9767 29.2295 54.776C28.8561 54.5753 28.4519 54.4743 28.014 54.4743Z" fill="#606060"/>
<path d="M40.4084 52.2764C41.1172 52.2764 41.7768 52.4574 42.3859 52.8167C42.9951 53.1774 43.4849 53.7037 43.8582 54.3943C44.2301 55.0862 44.4168 55.9283 44.4168 56.9206C44.4168 57.9129 44.2301 58.7704 43.8582 59.4918C43.4863 60.2132 42.9838 60.7662 42.3508 61.1493C41.7179 61.5339 41.0175 61.7262 40.2498 61.7262C39.753 61.7262 39.2589 61.6041 38.7691 61.3627C38.2779 61.1199 37.868 60.8167 37.5368 60.449V65.715H35.2842V52.5065H37.5368V54.0139C37.7965 53.5297 38.1754 53.1185 38.6708 52.7816C39.1663 52.4448 39.7459 52.2764 40.4084 52.2764ZM39.84 54.5276C39.4386 54.5276 39.0596 54.6315 38.7059 54.8378C38.3508 55.0441 38.0645 55.3374 37.8456 55.715C37.6266 56.0939 37.5228 56.5486 37.5354 57.0806V58.3746C37.854 58.7058 38.2007 58.9809 38.5726 59.1999C38.9445 59.4188 39.3501 59.5283 39.7866 59.5283C40.247 59.5283 40.6498 59.4048 40.9923 59.1564C41.3347 58.9079 41.6014 58.5865 41.7908 58.1908C41.9803 57.795 42.0744 57.3725 42.0744 56.9234C42.0744 56.2497 41.8708 55.6827 41.4624 55.2209C41.0554 54.7578 40.5137 54.5276 39.84 54.5276Z" fill="#606060"/>
<path d="M50.727 52.2764C51.6014 52.2764 52.4 52.4869 53.12 52.9065C53.8414 53.3262 54.4239 53.8932 54.866 54.609C55.3095 55.3248 55.5312 56.1248 55.5312 57.0118C55.5312 57.8988 55.3095 58.696 54.866 59.4048C54.4224 60.1136 53.84 60.6792 53.12 61.0974C52.3986 61.5171 51.6014 61.7276 50.727 61.7276C49.8638 61.7276 49.0695 61.5171 48.3424 61.0974C47.6154 60.6778 47.033 60.1136 46.5965 59.4048C46.16 58.696 45.941 57.8974 45.941 57.0118C45.941 56.1248 46.16 55.3248 46.5965 54.609C47.0344 53.8946 47.6154 53.3262 48.3424 52.9065C49.0695 52.4855 49.8638 52.2764 50.727 52.2764ZM50.727 54.456C50.3017 54.456 49.906 54.5571 49.5396 54.7578C49.1733 54.9585 48.88 55.249 48.6624 55.6265C48.4435 56.0055 48.334 56.4658 48.334 57.009C48.334 57.5536 48.4435 58.0139 48.6624 58.3915C48.8814 58.7704 49.1733 59.0567 49.5396 59.2518C49.906 59.4469 50.3017 59.5451 50.727 59.5451C51.1523 59.5451 51.5481 59.4469 51.9144 59.2518C52.2807 59.0567 52.5768 58.7704 52.8014 58.3915C53.026 58.0139 53.1382 57.5522 53.1382 57.009C53.1382 56.4658 53.026 56.0041 52.8014 55.6265C52.5768 55.249 52.2807 54.9585 51.9144 54.7578C51.5481 54.5571 51.1523 54.456 50.727 54.456Z" fill="#606060"/>
<path d="M60.8505 52.5066V61.461H58.5979V54.4224H57.1621V52.508H60.8505V52.5066ZM59.5397 47.8428C59.9649 47.8428 60.3312 47.9929 60.6386 48.2947C60.946 48.5965 61.0989 48.9544 61.0989 49.367C61.0989 49.7698 60.9446 50.1235 60.6386 50.4308C60.3312 50.7382 59.9649 50.8912 59.5397 50.8912C59.1144 50.8912 58.7509 50.7382 58.4491 50.4308C58.1474 50.1235 57.9972 49.7698 57.9972 49.367C57.9972 48.9529 58.1474 48.5951 58.4491 48.2947C58.7495 47.9944 59.113 47.8428 59.5397 47.8428Z" fill="#606060"/>
<path d="M65.9396 52.5065V53.7837C66.2119 53.4174 66.581 53.075 67.047 52.755C67.5144 52.4364 68.0491 52.2764 68.6512 52.2764C69.5607 52.2764 70.3242 52.5837 70.9389 53.1985C71.5537 53.8132 71.861 54.7353 71.861 55.9648V61.4609H69.6098L69.5916 56.2651C69.5916 55.663 69.447 55.2139 69.1565 54.9178C68.8674 54.623 68.4674 54.4743 67.9593 54.4743C67.5579 54.4743 67.1817 54.6048 66.8337 54.8644C66.4856 55.1241 66.1867 55.4315 65.9382 55.7865V61.4609H63.6856V52.5065H65.9396Z" fill="#606060"/>
<path d="M77.4287 49.9004V52.5067H79.9115V54.386H77.4287V58.2513C77.4287 58.6527 77.52 58.9699 77.7038 59.2C77.8877 59.4302 78.1614 59.5453 78.5291 59.5453C78.8477 59.5453 79.1228 59.5102 79.353 59.4386C79.5831 59.3685 79.7993 59.2674 80 59.1369V60.9278C79.7754 61.1523 79.4947 61.3418 79.1579 61.4948C78.821 61.6478 78.3986 61.725 77.8905 61.725C77.0863 61.725 76.4337 61.4681 75.9312 60.953C75.4287 60.4393 75.1775 59.732 75.1775 58.8337V54.386H73.5635V53.2337C74.1305 53.033 74.654 52.6541 75.1326 52.0997C75.6112 51.5439 75.9929 50.8113 76.2765 49.9004H77.4287Z" fill="#606060"/>
<path d="M52.1558 33.6268L49.927 28.5925C49.9242 28.5854 49.9214 28.5798 49.9186 28.5742L41.5158 9.59456C41.3109 9.13 40.8505 8.83105 40.3439 8.83105C39.8358 8.83105 39.3768 9.13 39.1719 9.59456L36.2975 16.0872L34.8884 19.2718C34.8884 19.2718 37.294 19.9651 38.9474 16.4381L39.1298 16.0254C39.1312 16.0226 39.1326 16.0198 39.134 16.0156C39.1354 16.0142 39.1354 16.0114 39.1368 16.01L40.3453 13.2802L44.706 23.1286C43.3586 22.4675 41.8793 22.1111 40.3453 22.1111C36.233 22.1111 32.5333 24.6556 30.6821 28.7651L28.5319 33.6268L27.7361 35.4275H27.7418L27.7614 35.3714C27.7614 35.3714 30.1418 36.0563 31.7951 32.5882L32.8716 30.156L33.026 29.8009C33.0442 29.7602 33.0653 29.7223 33.0849 29.6816L33.2182 29.3798L33.2253 29.3953C34.7004 26.4732 37.3909 24.6739 40.3453 24.6739C43.3726 24.6739 46.1474 26.5784 47.5818 29.624L49.8133 34.664C50.0253 35.1426 50.494 35.4275 50.9867 35.4275C51.1593 35.4275 51.3361 35.3925 51.5046 35.3181C52.1502 35.0318 52.4421 34.2753 52.1558 33.6268Z" fill="#606060"/>
</svg>
