<?xml version="1.0" encoding="utf-8"?>
<!-- Generator: Adobe Illustrator 25.2.3, SVG Export Plug-In . SVG Version: 6.00 Build 0)  -->
<svg version="1.1" id="Layer_1" xmlns="http://www.w3.org/2000/svg" xmlns:xlink="http://www.w3.org/1999/xlink" x="0px" y="0px"
	 viewBox="0 0 468.61 204.97" style="enable-background:new 0 0 468.61 204.97;" xml:space="preserve">
<style type="text/css">
	.st0{fill:#73ACFF;}
	.st1{fill:#FFFFFF;}
	.st2{fill:none;stroke:#000000;stroke-width:3;stroke-miterlimit:10;}
	.st3{fill:none;stroke:#000000;stroke-width:4;stroke-miterlimit:10;}
	.st4{fill:none;stroke:#FFFFFF;stroke-width:3;stroke-miterlimit:10;}
</style>
<rect class="st0" width="468.61" height="204.97"/>
<g>
	<g>
		<path class="st1" d="M68.31,85.45c2.1,0,4.22,0.49,6.37,1.46c2.15,0.97,3.94,2.28,5.37,3.91v-4.37h9.74v38.75h-9.74v-6.52
			c-1.13,2.1-2.76,3.9-4.91,5.41c-2.15,1.51-4.66,2.26-7.52,2.26c-3.12,0-6-0.79-8.63-2.38c-2.63-1.58-4.75-3.89-6.33-6.91
			c-1.59-3.02-2.38-6.68-2.38-10.97c0-4.3,0.81-7.98,2.42-11.05c1.61-3.07,3.79-5.43,6.52-7.1C61.95,86.28,64.98,85.45,68.31,85.45z
			 M70.3,94.97c-2.05,0-3.8,0.53-5.26,1.57c-1.46,1.05-2.6,2.42-3.41,4.1c-0.82,1.69-1.23,3.5-1.23,5.45c0,2.92,0.88,5.4,2.65,7.44
			s4.11,3.07,7.02,3.07c1.74,0,3.36-0.46,4.87-1.38s2.74-2.21,3.68-3.88c0.95-1.66,1.42-3.67,1.42-6.02V99.8
			c-1.38-1.48-2.88-2.66-4.49-3.53C73.95,95.4,72.19,94.97,70.3,94.97z"/>
		<path class="st1" d="M111.5,69.95v55.24h-9.75V69.95H111.5z"/>
		<path class="st1" d="M146.11,86.45v8.13h-10.05v30.61h-9.74V94.58h-5.91v-8.13h5.91V83c0-2.97,0.63-5.51,1.88-7.63
			c1.25-2.12,2.9-3.75,4.95-4.87c2.04-1.12,4.3-1.69,6.75-1.69c1.64,0,3.07,0.18,4.3,0.54c1.23,0.36,2.3,0.84,3.22,1.46v8.13
			c-1.69-1.02-3.63-1.51-5.83-1.46c-1.53,0.05-2.84,0.55-3.91,1.5c-1.07,0.95-1.61,2.49-1.61,4.64v2.84H146.11z"/>
		<path class="st1" d="M169.51,85.45c2.1,0,4.22,0.49,6.37,1.46c2.15,0.97,3.94,2.28,5.37,3.91v-4.37h9.74v38.75h-9.74v-6.52
			c-1.13,2.1-2.76,3.9-4.91,5.41c-2.15,1.51-4.66,2.26-7.52,2.26c-3.12,0-6-0.79-8.63-2.38c-2.63-1.58-4.75-3.89-6.33-6.91
			c-1.59-3.02-2.38-6.68-2.38-10.97c0-4.3,0.81-7.98,2.42-11.05c1.61-3.07,3.79-5.43,6.52-7.1
			C163.15,86.28,166.18,85.45,169.51,85.45z M171.5,94.97c-2.05,0-3.8,0.53-5.26,1.57c-1.46,1.05-2.6,2.42-3.41,4.1
			c-0.82,1.69-1.23,3.5-1.23,5.45c0,2.92,0.88,5.4,2.65,7.44s4.11,3.07,7.02,3.07c1.74,0,3.36-0.46,4.87-1.38s2.74-2.21,3.68-3.88
			c0.95-1.66,1.42-3.67,1.42-6.02V99.8c-1.38-1.48-2.88-2.66-4.49-3.53C175.15,95.4,173.4,94.97,171.5,94.97z"/>
		<path class="st1" d="M225.14,85.45c3.07,0,5.92,0.78,8.55,2.34c2.63,1.56,4.76,3.84,6.37,6.83c1.61,2.99,2.42,6.64,2.42,10.93
			c0,4.3-0.81,8.01-2.42,11.13c-1.61,3.12-3.79,5.51-6.52,7.17c-2.74,1.66-5.77,2.49-9.09,2.49c-2.15,0-4.29-0.53-6.41-1.57
			c-2.12-1.05-3.9-2.37-5.33-3.95v22.79h-9.75V86.45h9.75v6.52c1.12-2.1,2.76-3.88,4.91-5.33
			C219.77,86.18,222.27,85.45,225.14,85.45z M222.68,95.2c-1.74,0-3.38,0.45-4.91,1.34c-1.53,0.9-2.78,2.16-3.72,3.8
			c-0.95,1.64-1.39,3.61-1.34,5.91v5.6c1.38,1.43,2.88,2.62,4.49,3.57s3.36,1.42,5.26,1.42c2,0,3.73-0.54,5.22-1.61
			s2.63-2.47,3.45-4.18c0.82-1.71,1.23-3.54,1.23-5.49c0-2.92-0.88-5.37-2.65-7.37C227.94,96.19,225.6,95.2,222.68,95.2z"/>
		<path class="st1" d="M269.79,85.45c3.79,0,7.24,0.91,10.36,2.72c3.12,1.82,5.64,4.27,7.56,7.37c1.92,3.1,2.88,6.56,2.88,10.4
			c0,3.84-0.96,7.29-2.88,10.36s-4.44,5.51-7.56,7.33c-3.12,1.82-6.57,2.72-10.36,2.72c-3.73,0-7.17-0.91-10.32-2.72
			c-3.15-1.81-5.67-4.26-7.56-7.33s-2.84-6.52-2.84-10.36c0-3.84,0.95-7.3,2.84-10.4c1.89-3.09,4.41-5.55,7.56-7.37
			C262.62,86.36,266.06,85.45,269.79,85.45z M269.79,94.89c-1.84,0-3.56,0.44-5.14,1.3c-1.59,0.87-2.85,2.12-3.8,3.76
			c-0.95,1.64-1.42,3.63-1.42,5.98c0,2.35,0.47,4.35,1.42,5.99c0.95,1.64,2.21,2.88,3.8,3.72c1.58,0.84,3.3,1.27,5.14,1.27
			s3.55-0.42,5.14-1.27c1.58-0.84,2.86-2.08,3.84-3.72c0.97-1.64,1.46-3.63,1.46-5.99c0-2.35-0.49-4.35-1.46-5.98
			c-0.97-1.64-2.25-2.89-3.84-3.76C273.35,95.32,271.63,94.89,269.79,94.89z"/>
		<path class="st1" d="M313.6,86.45v38.75h-9.75V94.74h-6.21v-8.29H313.6z M307.93,66.27c1.84,0,3.43,0.65,4.76,1.96
			c1.33,1.3,2,2.85,2,4.64c0,1.74-0.67,3.27-2,4.6c-1.33,1.33-2.92,2-4.76,2c-1.84,0-3.42-0.66-4.72-2c-1.3-1.33-1.96-2.86-1.96-4.6
			c0-1.79,0.65-3.34,1.96-4.64C304.51,66.92,306.08,66.27,307.93,66.27z"/>
		<path class="st1" d="M335.62,86.45v5.52c1.18-1.58,2.77-3.07,4.79-4.45c2.02-1.38,4.33-2.07,6.94-2.07c3.94,0,7.24,1.33,9.9,3.99
			c2.66,2.66,3.99,6.65,3.99,11.97v23.79h-9.74l-0.08-22.48c0-2.61-0.63-4.55-1.88-5.83c-1.25-1.28-2.98-1.92-5.18-1.92
			c-1.74,0-3.36,0.56-4.87,1.69c-1.51,1.13-2.8,2.46-3.87,3.99v24.55h-9.75V86.45H335.62z"/>
		<path class="st1" d="M385.34,75.17v11.28h10.74v8.13h-10.74v16.73c0,1.74,0.4,3.11,1.19,4.11c0.79,1,1.98,1.5,3.57,1.5
			c1.38,0,2.57-0.15,3.57-0.46s1.93-0.74,2.8-1.3v7.75c-0.97,0.97-2.19,1.79-3.64,2.46s-3.29,1-5.49,1c-3.48,0-6.3-1.11-8.48-3.34
			c-2.17-2.23-3.26-5.28-3.26-9.17V94.58h-6.98V89.6c2.46-0.87,4.72-2.51,6.79-4.91c2.07-2.4,3.72-5.58,4.95-9.51H385.34z"/>
		<path class="st1" d="M411.04,114.3c1.69,0,3.13,0.6,4.34,1.8c1.2,1.2,1.8,2.65,1.8,4.33c0,1.69-0.6,3.13-1.8,4.33
			c-1.2,1.2-2.65,1.8-4.34,1.8c-1.69,0-3.13-0.6-4.33-1.8c-1.2-1.2-1.8-2.65-1.8-4.33c0-1.69,0.6-3.13,1.8-4.33
			C407.91,114.9,409.36,114.3,411.04,114.3z"/>
	</g>
</g>
</svg>
