<svg width="65" height="65" viewBox="0 0 65 65" fill="none" xmlns="http://www.w3.org/2000/svg">
<g clip-path="url(#clip0_527_3123)">
<path d="M10.5628 64.143C10.4253 64.143 10.2878 64.1153 10.1777 64.06C9.79264 63.8941 9.54507 63.5347 9.54507 63.0923V52.3097C4.40119 52.0332 0.302582 47.7478 0.302582 42.5224V10.6721C0.302582 5.28077 4.67626 0.884766 10.0402 0.884766H54.9598C60.3237 0.884766 64.6974 5.28077 64.6974 10.6721V42.5224C64.6974 47.9137 60.3237 52.3097 54.9598 52.3097H22.7486L11.278 63.8388C11.0855 64.0324 10.8379 64.143 10.5628 64.143ZM10.0402 2.95835C5.80406 2.95835 2.36564 6.41433 2.36564 10.6721V42.5224C2.36564 46.7801 5.80406 50.2361 10.0402 50.2361H10.5628C11.1405 50.2361 11.5806 50.7061 11.5806 51.2591V60.5764L21.5658 50.5402C21.7584 50.3467 22.0334 50.2361 22.281 50.2361H54.9048C59.1409 50.2361 62.5793 46.7801 62.5793 42.5224V10.6721C62.5793 6.41433 59.1409 2.95835 54.9048 2.95835H10.0402Z" fill="#3D8CFF"/>
<path d="M23.9039 38.4858H17.5772C16.9996 38.4858 16.5594 38.0158 16.5594 37.4629V23.9154C16.5594 23.3348 17.0271 22.8925 17.5772 22.8925H23.9039C24.4816 22.8925 24.9217 23.3625 24.9217 23.9154V37.4629C24.9217 38.0158 24.4541 38.4858 23.9039 38.4858ZM18.595 36.4122H22.8586V24.9384H18.595V36.4122Z" fill="#3D8CFF"/>
<path d="M44.507 38.4858H28.7452C28.1676 38.4858 27.7274 38.0158 27.7274 37.4628V23.9154C27.7274 23.6389 27.8375 23.3901 28.03 23.1965L35.7871 15.3998C35.8421 15.3446 35.8971 15.2893 35.9797 15.2616C36.1447 15.151 37.5751 14.3216 38.9505 14.9851C39.9132 15.4551 40.4909 16.5058 40.6559 18.1093C40.6559 18.137 40.6559 18.1923 40.6559 18.2199V22.8924H45.1396C46.5425 22.8924 47.3127 23.5283 47.7253 24.026C48.8531 25.4913 48.303 27.6755 48.248 27.9243L45.4697 37.7393C45.3872 38.1816 44.9746 38.4858 44.507 38.4858ZM29.7905 36.4122H43.7368L46.2949 27.3714C46.405 26.929 46.515 25.7954 46.1299 25.2701C46.0749 25.1872 45.8548 24.9383 45.1671 24.9383H39.6382C39.0605 24.9383 38.6204 24.4683 38.6204 23.9154V18.2476C38.5379 17.5011 38.3178 16.9481 38.0427 16.8099C37.7952 16.6993 37.3825 16.8099 37.135 16.9481L29.7905 24.3301V36.4122Z" fill="#3D8CFF"/>
</g>
<defs>
<clipPath id="clip0_527_3123">
<rect width="65" height="65" fill="white"/>
</clipPath>
</defs>
</svg>
