<svg width="65" height="65" viewBox="0 0 65 65" fill="none" xmlns="http://www.w3.org/2000/svg">
<path d="M62.7994 50.7337H15.7067C15.0466 50.7337 14.5239 50.2084 14.5239 49.5449V2.2118C14.5239 1.54826 15.0466 1.02295 15.7067 1.02295H62.7994C63.4596 1.02295 63.9822 1.54826 63.9822 2.2118V49.5449C63.9822 50.2084 63.4596 50.7337 62.7994 50.7337ZM16.8896 48.3284H61.5891V3.40066H16.8896V48.3284Z" fill="#3D8CFF"/>
<path d="M49.2659 64.3089H47.2303C46.5701 64.3089 46.0475 63.7836 46.0475 63.12C46.0475 62.4565 46.5701 61.9312 47.2303 61.9312H48.083V61.0741C48.083 60.4106 48.6057 59.8853 49.2659 59.8853C49.926 59.8853 50.4487 60.4106 50.4487 61.0741V63.12C50.4762 63.7836 49.926 64.3089 49.2659 64.3089Z" fill="#3D8CFF"/>
<path d="M39.3356 64.3089H35.5396C34.8794 64.3089 34.3568 63.7836 34.3568 63.12C34.3568 62.4565 34.8794 61.9312 35.5396 61.9312H39.3356C39.9958 61.9312 40.5184 62.4565 40.5184 63.12C40.5184 63.7836 39.9958 64.3089 39.3356 64.3089ZM27.645 64.3089H23.8489C23.1888 64.3089 22.6661 63.7836 22.6661 63.12C22.6661 62.4565 23.1888 61.9312 23.8489 61.9312H27.645C28.3051 61.9312 28.8278 62.4565 28.8278 63.12C28.8278 63.7836 28.3051 64.3089 27.645 64.3089ZM15.9268 64.3089H12.1583C11.4981 64.3089 10.9755 63.7836 10.9755 63.12C10.9755 62.4565 11.4981 61.9312 12.1583 61.9312H15.9543C16.6145 61.9312 17.1371 62.4565 17.1371 63.12C17.1371 63.7836 16.587 64.3089 15.9268 64.3089Z" fill="#3D8CFF"/>
<path d="M4.23619 64.3089H2.20064C1.54046 64.3089 1.01782 63.7836 1.01782 63.12V61.0741C1.01782 60.4106 1.54046 59.8853 2.20064 59.8853C2.86082 59.8853 3.38346 60.4106 3.38346 61.0741V61.9312H4.23619C4.89637 61.9312 5.41901 62.4565 5.41901 63.12C5.41901 63.7836 4.89637 64.3089 4.23619 64.3089Z" fill="#3D8CFF"/>
<path d="M2.20064 54.328C1.54046 54.328 1.01782 53.8027 1.01782 53.1391V49.3237C1.01782 48.6602 1.54046 48.1349 2.20064 48.1349C2.86082 48.1349 3.38346 48.6602 3.38346 49.3237V53.1391C3.38346 53.775 2.86082 54.328 2.20064 54.328ZM2.20064 42.55C1.54046 42.55 1.01782 42.0247 1.01782 41.3611V37.5457C1.01782 36.8822 1.54046 36.3569 2.20064 36.3569C2.86082 36.3569 3.38346 36.8822 3.38346 37.5457V41.3611C3.38346 42.0247 2.86082 42.55 2.20064 42.55ZM2.20064 30.7997C1.54046 30.7997 1.01782 30.2744 1.01782 29.6108V25.7954C1.01782 25.1319 1.54046 24.6066 2.20064 24.6066C2.86082 24.6066 3.38346 25.1319 3.38346 25.7954V29.6108C3.38346 30.2744 2.86082 30.7997 2.20064 30.7997Z" fill="#3D8CFF"/>
<path d="M2.20064 19.0494C1.54046 19.0494 1.01782 18.5241 1.01782 17.8605V15.8146C1.01782 15.151 1.54046 14.6257 2.20064 14.6257H4.23619C4.89637 14.6257 5.41901 15.151 5.41901 15.8146C5.41901 16.4781 4.89637 17.0034 4.23619 17.0034H3.38346V17.8605C3.38346 18.5241 2.86082 19.0494 2.20064 19.0494Z" fill="#3D8CFF"/>
<path d="M39.3356 17.0034H35.5396C34.8794 17.0034 34.3568 16.4781 34.3568 15.8146C34.3568 15.151 34.8794 14.6257 35.5396 14.6257H39.3356C39.9958 14.6257 40.5184 15.151 40.5184 15.8146C40.5184 16.4505 39.9958 17.0034 39.3356 17.0034ZM27.645 17.0034H23.8489C23.1888 17.0034 22.6661 16.4781 22.6661 15.8146C22.6661 15.151 23.1888 14.6257 23.8489 14.6257H27.645C28.3051 14.6257 28.8278 15.151 28.8278 15.8146C28.8278 16.4505 28.3051 17.0034 27.645 17.0034ZM15.9268 17.0034H12.1583C11.4981 17.0034 10.9755 16.4781 10.9755 15.8146C10.9755 15.151 11.4981 14.6257 12.1583 14.6257H15.9543C16.6145 14.6257 17.1371 15.151 17.1371 15.8146C17.1371 16.4505 16.587 17.0034 15.9268 17.0034Z" fill="#3D8CFF"/>
<path d="M49.2659 19.0494C48.6057 19.0494 48.083 18.5241 48.083 17.8605V17.0034H47.2303C46.5701 17.0034 46.0475 16.4781 46.0475 15.8146C46.0475 15.151 46.5701 14.6257 47.2303 14.6257H49.2659C49.926 14.6257 50.4487 15.151 50.4487 15.8146V17.8605C50.4762 18.5241 49.926 19.0494 49.2659 19.0494Z" fill="#3D8CFF"/>
<path d="M49.2658 54.328C48.6056 54.328 48.083 53.8027 48.083 53.1391V49.3237C48.083 48.6602 48.6056 48.1349 49.2658 48.1349C49.926 48.1349 50.4486 48.6602 50.4486 49.3237V53.1391C50.4761 53.775 49.926 54.328 49.2658 54.328ZM49.2658 42.55C48.6056 42.55 48.083 42.0247 48.083 41.3611V37.5457C48.083 36.8822 48.6056 36.3569 49.2658 36.3569C49.926 36.3569 50.4486 36.8822 50.4486 37.5457V41.3611C50.4761 42.0247 49.926 42.55 49.2658 42.55ZM49.2658 30.7997C48.6056 30.7997 48.083 30.2744 48.083 29.6108V25.7954C48.083 25.1319 48.6056 24.6066 49.2658 24.6066C49.926 24.6066 50.4486 25.1319 50.4486 25.7954V29.6108C50.4761 30.2744 49.926 30.7997 49.2658 30.7997Z" fill="#3D8CFF"/>
</svg>
