<svg width="65" height="65" viewBox="0 0 65 65" fill="none" xmlns="http://www.w3.org/2000/svg">
<path d="M32.4863 64.5853C32.3487 64.5853 32.2112 64.5577 32.0736 64.5024C31.6885 64.3365 31.441 63.9494 31.441 63.5347V32.5139C31.441 31.9333 31.9086 31.4633 32.4863 31.4633C33.0639 31.4633 33.5315 31.9333 33.5315 32.5139V61.0188L35.9797 58.5581C36.3923 58.1434 37.0525 58.1434 37.4651 58.5581C37.8777 58.9728 37.8777 59.6364 37.4651 60.0511L33.229 64.3089C33.0364 64.4747 32.7613 64.5853 32.4863 64.5853Z" fill="#3D8CFF"/>
<path d="M32.4862 64.5853C32.2112 64.5853 31.9636 64.4747 31.7435 64.2811L27.5074 60.0234C27.0948 59.6087 27.0948 58.9451 27.5074 58.5304C27.92 58.1157 28.5802 58.1157 28.9928 58.5304L33.2289 62.7882C33.6415 63.2029 33.6415 63.8664 33.2289 64.2811C33.0364 64.5023 32.7613 64.5853 32.4862 64.5853Z" fill="#3D8CFF"/>
<path d="M32.4863 33.5645C31.9086 33.5645 31.441 33.0945 31.441 32.5139V1.46541C31.441 0.884808 31.9086 0.414795 32.4863 0.414795C33.0639 0.414795 33.5315 0.884808 33.5315 1.46541V32.5139C33.5315 33.0945 33.0639 33.5645 32.4863 33.5645Z" fill="#3D8CFF"/>
<path d="M28.2501 6.77374C27.975 6.77374 27.7275 6.66315 27.5074 6.46962C27.0948 6.0549 27.0948 5.39135 27.5074 4.97664L31.7435 0.718875C32.1561 0.304158 32.8163 0.304158 33.2289 0.718875C33.6415 1.13359 33.6415 1.79714 33.2289 2.21186L28.9928 6.46962C28.8002 6.66315 28.5252 6.77374 28.2501 6.77374Z" fill="#3D8CFF"/>
<path d="M36.7224 6.77374C36.4473 6.77374 36.1997 6.66315 35.9797 6.46962L31.7435 2.21186C31.3309 1.79714 31.3309 1.13359 31.7435 0.718875C32.1562 0.304158 32.8163 0.304158 33.2289 0.718875L37.4651 4.97664C37.8777 5.39135 37.8777 6.0549 37.4651 6.46962C37.2725 6.66315 36.9975 6.77374 36.7224 6.77374Z" fill="#3D8CFF"/>
<path d="M63.1295 17.9711C62.8544 17.9711 62.6068 17.8605 62.3868 17.667L58.1506 13.4092C57.738 12.9945 57.738 12.331 58.1506 11.9163C58.5633 11.5015 59.2234 11.5015 59.636 11.9163L63.8722 16.174C64.2848 16.5887 64.2848 17.2523 63.8722 17.667C63.6521 17.8605 63.3771 17.9711 63.1295 17.9711Z" fill="#3D8CFF"/>
<path d="M58.8933 22.2288C58.6183 22.2288 58.3707 22.1182 58.1506 21.9247C57.738 21.51 57.738 20.8464 58.1506 20.4317L62.3868 16.174C62.7994 15.7592 63.4596 15.7592 63.8722 16.174C64.2848 16.5887 64.2848 17.2522 63.8722 17.6669L59.636 21.9247C59.416 22.1182 59.1409 22.2288 58.8933 22.2288Z" fill="#3D8CFF"/>
<path d="M63.1295 49.0749C62.8544 49.0749 62.6068 48.9643 62.3868 48.7708L58.1506 44.513C57.738 44.0983 57.738 43.4347 58.1506 43.02C58.5633 42.6053 59.2234 42.6053 59.636 43.02L63.8722 47.2778C64.2848 47.6925 64.2848 48.356 63.8722 48.7708C63.6521 48.9643 63.3771 49.0749 63.1295 49.0749Z" fill="#3D8CFF"/>
<path d="M58.8933 53.3327C58.6183 53.3327 58.3707 53.2221 58.1506 53.0286C57.738 52.6139 57.738 51.9503 58.1506 51.5356L62.3868 47.2778C62.7994 46.8631 63.4596 46.8631 63.8722 47.2778C64.2848 47.6926 64.2848 48.3561 63.8722 48.7708L59.636 53.0286C59.416 53.2221 59.1409 53.3327 58.8933 53.3327Z" fill="#3D8CFF"/>
<path d="M1.87052 17.9711C1.59544 17.9711 1.34788 17.8605 1.12782 17.667C0.715207 17.2523 0.715207 16.5887 1.12782 16.174L5.36396 11.9163C5.77657 11.5015 6.43675 11.5015 6.84936 11.9163C7.26197 12.331 7.26197 12.9945 6.84936 13.4092L2.61322 17.667C2.39316 17.8605 2.14559 17.9711 1.87052 17.9711Z" fill="#3D8CFF"/>
<path d="M6.10666 22.2288C5.83158 22.2288 5.58402 22.1182 5.36396 21.9247L1.12782 17.6669C0.715207 17.2522 0.715207 16.5887 1.12782 16.174C1.54043 15.7592 2.20061 15.7592 2.61322 16.174L6.84936 20.4317C7.26197 20.8464 7.26197 21.51 6.84936 21.9247C6.6293 22.1182 6.38173 22.2288 6.10666 22.2288Z" fill="#3D8CFF"/>
<path d="M1.87052 49.0749C1.59544 49.0749 1.34788 48.9643 1.12782 48.7708C0.715207 48.356 0.715207 47.6925 1.12782 47.2778L5.36396 43.02C5.77657 42.6053 6.43675 42.6053 6.84936 43.02C7.26197 43.4347 7.26197 44.0983 6.84936 44.513L2.61322 48.7708C2.39316 48.9643 2.14559 49.0749 1.87052 49.0749Z" fill="#3D8CFF"/>
<path d="M6.10666 53.3327C5.83158 53.3327 5.58402 53.2221 5.36396 53.0286L1.12782 48.7708C0.715207 48.3561 0.715207 47.6926 1.12782 47.2778C1.54043 46.8631 2.20061 46.8631 2.61322 47.2778L6.84936 51.5356C7.26197 51.9503 7.26197 52.6139 6.84936 53.0286C6.6293 53.2221 6.38173 53.3327 6.10666 53.3327Z" fill="#3D8CFF"/>
<path d="M3.54846 49.1302C2.42066 49.1302 1.78799 49.0473 1.76048 49.0473C1.18283 48.992 0.770215 48.4667 0.82523 47.8861C0.880245 47.3055 1.40289 46.8908 1.98054 46.9461C1.98054 46.9461 2.5582 47.0014 3.54846 47.0014C4.12612 47.0014 4.75879 46.9737 5.36395 46.9461C5.94161 46.9184 6.43674 47.3331 6.46425 47.9137C6.49176 48.4943 6.05164 48.992 5.50149 49.0196C4.84131 49.1302 4.18113 49.1302 3.54846 49.1302ZM9.87517 48.4943C9.38003 48.4943 8.93991 48.1349 8.85739 47.6373C8.74736 47.0567 9.10496 46.5313 9.68262 46.3931C10.8104 46.1719 11.9382 45.8954 13.0385 45.536C13.5887 45.3701 14.1663 45.6743 14.3314 46.2272C14.4964 46.7802 14.1938 47.3608 13.6437 47.5267C12.4609 47.8861 11.278 48.1902 10.0677 48.439C10.0127 48.4943 9.93018 48.4943 9.87517 48.4943ZM17.5222 46.0337C17.1371 46.0337 16.752 45.8125 16.5595 45.4254C16.3119 44.9001 16.5595 44.2642 17.0821 44.043C18.1274 43.573 19.1727 43.0477 20.1629 42.4671C20.6581 42.1906 21.2907 42.3565 21.5933 42.8542C21.8684 43.3518 21.7033 43.9877 21.2082 44.2919C20.1354 44.9001 19.0351 45.4807 17.9348 45.9784C17.8248 46.006 17.6873 46.0337 17.5222 46.0337ZM24.4266 41.9142C24.124 41.9142 23.7939 41.7759 23.6014 41.4994C23.2438 41.0294 23.3538 40.3935 23.7939 40.0341C24.7017 39.3429 25.6094 38.5964 26.4621 37.7946C26.8747 37.4076 27.5349 37.4352 27.9475 37.8499C28.3326 38.2646 28.3051 38.9282 27.8925 39.3429C26.9848 40.1723 26.0495 40.9741 25.0868 41.7206C24.8667 41.8589 24.6466 41.9142 24.4266 41.9142ZM30.2857 36.3846C30.0381 36.3846 29.7905 36.3017 29.598 36.1358C29.1579 35.7487 29.1028 35.0851 29.4879 34.6704C30.2306 33.7857 30.9458 32.8733 31.6335 31.9057C31.9636 31.4356 32.6238 31.325 33.0914 31.6568C33.559 31.9886 33.6691 32.6521 33.339 33.1222C32.6238 34.1175 31.8536 35.0851 31.0834 36.0252C30.8633 36.274 30.5607 36.3846 30.2857 36.3846Z" fill="#3D8CFF"/>
<path d="M61.4241 49.1302C59.4985 49.1302 56.1976 48.9367 52.2366 47.8308C46.515 46.2272 38.3178 42.3842 31.661 33.1222C31.3309 32.6521 31.441 31.9886 31.9086 31.6568C32.3762 31.325 33.0364 31.4356 33.3665 31.9057C39.6382 40.6424 47.3678 44.2919 52.7317 45.8125C58.5633 47.4437 62.992 47.0014 63.047 47.0014C63.6246 46.9461 64.1198 47.3608 64.2023 47.9414C64.2573 48.522 63.8447 49.0196 63.267 49.1026C63.157 49.0749 62.5243 49.1302 61.4241 49.1302Z" fill="#3D8CFF"/>
<path d="M32.4862 33.5369C32.1562 33.5369 31.8536 33.3986 31.6335 33.0945C30.9458 32.1268 30.2306 31.2145 29.4879 30.3297C29.1028 29.8874 29.1579 29.2238 29.598 28.8644C30.0381 28.4773 30.6983 28.5326 31.0559 28.975C31.8261 29.8874 32.5963 30.855 33.3115 31.878C33.6416 32.348 33.5315 33.0116 33.0639 33.3433C32.9264 33.4816 32.7063 33.5369 32.4862 33.5369ZM27.1773 27.482C26.9298 27.482 26.6822 27.3991 26.4621 27.2055C25.6094 26.4037 24.7017 25.6573 23.7939 24.9661C23.3263 24.6066 23.2438 23.9707 23.6014 23.5007C23.959 23.0307 24.5916 22.9478 25.0593 23.3072C26.022 24.0537 26.9848 24.8555 27.865 25.6849C28.2776 26.072 28.3051 26.7355 27.92 27.1779C27.7275 27.3714 27.4524 27.482 27.1773 27.482ZM20.7131 22.6989C20.548 22.6989 20.3555 22.6436 20.1904 22.5607C19.2002 21.9801 18.1549 21.4548 17.1096 20.9848C16.587 20.7359 16.3394 20.1277 16.587 19.6024C16.8345 19.0771 17.4397 18.8282 17.9623 19.0771C19.0901 19.5747 20.1904 20.1553 21.2357 20.7636C21.7309 21.0401 21.8959 21.7036 21.6208 22.2013C21.4283 22.5054 21.0707 22.6989 20.7131 22.6989ZM13.3411 19.4918C13.2311 19.4918 13.1485 19.4641 13.0385 19.4365C11.9382 19.1047 10.8104 18.8006 9.68262 18.5794C9.10496 18.4688 8.74736 17.9159 8.85739 17.3353C8.96742 16.7547 9.51757 16.3952 10.0952 16.5058C11.3056 16.7547 12.4884 17.0588 13.6712 17.4182C14.2213 17.5841 14.5239 18.1647 14.3589 18.7177C14.1938 19.1877 13.7812 19.4918 13.3411 19.4918ZM1.87051 18.0265C1.34787 18.0265 0.880245 17.6394 0.82523 17.0864C0.770215 16.5058 1.18283 16.0082 1.76048 15.9252C1.78799 15.9252 2.44817 15.8423 3.54846 15.8423C4.18113 15.8423 4.84131 15.8699 5.50149 15.8976C6.07914 15.9252 6.51926 16.4229 6.46425 17.0035C6.43674 17.5841 5.94161 18.0265 5.36395 17.9712C4.75879 17.9988 4.12612 17.9712 3.54846 17.9712C2.5582 17.9712 1.98054 18.0265 1.98054 18.0265C1.95303 18.0265 1.89802 18.0265 1.87051 18.0265Z" fill="#3D8CFF"/>
<path d="M32.4862 33.5645C32.2662 33.5645 32.0736 33.5092 31.8811 33.371C31.4135 33.0392 31.3034 32.3757 31.6335 31.9057C38.2903 22.616 46.515 18.773 52.209 17.197C58.4257 15.4829 63.0195 15.9529 63.212 15.9529C63.7897 16.0082 64.2023 16.5335 64.1473 17.1141C64.0922 17.6947 63.5696 18.1094 62.992 18.0541C62.9369 18.0541 58.5358 17.6117 52.6767 19.243C47.3127 20.7636 39.5831 24.3855 33.3115 33.1498C33.1464 33.3986 32.8163 33.5645 32.4862 33.5645Z" fill="#3D8CFF"/>
</svg>
