<?xml version="1.0" encoding="utf-8"?>
<!-- Generator: Adobe Illustrator 25.2.3, SVG Export Plug-In . SVG Version: 6.00 Build 0)  -->
<svg version="1.1" id="Layer_1" xmlns="http://www.w3.org/2000/svg" xmlns:xlink="http://www.w3.org/1999/xlink" x="0px" y="0px"
	 viewBox="0 0 900 900" style="enable-background:new 0 0 900 900;" xml:space="preserve">
<style type="text/css">
	.st0{fill:#999999;}
	.st1{fill:#73ACFF;}
	.st2{fill:#FFFFFF;}
	.st3{fill:#2B2B2B;}
	.st4{fill:none;stroke:#000000;stroke-width:3;stroke-miterlimit:10;}
	.st5{fill:none;stroke:#000000;stroke-width:4;stroke-miterlimit:10;}
	.st6{fill:none;stroke:#FFFFFF;stroke-width:3;stroke-miterlimit:10;}
	.st7{fill:#E60338;}
	.st8{fill:#E2E2E2;}
	.st9{fill:none;stroke:#000000;stroke-width:14;stroke-linecap:round;stroke-linejoin:round;stroke-miterlimit:10;}
	.st10{fill:none;stroke:#000000;stroke-width:9;stroke-linecap:round;stroke-linejoin:round;stroke-miterlimit:10;}
	.st11{fill:none;stroke:#000000;stroke-width:11;stroke-linecap:round;stroke-linejoin:round;stroke-miterlimit:10;}
	.st12{fill:#020202;}
	.st13{fill:none;stroke:#000000;stroke-width:7;stroke-linecap:round;stroke-linejoin:round;stroke-miterlimit:10;}
	.st14{fill:#FFFFFF;stroke:#000000;stroke-width:7;stroke-linecap:round;stroke-linejoin:round;stroke-miterlimit:10;}
	.st15{fill:#999999;stroke:#000000;stroke-width:7;stroke-linecap:round;stroke-linejoin:round;stroke-miterlimit:10;}
	.st16{fill:#CC9A0D;stroke:#000000;stroke-width:7;stroke-linecap:round;stroke-linejoin:round;stroke-miterlimit:10;}
	.st17{fill:#195091;stroke:#000000;stroke-width:7;stroke-linecap:round;stroke-linejoin:round;stroke-miterlimit:10;}
	.st18{fill:#3F8FEF;stroke:#000000;stroke-width:7;stroke-linecap:round;stroke-linejoin:round;stroke-miterlimit:10;}
	.st19{fill:#2975B2;stroke:#000000;stroke-width:7;stroke-linecap:round;stroke-linejoin:round;stroke-miterlimit:10;}
	.st20{fill:#D8C51D;stroke:#000000;stroke-width:7;stroke-linecap:round;stroke-linejoin:round;stroke-miterlimit:10;}
	.st21{fill:#FCEE21;stroke:#000000;stroke-width:7;stroke-linecap:round;stroke-linejoin:round;stroke-miterlimit:10;}
	.st22{fill:#E6E6E6;stroke:#000000;stroke-width:7;stroke-linecap:round;stroke-linejoin:round;stroke-miterlimit:10;}
	.st23{fill:none;stroke:#000000;stroke-width:10;stroke-linecap:round;stroke-linejoin:round;stroke-miterlimit:10;}
	.st24{fill:#FCEE21;stroke:#000000;stroke-width:10;stroke-linecap:round;stroke-linejoin:round;stroke-miterlimit:10;}
	.st25{fill:#73ACFF;stroke:#000000;stroke-width:10;stroke-miterlimit:10;}
	.st26{fill:#FFFFFF;stroke:#000000;stroke-width:10;stroke-linecap:round;stroke-linejoin:round;stroke-miterlimit:10;}
</style>
<g>
	<polyline class="st13" points="623.23,145.7 387.8,9.87 270.09,77.78 505.52,213.61 623.23,145.7 	"/>
	<polygon class="st13" points="505.52,686.54 505.52,890.13 623.23,822.22 623.23,753.59 	"/>
	<line class="st13" x1="390.79" y1="481.18" x2="444.83" y2="450"/>
	<polygon class="st13" points="444.36,650.4 211.9,784.51 211.9,513.89 444.83,379.51 444.83,450 390.79,481.18 390.79,619.49 	"/>
	<polyline class="st13" points="505.52,485.01 444.83,450 444.83,379.51 	"/>
	<polygon class="st13" points="794.89,446.11 794.89,177.55 623.23,276.58 623.23,347.08 	"/>
	<line class="st13" x1="623.23" y1="753.59" x2="623.23" y2="615.29"/>
	<polyline class="st13" points="623.23,615.29 855.68,481.18 855.68,619.49 623.23,753.59 	"/>
	<polygon class="st13" points="215.28,379.93 44.32,281.3 270.09,151.04 270.09,348.34 	"/>
	<line class="st13" x1="855.68" y1="481.18" x2="623.23" y2="347.08"/>
	<polygon class="st13" points="390.79,481.18 623.23,615.29 855.68,481.18 623.23,347.08 623.23,417.1 505.52,485.01 444.83,450 	
		"/>
	<polygon class="st13" points="623.23,753.59 390.79,619.49 390.79,481.18 623.23,615.29 	"/>
	<polygon class="st13" points="97.51,448.65 44.32,417.96 44.32,418.46 44.32,281.3 215.28,379.93 97.51,447.9 	"/>
	<polygon class="st13" points="97.51,447.9 97.51,718.52 211.9,784.51 211.9,513.89 	"/>
	<polygon class="st13" points="97.51,447.9 330.45,313.51 444.83,379.51 211.9,513.89 	"/>
	<polygon class="st13" points="623.23,276.58 794.89,177.55 680.5,111.56 622.2,145.19 623.23,145.7 	"/>
	<polygon class="st13" points="505.52,485.01 505.52,213.61 623.23,145.7 623.23,417.1 	"/>
	<polygon class="st13" points="267.18,752.62 505.52,890.13 505.52,686.54 444.36,650.4 	"/>
	<polygon class="st13" points="270.09,348.34 270.09,77.78 505.52,213.61 505.52,485.01 444.83,450 444.83,379.51 330.45,313.51 	
		"/>
</g>
</svg>
