<svg width="60" height="60" viewBox="0 0 60 60" fill="none" xmlns="http://www.w3.org/2000/svg">
<g clip-path="url(#clip0_252_108)">
<path d="M30.1 43.1839C28.37 43.2339 26.67 43.0299 25.042 42.4299C22.908 41.6439 22.282 40.4839 22.73 38.2599C23.396 34.9399 26.674 32.4959 30.336 32.5859C33.842 32.6719 36.946 35.2579 37.48 38.5379C37.796 40.4759 37.22 41.5339 35.368 42.3099C33.686 43.0159 31.906 43.1979 30.1 43.1839ZM30.472 41.2859C31.004 41.2739 32.02 41.2999 33.01 41.0419C33.498 40.9139 33.982 40.7759 34.468 40.6479C35.556 40.3639 35.834 39.6659 35.596 38.6159C35.058 36.2499 32.686 34.4579 30.044 34.4679C27.386 34.4779 25.112 36.2799 24.558 38.6859C24.312 39.7519 24.662 40.2839 25.632 40.6339C27.05 41.1479 28.506 41.2979 30.472 41.2859Z" fill="#353535"/>
<path d="M19.39 38.4778C17.848 38.3378 16.224 38.1298 14.758 37.3018C13.456 36.5658 13.012 35.6558 13.238 34.1918C13.71 31.1458 15.488 29.1538 18.37 28.2558C21.39 27.3138 24.076 28.0538 26.292 30.3338C26.532 30.5818 27.192 31.0038 26.692 31.2838C26.218 31.5478 25.604 32.3838 24.866 31.5558C24.03 30.6178 22.95 30.0998 21.732 29.8598C18.694 29.2578 15.688 31.2778 15.128 34.2118C14.96 35.0938 15.284 35.5418 16.022 35.8458C17.342 36.3898 18.726 36.5478 20.138 36.6238C20.44 36.6398 21.268 36.1478 21.088 37.0698C20.974 37.6558 21.204 38.7258 19.952 38.4838C19.804 38.4518 19.642 38.4778 19.39 38.4778Z" fill="#353535"/>
<path d="M38.814 36.6138C40.536 36.6038 42.098 36.5558 43.598 36.0618C45.088 35.5718 45.344 35.0418 44.854 33.5198C43.622 29.7018 38.604 28.5178 35.526 31.3118C35.214 31.5958 35.038 32.0678 34.378 31.7758C33.072 31.1958 33.004 31.1298 34.054 30.1318C36.432 27.8698 39.234 27.2658 42.272 28.4158C44.996 29.4478 46.624 31.4778 46.946 34.4598C47.086 35.7498 46.566 36.6638 45.47 37.2678C43.708 38.2398 41.772 38.5358 39.808 38.4418C38.742 38.3898 39.34 37.2398 38.814 36.6138Z" fill="#353535"/>
<path d="M20.726 18.694C22.826 18.712 24.526 20.4 24.548 22.49C24.57 24.596 22.796 26.386 20.68 26.394C18.546 26.402 16.828 24.662 16.836 22.504C16.846 20.332 18.536 18.676 20.726 18.694ZM22.632 22.522C22.628 21.462 21.766 20.602 20.692 20.59C19.554 20.578 18.696 21.452 18.728 22.59C18.76 23.664 19.63 24.494 20.704 24.476C21.768 24.456 22.636 23.576 22.632 22.522Z" fill="#353535"/>
<path d="M39.476 18.6958C41.634 18.6918 43.372 20.4158 43.356 22.5458C43.34 24.6638 41.546 26.4258 39.438 26.3938C37.356 26.3638 35.65 24.6478 35.63 22.5678C35.61 20.4078 37.306 18.6998 39.476 18.6958ZM39.438 20.5918C38.358 20.6078 37.51 21.4678 37.516 22.5338C37.524 23.5938 38.392 24.4638 39.458 24.4758C40.558 24.4878 41.49 23.5418 41.448 22.4578C41.406 21.3998 40.518 20.5758 39.438 20.5918Z" fill="#353535"/>
<path d="M30.126 23.398C32.278 23.406 34.006 25.15 33.97 27.278C33.934 29.39 32.124 31.138 30.02 31.096C27.96 31.054 26.242 29.296 26.248 27.236C26.254 25.08 27.962 23.39 30.126 23.398ZM30.072 25.288C28.992 25.3 28.138 26.152 28.134 27.222C28.13 28.282 28.996 29.164 30.06 29.182C31.164 29.2 32.102 28.264 32.068 27.176C32.036 26.118 31.148 25.276 30.072 25.288Z" fill="#353535"/>
<path d="M51.49 9.42001C51.468 9.84401 51.206 10.124 50.926 10.404C48.718 12.606 46.514 14.812 44.312 17.02C43.834 17.498 43.318 17.884 42.716 17.27C42.114 16.654 42.524 16.15 43 15.678C45.236 13.448 47.466 11.214 49.696 8.97801C50.042 8.63201 50.396 8.36401 50.93 8.59601C51.302 8.76001 51.426 9.06401 51.49 9.42001Z" fill="#353535"/>
<path d="M17.46 16.5399C17.496 17.1579 16.826 17.6399 16.182 17.3579C15.942 17.2539 15.736 17.0519 15.546 16.8619C13.388 14.7159 11.24 12.5559 9.07803 10.4119C8.59003 9.92985 8.20403 9.40585 8.78003 8.81185C9.35003 8.22185 9.89203 8.55385 10.384 9.04985C12.556 11.2379 14.74 13.4159 16.924 15.5939C17.18 15.8459 17.412 16.1019 17.46 16.5399Z" fill="#353535"/>
<path d="M17.46 43.4339C17.452 43.8619 17.188 44.1419 16.908 44.4239C14.724 46.6039 12.544 48.7859 10.37 50.9739C9.87799 51.4699 9.33999 51.7959 8.76999 51.1799C8.26199 50.6319 8.54999 50.1199 9.01599 49.6579C11.232 47.4559 13.438 45.2439 15.646 43.0339C15.992 42.6859 16.35 42.4179 16.882 42.6239C17.264 42.7699 17.396 43.0739 17.46 43.4339Z" fill="#353535"/>
<path d="M51.512 50.518C51.54 51.184 50.842 51.664 50.208 51.382C49.97 51.276 49.762 51.076 49.572 50.886C47.416 48.738 45.268 46.58 43.11 44.432C42.626 43.952 42.24 43.424 42.828 42.832C43.414 42.242 43.946 42.616 44.43 43.102C46.606 45.286 48.792 47.46 50.978 49.636C51.232 49.888 51.458 50.148 51.512 50.518Z" fill="#353535"/>
<path d="M30.94 3.4579C30.942 4.2339 30.946 5.0119 30.94 5.7879C30.934 6.4279 30.632 6.8459 29.962 6.8279C29.358 6.8119 29.066 6.4179 29.064 5.8279C29.058 4.2359 29.058 2.6419 29.064 1.0499C29.066 0.409903 29.386 -0.0140974 30.04 0.00190256C30.632 0.0159026 30.928 0.427903 30.936 1.0119C30.948 1.8259 30.94 2.6419 30.94 3.4579Z" fill="#353535"/>
<path d="M3.364 30.9398C2.588 30.9398 1.81 30.9498 1.034 30.9358C0.398004 30.9238 -0.0319965 30.6078 0.00200349 29.9478C0.0320035 29.3638 0.440003 29.0658 1.028 29.0658C2.62 29.0618 4.214 29.0598 5.806 29.0658C6.456 29.0678 6.854 29.3938 6.828 30.0578C6.804 30.6618 6.396 30.9358 5.812 30.9418C4.996 30.9458 4.18 30.9398 3.364 30.9398Z" fill="#353535"/>
<path d="M56.486 30.9379C55.71 30.9379 54.932 30.9519 54.156 30.9339C53.576 30.9199 53.18 30.6379 53.172 30.0219C53.164 29.4159 53.528 29.0779 54.116 29.0699C55.748 29.0499 57.378 29.0579 59.01 29.0639C59.608 29.0659 59.994 29.3919 60 29.9759C60.006 30.6299 59.572 30.9319 58.934 30.9359C58.118 30.9419 57.302 30.9379 56.486 30.9379Z" fill="#353535"/>
<path d="M29.064 56.582C29.064 55.766 29.046 54.95 29.07 54.134C29.086 53.55 29.396 53.172 30.004 53.17C30.62 53.166 30.926 53.552 30.932 54.134C30.948 55.766 30.948 57.398 30.932 59.028C30.926 59.618 30.586 60 29.998 60C29.412 60 29.078 59.626 29.066 59.03C29.054 58.214 29.064 57.398 29.064 56.582Z" fill="#353535"/>
</g>
<defs>
<clipPath id="clip0_252_108">
<rect width="60" height="60" fill="white"/>
</clipPath>
</defs>
</svg>
