<svg width="60" height="60" viewBox="0 0 60 60" fill="none" xmlns="http://www.w3.org/2000/svg">
<path d="M27.968 29.0621C36.834 29.0621 45.698 29.0621 54.564 29.0621C55.078 29.0621 55.58 29.2001 55.648 28.3341C55.696 27.7281 56.314 27.4781 56.924 27.7801C57.76 28.1961 58.594 28.6301 59.384 29.1261C60.208 29.6441 60.204 30.3621 59.376 30.8801C58.618 31.3541 57.81 31.7481 57.022 32.1761C56.426 32.5001 55.75 32.3421 55.692 31.7641C55.584 30.6941 54.912 30.9441 54.318 30.9441C36.822 30.9401 19.324 30.9421 1.82802 30.9361C1.08602 30.9361 0.0340227 31.1881 0.00202272 30.0541C-0.0339773 28.8141 1.06402 29.0701 1.84202 29.0701C10.55 29.0581 19.258 29.0621 27.968 29.0621Z" fill="#353535"/>
<path d="M33.972 32.892C33.592 34.17 33.088 35.376 32.206 36.382C30.86 37.92 29.026 37.896 27.678 36.342C26.822 35.354 26.374 34.16 25.916 32.898C27.122 32.674 28.066 32.656 28.47 34.082C28.664 34.764 29.082 35.554 29.932 35.576C30.798 35.6 31.228 34.812 31.414 34.128C31.806 32.698 32.744 32.624 33.972 32.892Z" fill="#353535"/>
<path d="M17.988 27.0761C18.376 25.7941 18.89 24.5521 19.824 23.5301C21.094 22.1401 22.826 22.1281 24.108 23.4961C25.058 24.5101 25.57 25.7601 26 27.0761C24.718 27.4341 23.832 27.2161 23.424 25.8141C23.234 25.1641 22.822 24.4321 22.018 24.4201C21.148 24.4081 20.734 25.1881 20.53 25.8701C20.12 27.2421 19.242 27.4361 17.988 27.0761Z" fill="#353535"/>
<path d="M33.894 27.124C34.374 25.744 34.874 24.486 35.832 23.476C37.088 22.152 38.774 22.152 40.044 23.458C40.794 24.23 41.414 25.422 41.898 27.036C40.196 27.402 40.198 27.4 39.466 25.944C39.326 25.668 39.178 25.39 38.998 25.14C38.276 24.142 37.614 24.138 36.878 25.126C36.716 25.342 36.588 25.586 36.462 25.826C35.716 27.248 35.718 27.25 33.894 27.124Z" fill="#353535"/>
<path d="M18.034 32.9141C17.602 34.2561 17.088 35.5461 16.088 36.5741C14.854 37.8421 13.202 37.8261 11.96 36.5681C11.132 35.7301 10.426 34.3621 10.064 32.8961C11.22 32.6241 12.198 32.6721 12.534 34.1141C12.61 34.4361 12.852 34.7381 13.07 35.0061C13.732 35.8201 14.312 35.8181 14.97 35.0001C15.186 34.7301 15.426 34.4301 15.504 34.1061C15.85 32.6801 16.82 32.6201 18.034 32.9141Z" fill="#353535"/>
<path d="M41.872 32.8862C43.15 32.6462 44.122 32.7242 44.454 34.1582C44.544 34.5442 44.876 34.8982 45.154 35.2142C45.632 35.7542 46.18 35.7502 46.66 35.2202C46.942 34.9082 47.264 34.5502 47.358 34.1622C47.698 32.7482 48.646 32.6202 49.924 32.8982C49.498 34.2262 48.984 35.4962 48.006 36.5242C46.748 37.8502 45.06 37.8482 43.798 36.5322C42.832 35.5262 42.348 34.2622 41.872 32.8862Z" fill="#353535"/>
<path d="M10.064 27.1021C8.842 27.3701 7.906 27.3121 7.508 25.8801C7.292 25.1021 6.77 24.4541 5.804 24.3121C5.312 24.2401 5.006 23.7941 5.142 23.2461C5.268 22.7361 5.638 22.4741 6.18 22.4981C6.962 22.5321 7.6 22.8721 8.128 23.4321C9.114 24.4761 9.634 25.7561 10.064 27.1021Z" fill="#353535"/>
<path d="M49.87 27.0822C50.276 25.7942 50.782 24.5882 51.664 23.5702C52.194 22.9582 52.844 22.5662 53.668 22.5002C54.258 22.4542 54.672 22.7062 54.79 23.2802C54.902 23.8222 54.584 24.2482 54.086 24.3222C53.17 24.4562 52.668 25.0722 52.45 25.8062C52.05 27.1462 51.216 27.4362 49.87 27.0822Z" fill="#353535"/>
</svg>
