<svg width="264" height="93" viewBox="0 0 264 93" fill="none" xmlns="http://www.w3.org/2000/svg">
<path d="M252.548 0H33.7101C27.4673 0 22.4007 4.62516 22.4007 10.324V55.5776C21.609 63.5615 18.4801 71.222 13.3531 77.733C11.34 80.2864 9.05552 82.6541 6.55237 84.8152C5.4742 85.7444 4.35834 86.6392 3.20477 87.4857C2.04367 88.3461 0.513127 89.1513 0.543286 90.6862C0.565904 91.7943 1.37264 92.7647 2.60914 92.9093H252.548C258.79 92.9093 263.857 88.2841 263.857 82.5853V10.324C263.857 4.62516 258.79 0 252.548 0Z" fill="white"/>
<path d="M199.955 83.683C199.883 83.683 199.79 83.674 199.676 83.656C199.562 83.638 199.466 83.614 199.388 83.584L199.496 82.9C199.556 82.918 199.625 82.933 199.703 82.945C199.781 82.957 199.853 82.963 199.919 82.963C200.207 82.963 200.411 82.873 200.531 82.693C200.657 82.519 200.72 82.261 200.72 81.919V77.32H201.557V81.91C201.557 82.51 201.419 82.954 201.143 83.242C200.873 83.536 200.477 83.683 199.955 83.683ZM201.134 76.474C200.984 76.474 200.855 76.426 200.747 76.33C200.645 76.228 200.594 76.093 200.594 75.925C200.594 75.757 200.645 75.625 200.747 75.529C200.855 75.427 200.984 75.376 201.134 75.376C201.284 75.376 201.41 75.427 201.512 75.529C201.62 75.625 201.674 75.757 201.674 75.925C201.674 76.093 201.62 76.228 201.512 76.33C201.41 76.426 201.284 76.474 201.134 76.474Z" fill="#C9C9C9"/>
<path d="M206.722 81.865C206.53 81.913 206.275 81.964 205.957 82.018C205.645 82.072 205.282 82.099 204.868 82.099C204.508 82.099 204.205 82.048 203.959 81.946C203.713 81.838 203.515 81.688 203.365 81.496C203.215 81.304 203.107 81.079 203.041 80.821C202.975 80.557 202.942 80.266 202.942 79.948V77.32H203.779V79.768C203.779 80.338 203.869 80.746 204.049 80.992C204.229 81.238 204.532 81.361 204.958 81.361C205.048 81.361 205.141 81.358 205.237 81.352C205.333 81.346 205.423 81.34 205.507 81.334C205.591 81.322 205.666 81.313 205.732 81.307C205.804 81.295 205.855 81.283 205.885 81.271V77.32H206.722V81.865Z" fill="#C9C9C9"/>
<path d="M209.253 81.397C209.595 81.397 209.847 81.352 210.009 81.262C210.177 81.172 210.261 81.028 210.261 80.83C210.261 80.626 210.18 80.464 210.018 80.344C209.856 80.224 209.589 80.089 209.217 79.939C209.037 79.867 208.863 79.795 208.695 79.723C208.533 79.645 208.392 79.555 208.272 79.453C208.152 79.351 208.056 79.228 207.984 79.084C207.912 78.94 207.876 78.763 207.876 78.553C207.876 78.139 208.029 77.812 208.335 77.572C208.641 77.326 209.058 77.203 209.586 77.203C209.718 77.203 209.85 77.212 209.982 77.23C210.114 77.242 210.237 77.26 210.351 77.284C210.465 77.302 210.564 77.323 210.648 77.347C210.738 77.371 210.807 77.392 210.855 77.41L210.702 78.13C210.612 78.082 210.471 78.034 210.279 77.986C210.087 77.932 209.856 77.905 209.586 77.905C209.352 77.905 209.148 77.953 208.974 78.049C208.8 78.139 208.713 78.283 208.713 78.481C208.713 78.583 208.731 78.673 208.767 78.751C208.809 78.829 208.869 78.901 208.947 78.967C209.031 79.027 209.133 79.084 209.253 79.138C209.373 79.192 209.517 79.249 209.685 79.309C209.907 79.393 210.105 79.477 210.279 79.561C210.453 79.639 210.6 79.732 210.72 79.84C210.846 79.948 210.942 80.08 211.008 80.236C211.074 80.386 211.107 80.572 211.107 80.794C211.107 81.226 210.945 81.553 210.621 81.775C210.303 81.997 209.847 82.108 209.253 82.108C208.839 82.108 208.515 82.072 208.281 82C208.047 81.934 207.888 81.883 207.804 81.847L207.957 81.127C208.053 81.163 208.206 81.217 208.416 81.289C208.626 81.361 208.905 81.397 209.253 81.397Z" fill="#C9C9C9"/>
<path d="M212.964 77.32H214.737V78.022H212.964V80.182C212.964 80.416 212.982 80.611 213.018 80.767C213.054 80.917 213.108 81.037 213.18 81.127C213.252 81.211 213.342 81.271 213.45 81.307C213.558 81.343 213.684 81.361 213.828 81.361C214.08 81.361 214.281 81.334 214.431 81.28C214.587 81.22 214.695 81.178 214.755 81.154L214.917 81.847C214.833 81.889 214.686 81.94 214.476 82C214.266 82.066 214.026 82.099 213.756 82.099C213.438 82.099 213.174 82.06 212.964 81.982C212.76 81.898 212.595 81.775 212.469 81.613C212.343 81.451 212.253 81.253 212.199 81.019C212.151 80.779 212.127 80.503 212.127 80.191V76.015L212.964 75.871V77.32Z" fill="#C9C9C9"/>
<path d="M217.885 77.455C218.077 77.407 218.332 77.356 218.65 77.302C218.968 77.248 219.334 77.221 219.748 77.221C220.12 77.221 220.429 77.275 220.675 77.383C220.921 77.485 221.116 77.632 221.26 77.824C221.41 78.01 221.515 78.235 221.575 78.499C221.635 78.763 221.665 79.054 221.665 79.372V82H220.828V79.552C220.828 79.264 220.807 79.018 220.765 78.814C220.729 78.61 220.666 78.445 220.576 78.319C220.486 78.193 220.366 78.103 220.216 78.049C220.066 77.989 219.88 77.959 219.658 77.959C219.568 77.959 219.475 77.962 219.379 77.968C219.283 77.974 219.19 77.983 219.1 77.995C219.016 78.001 218.938 78.01 218.866 78.022C218.8 78.034 218.752 78.043 218.722 78.049V82H217.885V77.455Z" fill="#C9C9C9"/>
<path d="M227.184 79.66C227.184 80.032 227.13 80.368 227.022 80.668C226.914 80.968 226.761 81.226 226.563 81.442C226.371 81.658 226.14 81.826 225.87 81.946C225.6 82.06 225.306 82.117 224.988 82.117C224.67 82.117 224.376 82.06 224.106 81.946C223.836 81.826 223.602 81.658 223.404 81.442C223.212 81.226 223.062 80.968 222.954 80.668C222.846 80.368 222.792 80.032 222.792 79.66C222.792 79.294 222.846 78.961 222.954 78.661C223.062 78.355 223.212 78.094 223.404 77.878C223.602 77.662 223.836 77.497 224.106 77.383C224.376 77.263 224.67 77.203 224.988 77.203C225.306 77.203 225.6 77.263 225.87 77.383C226.14 77.497 226.371 77.662 226.563 77.878C226.761 78.094 226.914 78.355 227.022 78.661C227.13 78.961 227.184 79.294 227.184 79.66ZM226.311 79.66C226.311 79.132 226.191 78.715 225.951 78.409C225.717 78.097 225.396 77.941 224.988 77.941C224.58 77.941 224.256 78.097 224.016 78.409C223.782 78.715 223.665 79.132 223.665 79.66C223.665 80.188 223.782 80.608 224.016 80.92C224.256 81.226 224.58 81.379 224.988 81.379C225.396 81.379 225.717 81.226 225.951 80.92C226.191 80.608 226.311 80.188 226.311 79.66Z" fill="#C9C9C9"/>
<path d="M232.072 82C231.904 81.568 231.724 81.076 231.532 80.524C231.346 79.966 231.175 79.387 231.019 78.787C230.863 79.387 230.692 79.966 230.506 80.524C230.32 81.076 230.143 81.568 229.975 82H229.246C228.97 81.382 228.7 80.677 228.436 79.885C228.172 79.093 227.923 78.238 227.689 77.32H228.589C228.649 77.602 228.721 77.908 228.805 78.238C228.889 78.568 228.976 78.898 229.066 79.228C229.162 79.558 229.261 79.876 229.363 80.182C229.465 80.488 229.561 80.755 229.651 80.983C229.753 80.701 229.852 80.404 229.948 80.092C230.05 79.774 230.146 79.456 230.236 79.138C230.326 78.814 230.41 78.499 230.488 78.193C230.572 77.881 230.644 77.59 230.704 77.32H231.397C231.451 77.59 231.517 77.881 231.595 78.193C231.673 78.499 231.757 78.814 231.847 79.138C231.937 79.456 232.03 79.774 232.126 80.092C232.228 80.404 232.33 80.701 232.432 80.983C232.522 80.755 232.615 80.488 232.711 80.182C232.813 79.876 232.912 79.558 233.008 79.228C233.104 78.898 233.194 78.568 233.278 78.238C233.362 77.908 233.434 77.602 233.494 77.32H234.358C234.124 78.238 233.875 79.093 233.611 79.885C233.347 80.677 233.077 81.382 232.801 82H232.072Z" fill="#C9C9C9"/>
<path d="M242.797 82.4045C242.709 82.4045 242.621 82.3803 242.542 82.3295L240.222 80.8435C240 80.7007 239.933 80.4013 240.074 80.1754C240.215 79.9496 240.511 79.8826 240.733 80.0254L242.649 81.2525L246.41 75.2251C246.551 74.9992 246.846 74.9323 247.069 75.0751C247.292 75.2178 247.359 75.5172 247.217 75.7431L243.201 82.1795C243.11 82.3247 242.955 82.4045 242.797 82.4045Z" fill="#C9C9C9"/>
<path d="M248.797 82.4045C248.709 82.4045 248.621 82.3803 248.542 82.3295L246.222 80.8435C246 80.7007 245.933 80.4013 246.074 80.1754C246.215 79.9496 246.511 79.8826 246.733 80.0254L248.649 81.2525L252.41 75.2251C252.551 74.9992 252.846 74.9323 253.069 75.0751C253.292 75.2178 253.359 75.5172 253.217 75.7431L249.201 82.1795C249.11 82.3247 248.955 82.4045 248.797 82.4045Z" fill="#C9C9C9"/>
</svg>
