<svg width="64" height="64" viewBox="0 0 64 64" fill="none" xmlns="http://www.w3.org/2000/svg">
<g clip-path="url(#clip0_146_271)">
<path d="M63.3247 14.1539V19.8542" stroke="white" stroke-miterlimit="10" stroke-linecap="round" stroke-linejoin="round"/>
<path d="M0.675781 25.7493V31.4503" stroke="white" stroke-miterlimit="10" stroke-linecap="round" stroke-linejoin="round"/>
<path d="M42.0496 1.87946L63.3247 14.1539L0.675781 25.7493L42.0496 1.87946Z" stroke="white" stroke-miterlimit="10" stroke-linecap="round" stroke-linejoin="round"/>
<path d="M38.5439 49.4108L63.3247 44.8242L54.9095 39.9694" stroke="white" stroke-miterlimit="10" stroke-linecap="round" stroke-linejoin="round"/>
<path d="M23.9961 57.8041L63.3248 50.5244V44.8242L38.544 49.4108L23.9961 57.8041Z" stroke="white" stroke-miterlimit="10" stroke-linecap="round" stroke-linejoin="round"/>
<path d="M63.3247 14.1539L0.675781 25.7493V31.4503L63.3247 19.8542V14.1539Z" stroke="white" stroke-miterlimit="10" stroke-linecap="round" stroke-linejoin="round"/>
<path d="M21.9507 53.2835L63.3246 29.4137L50.7798 22.176L37.9258 24.5554L21.9507 53.2835Z" stroke="white" stroke-miterlimit="10" stroke-linecap="round" stroke-linejoin="round"/>
<path d="M21.9507 58.9838V53.2835L63.3246 29.4137V35.1139L21.9507 58.9838Z" stroke="white" stroke-miterlimit="10" stroke-linecap="round" stroke-linejoin="round"/>
<path d="M22.4472 52.3904L29.4324 39.8293L0.675781 56.4195L22.4472 52.3904Z" stroke="white" stroke-miterlimit="10" stroke-linecap="round" stroke-linejoin="round"/>
<path d="M21.9508 58.1824L0.675781 62.1205L21.9508 58.1824ZM21.9508 58.1824V53.2835L22.4472 52.3904L0.675781 56.4195V62.1205" stroke="white" stroke-miterlimit="10" stroke-linecap="round" stroke-linejoin="round"/>
</g>
<defs>
<clipPath id="clip0_146_271">
<rect width="64" height="64" fill="white"/>
</clipPath>
</defs>
</svg>
