<?xml version="1.0" encoding="utf-8"?>
<!-- Generator: Adobe Illustrator 25.2.3, SVG Export Plug-In . SVG Version: 6.00 Build 0)  -->
<svg version="1.1" id="Layer_1" xmlns="http://www.w3.org/2000/svg" xmlns:xlink="http://www.w3.org/1999/xlink" x="0px" y="0px"
	 viewBox="0 0 900 900" style="enable-background:new 0 0 900 900;" xml:space="preserve">
<style type="text/css">
	.st0{fill:#999999;}
	.st1{fill:#73ACFF;}
	.st2{fill:#FFFFFF;}
	.st3{fill:#2B2B2B;}
	.st4{fill:none;stroke:#000000;stroke-width:3;stroke-miterlimit:10;}
	.st5{fill:none;stroke:#000000;stroke-width:4;stroke-miterlimit:10;}
	.st6{fill:none;stroke:#FFFFFF;stroke-width:3;stroke-miterlimit:10;}
	.st7{fill:#E60338;}
	.st8{fill:#E2E2E2;}
	.st9{fill:none;stroke:#000000;stroke-width:14;stroke-linecap:round;stroke-linejoin:round;stroke-miterlimit:10;}
	.st10{fill:none;stroke:#000000;stroke-width:9;stroke-linecap:round;stroke-linejoin:round;stroke-miterlimit:10;}
	.st11{fill:none;stroke:#000000;stroke-width:11;stroke-linecap:round;stroke-linejoin:round;stroke-miterlimit:10;}
	.st12{fill:#020202;}
	.st13{fill:none;stroke:#FFFFFF;stroke-width:5;stroke-linecap:round;stroke-linejoin:round;stroke-miterlimit:10;}
</style>
<path d="M863.95,624.78c0.07-0.09,0.13-0.19,0.19-0.28c0.07-0.11,0.13-0.21,0.2-0.32c0.06-0.11,0.13-0.23,0.19-0.34
	c0.05-0.1,0.1-0.2,0.14-0.3c0.06-0.13,0.12-0.26,0.17-0.4c0.04-0.09,0.07-0.19,0.1-0.29c0.05-0.14,0.09-0.28,0.14-0.42
	c0.03-0.1,0.05-0.2,0.08-0.31c0.03-0.14,0.06-0.27,0.09-0.41c0.02-0.12,0.04-0.25,0.06-0.37c0.02-0.12,0.03-0.24,0.04-0.36
	c0.01-0.15,0.02-0.31,0.02-0.46c0-0.07,0.01-0.14,0.01-0.21V481.33c0-0.03,0-0.05,0-0.08c0-0.1-0.01-0.2-0.01-0.3
	c0-0.1-0.01-0.19-0.02-0.29c-0.01-0.06-0.01-0.12-0.02-0.18c-0.01-0.1-0.03-0.19-0.04-0.29c-0.01-0.09-0.03-0.17-0.04-0.26
	c-0.01-0.07-0.02-0.15-0.04-0.22c-0.02-0.09-0.04-0.17-0.06-0.26c-0.02-0.08-0.04-0.16-0.06-0.24c-0.02-0.08-0.05-0.17-0.07-0.25
	c-0.02-0.07-0.05-0.14-0.08-0.21c-0.03-0.08-0.06-0.16-0.09-0.24c-0.04-0.09-0.07-0.18-0.11-0.27c-0.02-0.06-0.05-0.11-0.08-0.17
	c-0.04-0.09-0.08-0.17-0.13-0.26c-0.05-0.09-0.09-0.18-0.14-0.27c-0.01-0.02-0.02-0.05-0.04-0.07c-0.01-0.03-0.03-0.05-0.05-0.07
	c-0.05-0.09-0.1-0.17-0.16-0.25c-0.05-0.08-0.1-0.16-0.16-0.24c-0.04-0.05-0.07-0.1-0.11-0.15c-0.06-0.08-0.12-0.15-0.18-0.23
	c-0.05-0.07-0.11-0.14-0.17-0.2c-0.05-0.06-0.1-0.12-0.15-0.17c-0.06-0.06-0.12-0.13-0.18-0.19c-0.06-0.06-0.12-0.12-0.18-0.18
	c-0.06-0.06-0.13-0.12-0.19-0.18c-0.05-0.05-0.11-0.1-0.17-0.14c-0.07-0.06-0.13-0.11-0.2-0.17c-0.08-0.06-0.15-0.12-0.23-0.18
	c-0.05-0.04-0.1-0.07-0.15-0.11c-0.08-0.05-0.16-0.11-0.24-0.16c-0.08-0.05-0.17-0.11-0.26-0.16c-0.02-0.01-0.05-0.03-0.07-0.05
	l-57.23-33.02V176.22c0-0.03,0-0.05,0-0.08c0-0.1-0.01-0.2-0.01-0.3c0-0.1-0.01-0.19-0.02-0.29c-0.01-0.06-0.01-0.12-0.02-0.18
	c-0.01-0.1-0.03-0.19-0.04-0.29c-0.01-0.09-0.03-0.17-0.04-0.26c-0.01-0.07-0.02-0.15-0.04-0.22c-0.02-0.09-0.04-0.17-0.06-0.26
	c-0.02-0.08-0.04-0.16-0.06-0.24c-0.02-0.08-0.05-0.17-0.07-0.25c-0.02-0.07-0.05-0.14-0.08-0.21c-0.03-0.08-0.06-0.16-0.09-0.24
	c-0.04-0.09-0.07-0.18-0.11-0.27c-0.02-0.06-0.05-0.11-0.08-0.17c-0.04-0.09-0.08-0.17-0.13-0.26c-0.05-0.09-0.09-0.18-0.14-0.27
	c-0.01-0.02-0.02-0.05-0.04-0.07c-0.01-0.03-0.03-0.05-0.05-0.07c-0.05-0.09-0.1-0.17-0.16-0.25c-0.05-0.08-0.11-0.16-0.16-0.24
	c-0.04-0.05-0.07-0.1-0.11-0.15c-0.06-0.08-0.12-0.15-0.18-0.23c-0.05-0.07-0.11-0.14-0.17-0.2c-0.05-0.06-0.1-0.12-0.15-0.17
	c-0.06-0.06-0.12-0.13-0.18-0.19c-0.06-0.06-0.12-0.12-0.18-0.18c-0.06-0.06-0.13-0.13-0.19-0.19c-0.05-0.05-0.11-0.1-0.17-0.14
	c-0.07-0.06-0.13-0.11-0.2-0.17c-0.08-0.06-0.15-0.12-0.23-0.18c-0.05-0.04-0.1-0.07-0.15-0.11c-0.08-0.05-0.16-0.11-0.24-0.16
	c-0.09-0.06-0.17-0.11-0.26-0.16c-0.02-0.01-0.05-0.03-0.07-0.05l-114.94-66.31c-0.07-0.04-0.13-0.07-0.2-0.1
	c-0.13-0.07-0.26-0.14-0.39-0.2c-0.12-0.05-0.23-0.1-0.35-0.15c-0.11-0.04-0.22-0.09-0.33-0.13c-0.14-0.05-0.28-0.09-0.42-0.13
	c-0.1-0.03-0.19-0.06-0.29-0.08c-0.15-0.04-0.3-0.07-0.45-0.1c-0.09-0.02-0.19-0.04-0.29-0.05c-0.15-0.02-0.29-0.04-0.44-0.05
	c-0.11-0.01-0.21-0.02-0.32-0.02c-0.13-0.01-0.27-0.01-0.4-0.01c-0.12,0-0.24,0-0.36,0.01c-0.12,0.01-0.24,0.02-0.36,0.03
	c-0.14,0.01-0.27,0.03-0.4,0.05c-0.11,0.02-0.21,0.04-0.32,0.06c-0.14,0.03-0.28,0.06-0.42,0.09c-0.11,0.03-0.21,0.06-0.32,0.09
	c-0.13,0.04-0.26,0.08-0.39,0.12c-0.12,0.04-0.24,0.09-0.36,0.14c-0.11,0.04-0.22,0.09-0.32,0.14c-0.14,0.07-0.28,0.14-0.41,0.21
	c-0.06,0.03-0.12,0.06-0.18,0.09l-54.65,31.53L391.36,1.03c-2.39-1.38-5.33-1.38-7.72,0L265.35,69.28
	c-0.04,0.02-0.07,0.05-0.11,0.08c-0.21,0.13-0.42,0.27-0.62,0.41c-0.07,0.05-0.13,0.1-0.2,0.15c-0.24,0.19-0.47,0.39-0.68,0.6
	c-0.01,0.01-0.02,0.02-0.03,0.03c-0.2,0.2-0.39,0.42-0.57,0.65c-0.05,0.07-0.1,0.13-0.15,0.2c-0.14,0.19-0.27,0.39-0.4,0.6
	c-0.04,0.06-0.07,0.11-0.11,0.17c-0.3,0.53-0.54,1.1-0.71,1.7c-0.02,0.07-0.04,0.15-0.06,0.22c-0.06,0.23-0.1,0.46-0.14,0.7
	c-0.01,0.08-0.03,0.16-0.04,0.24c-0.04,0.31-0.06,0.62-0.06,0.94v69.16L38.48,273.78c-0.02,0.01-0.05,0.03-0.07,0.04
	c-0.09,0.05-0.17,0.11-0.26,0.16c-0.08,0.05-0.16,0.1-0.23,0.16c-0.05,0.04-0.1,0.07-0.15,0.1c-0.08,0.06-0.16,0.12-0.23,0.18
	c-0.07,0.05-0.13,0.11-0.2,0.17c-0.06,0.05-0.11,0.09-0.17,0.14c-0.07,0.06-0.13,0.12-0.19,0.19c-0.06,0.06-0.12,0.12-0.18,0.18
	c-0.06,0.06-0.12,0.12-0.18,0.19c-0.05,0.06-0.1,0.12-0.15,0.17c-0.06,0.07-0.11,0.13-0.17,0.2c-0.06,0.08-0.12,0.15-0.18,0.23
	c-0.04,0.05-0.07,0.1-0.11,0.15c-0.05,0.08-0.11,0.16-0.16,0.24c-0.05,0.08-0.11,0.17-0.16,0.25c-0.01,0.03-0.03,0.05-0.05,0.07
	c-0.01,0.02-0.02,0.05-0.04,0.07c-0.05,0.09-0.1,0.18-0.14,0.27c-0.04,0.08-0.09,0.17-0.13,0.26c-0.03,0.06-0.05,0.11-0.08,0.17
	c-0.04,0.09-0.07,0.18-0.11,0.27c-0.03,0.08-0.06,0.16-0.09,0.24c-0.03,0.07-0.05,0.14-0.08,0.21c-0.03,0.08-0.05,0.17-0.07,0.25
	c-0.02,0.08-0.04,0.16-0.06,0.24c-0.02,0.09-0.05,0.17-0.06,0.26c-0.02,0.07-0.03,0.14-0.04,0.22c-0.02,0.09-0.03,0.17-0.04,0.26
	c-0.01,0.1-0.03,0.19-0.04,0.29c-0.01,0.06-0.01,0.12-0.02,0.18c-0.01,0.1-0.01,0.19-0.02,0.29c0,0.1-0.01,0.2-0.01,0.3
	c0,0.03,0,0.05,0,0.08v137.84c0,3.78,2.71,6.91,6.29,7.58l47.16,27.21v266.73c0,0.07,0.01,0.14,0.01,0.21
	c0,0.15,0.01,0.31,0.02,0.46c0.01,0.12,0.03,0.24,0.04,0.36c0.02,0.12,0.03,0.25,0.06,0.37c0.03,0.14,0.06,0.27,0.09,0.41
	c0.02,0.1,0.05,0.2,0.08,0.31c0.04,0.14,0.09,0.28,0.14,0.42c0.03,0.1,0.07,0.19,0.1,0.29c0.05,0.13,0.11,0.26,0.17,0.4
	c0.05,0.1,0.09,0.2,0.14,0.3c0.06,0.12,0.12,0.23,0.19,0.34c0.06,0.11,0.13,0.22,0.2,0.32c0.06,0.1,0.13,0.19,0.19,0.28
	c0.08,0.11,0.16,0.23,0.25,0.34c0.07,0.08,0.13,0.16,0.2,0.24c0.09,0.11,0.19,0.22,0.29,0.32c0.07,0.08,0.15,0.15,0.23,0.23
	c0.1,0.1,0.2,0.19,0.31,0.28c0.1,0.08,0.19,0.16,0.29,0.24c0.1,0.07,0.19,0.15,0.29,0.22c0.13,0.09,0.26,0.17,0.39,0.25
	c0.06,0.04,0.12,0.08,0.18,0.12l114.94,66.31c0.01,0,0.01,0.01,0.02,0.01c0.03,0.02,0.06,0.03,0.08,0.05
	c0.26,0.14,0.53,0.28,0.8,0.39c0.01,0.01,0.02,0.01,0.04,0.02c0.03,0.01,0.06,0.02,0.09,0.03c0.24,0.09,0.48,0.18,0.73,0.25
	c0.09,0.03,0.19,0.05,0.28,0.07c0.2,0.05,0.41,0.09,0.62,0.12c0.1,0.02,0.2,0.03,0.3,0.05c0.26,0.03,0.52,0.05,0.78,0.05
	c0.04,0,0.07,0.01,0.11,0.01c0,0,0,0,0.01,0c0,0,0,0,0.01,0c0.04,0,0.07-0.01,0.11-0.01c0.26,0,0.52-0.02,0.78-0.05
	c0.1-0.01,0.2-0.03,0.3-0.04c0.21-0.03,0.42-0.07,0.62-0.12c0.09-0.02,0.18-0.04,0.28-0.07c0.25-0.07,0.5-0.15,0.74-0.25
	c0.03-0.01,0.06-0.02,0.08-0.03c0.01,0,0.02-0.01,0.04-0.02c0.28-0.12,0.55-0.25,0.81-0.39c0.03-0.01,0.05-0.03,0.08-0.04
	c0.01,0,0.01-0.01,0.02-0.01l51.69-29.82l235.65,135.95c0.01,0,0.01,0.01,0.02,0.01c0.03,0.02,0.05,0.03,0.08,0.05
	c0.26,0.15,0.53,0.28,0.81,0.39c0.01,0.01,0.03,0.01,0.04,0.02c0.03,0.01,0.06,0.02,0.09,0.03c0.24,0.09,0.48,0.18,0.73,0.25
	c0.09,0.03,0.19,0.05,0.28,0.07c0.2,0.05,0.41,0.09,0.62,0.12c0.1,0.02,0.2,0.03,0.3,0.05c0.26,0.03,0.52,0.05,0.78,0.05
	c0.04,0,0.07,0.01,0.11,0.01c0,0,0,0,0.01,0c0,0,0,0,0.01,0c0.04,0,0.07-0.01,0.11-0.01c0.26,0,0.52-0.02,0.78-0.05
	c0.1-0.01,0.2-0.03,0.3-0.04c0.21-0.03,0.42-0.07,0.62-0.12c0.09-0.02,0.18-0.04,0.28-0.07c0.25-0.07,0.5-0.15,0.74-0.25
	c0.03-0.01,0.06-0.02,0.08-0.03c0.01,0,0.02-0.01,0.04-0.02c0.28-0.12,0.55-0.25,0.81-0.39c0.03-0.01,0.05-0.03,0.08-0.04
	c0.01,0,0.01-0.01,0.02-0.01l118.29-68.24c2.39-1.38,3.86-3.93,3.86-6.69v-64.5L861.52,627c0.06-0.04,0.12-0.08,0.18-0.12
	c0.13-0.08,0.26-0.16,0.39-0.25c0.1-0.07,0.19-0.14,0.29-0.22c0.1-0.08,0.2-0.15,0.29-0.24c0.11-0.09,0.21-0.18,0.31-0.28
	c0.08-0.07,0.16-0.15,0.23-0.23c0.1-0.1,0.2-0.21,0.29-0.32c0.07-0.08,0.14-0.16,0.2-0.24
	C863.79,625.01,863.87,624.89,863.95,624.78z M398.22,615.85V494.7l218.14,125.85V741.7L398.22,615.85z M218.45,772.78V518.66
	l218.63-126.13v53.01l-50.45,29.11c-0.02,0.01-0.05,0.03-0.07,0.05c-0.09,0.05-0.17,0.11-0.26,0.16c-0.08,0.05-0.16,0.1-0.24,0.16
	c-0.05,0.04-0.1,0.07-0.15,0.11c-0.08,0.06-0.16,0.12-0.23,0.18c-0.07,0.05-0.13,0.11-0.2,0.17c-0.06,0.05-0.11,0.09-0.17,0.14
	c-0.07,0.06-0.13,0.12-0.19,0.18c-0.06,0.06-0.12,0.12-0.18,0.18c-0.06,0.06-0.12,0.12-0.18,0.19c-0.05,0.06-0.1,0.11-0.15,0.17
	c-0.06,0.07-0.11,0.13-0.17,0.2c-0.06,0.08-0.12,0.15-0.18,0.23c-0.04,0.05-0.07,0.1-0.11,0.15c-0.05,0.08-0.11,0.16-0.16,0.24
	c-0.05,0.08-0.11,0.17-0.16,0.25c-0.01,0.03-0.03,0.05-0.05,0.07c-0.01,0.02-0.02,0.05-0.04,0.07c-0.05,0.09-0.1,0.18-0.14,0.27
	c-0.04,0.08-0.09,0.17-0.13,0.26c-0.03,0.06-0.05,0.11-0.08,0.17c-0.04,0.09-0.07,0.18-0.11,0.27c-0.03,0.08-0.06,0.16-0.09,0.24
	c-0.03,0.07-0.05,0.14-0.08,0.21c-0.03,0.08-0.05,0.17-0.07,0.25c-0.02,0.08-0.04,0.16-0.06,0.24c-0.02,0.09-0.05,0.17-0.06,0.26
	c-0.02,0.07-0.03,0.14-0.04,0.22c-0.02,0.09-0.03,0.17-0.04,0.26c-0.01,0.1-0.03,0.19-0.04,0.29c-0.01,0.06-0.01,0.12-0.02,0.18
	c-0.01,0.1-0.01,0.19-0.02,0.29c0,0.1-0.01,0.2-0.01,0.3c0,0.03,0,0.05,0,0.08v138.98c0,0.07,0.01,0.14,0.01,0.21
	c0,0.15,0.01,0.31,0.02,0.46c0.01,0.12,0.03,0.24,0.04,0.36c0.02,0.12,0.03,0.25,0.06,0.37c0.03,0.14,0.06,0.27,0.09,0.41
	c0.02,0.1,0.05,0.2,0.08,0.31c0.04,0.14,0.09,0.28,0.14,0.42c0.03,0.1,0.07,0.19,0.1,0.29c0.05,0.13,0.11,0.27,0.17,0.4
	c0.05,0.1,0.09,0.2,0.14,0.3c0.06,0.12,0.12,0.23,0.19,0.34c0.06,0.11,0.13,0.22,0.2,0.32c0.06,0.1,0.13,0.19,0.19,0.28
	c0.08,0.11,0.16,0.23,0.25,0.34c0.07,0.08,0.13,0.16,0.2,0.24c0.09,0.11,0.19,0.22,0.29,0.32c0.07,0.08,0.15,0.15,0.23,0.23
	c0.1,0.1,0.2,0.19,0.31,0.28c0.1,0.08,0.19,0.16,0.29,0.24c0.1,0.07,0.19,0.15,0.29,0.22c0.13,0.09,0.26,0.17,0.39,0.25
	c0.06,0.04,0.12,0.08,0.18,0.12l42.25,24.37L218.45,772.78z M50.06,293.84l148.65,85.76L95.14,439.35l-45.08-26.01V293.84z
	 M276.93,89.33l221.14,127.58v254.9l-45.54-26.27v-66.38c0-0.03,0-0.05,0-0.08c0-0.1-0.01-0.2-0.01-0.3c0-0.1-0.01-0.19-0.02-0.29
	c-0.01-0.06-0.01-0.12-0.02-0.18c-0.01-0.1-0.03-0.19-0.04-0.29c-0.01-0.09-0.03-0.17-0.04-0.26c-0.01-0.07-0.02-0.15-0.04-0.22
	c-0.02-0.09-0.04-0.17-0.06-0.26c-0.02-0.08-0.04-0.16-0.06-0.24c-0.02-0.08-0.05-0.17-0.07-0.25c-0.02-0.07-0.05-0.14-0.08-0.21
	c-0.03-0.08-0.06-0.16-0.09-0.24c-0.04-0.09-0.07-0.18-0.11-0.27c-0.02-0.06-0.05-0.11-0.08-0.17c-0.04-0.09-0.08-0.17-0.13-0.26
	c-0.05-0.09-0.09-0.18-0.14-0.27c-0.01-0.02-0.02-0.05-0.04-0.07c-0.01-0.03-0.03-0.05-0.05-0.07c-0.05-0.09-0.1-0.17-0.16-0.25
	c-0.05-0.08-0.11-0.16-0.16-0.24c-0.04-0.05-0.07-0.1-0.11-0.15c-0.06-0.08-0.12-0.15-0.18-0.23c-0.05-0.07-0.11-0.14-0.17-0.2
	c-0.05-0.06-0.1-0.12-0.15-0.17c-0.06-0.06-0.12-0.13-0.18-0.19c-0.06-0.06-0.12-0.12-0.18-0.18c-0.06-0.06-0.13-0.13-0.19-0.19
	c-0.05-0.05-0.11-0.1-0.17-0.14c-0.07-0.06-0.13-0.11-0.2-0.16c-0.08-0.06-0.15-0.12-0.23-0.18c-0.05-0.04-0.1-0.07-0.15-0.1
	c-0.08-0.05-0.15-0.11-0.23-0.16c-0.09-0.06-0.17-0.11-0.26-0.16c-0.02-0.01-0.04-0.03-0.07-0.04l-114.94-66.31
	c-0.06-0.03-0.12-0.06-0.18-0.09c-0.14-0.07-0.28-0.15-0.42-0.21c-0.11-0.05-0.22-0.09-0.32-0.14c-0.12-0.05-0.24-0.1-0.36-0.14
	c-0.13-0.05-0.26-0.09-0.39-0.12c-0.1-0.03-0.21-0.06-0.31-0.09c-0.14-0.04-0.28-0.07-0.42-0.09c-0.1-0.02-0.21-0.04-0.31-0.05
	c-0.14-0.02-0.28-0.04-0.42-0.05c-0.11-0.01-0.23-0.02-0.34-0.03c-0.13-0.01-0.25-0.01-0.38-0.01c-0.13,0-0.26,0-0.38,0.01
	c-0.11,0.01-0.23,0.01-0.34,0.03c-0.14,0.01-0.28,0.03-0.42,0.05c-0.1,0.02-0.21,0.03-0.31,0.05c-0.14,0.03-0.28,0.06-0.42,0.09
	c-0.11,0.03-0.21,0.06-0.31,0.09c-0.13,0.04-0.26,0.08-0.39,0.13c-0.12,0.04-0.24,0.09-0.36,0.14c-0.11,0.04-0.22,0.09-0.33,0.14
	c-0.14,0.07-0.28,0.14-0.41,0.21c-0.06,0.03-0.12,0.06-0.18,0.09l-49.08,28.31V89.33z M681.63,118.82l99.49,57.4L631.8,262.37
	v-114.8L681.63,118.82z M842.21,481.33L624.08,607.18L405.95,481.33l38.86-22.42l57.12,32.96c0.01,0,0.01,0.01,0.02,0.01
	c0.03,0.02,0.05,0.03,0.08,0.05c0.26,0.15,0.53,0.28,0.81,0.39c0.01,0.01,0.03,0.01,0.04,0.02c0.03,0.01,0.06,0.02,0.09,0.03
	c0.24,0.09,0.48,0.18,0.73,0.25c0.09,0.03,0.19,0.05,0.28,0.07c0.2,0.05,0.41,0.09,0.62,0.12c0.1,0.02,0.2,0.03,0.3,0.05
	c0.26,0.03,0.52,0.05,0.78,0.05c0.04,0,0.07,0.01,0.11,0.01c0,0,0,0,0.01,0c0,0,0,0,0.01,0c0.04,0,0.07-0.01,0.11-0.01
	c0.26,0,0.52-0.02,0.78-0.05c0.1-0.01,0.2-0.03,0.3-0.04c0.21-0.03,0.42-0.07,0.62-0.12c0.09-0.02,0.18-0.04,0.28-0.07
	c0.25-0.07,0.5-0.15,0.74-0.25c0.03-0.01,0.06-0.02,0.08-0.03c0.01,0,0.02-0.01,0.04-0.02c0.28-0.12,0.55-0.25,0.81-0.39
	c0.03-0.01,0.05-0.03,0.08-0.04c0.01,0,0.01-0.01,0.02-0.01l118.29-68.24c2.39-1.38,3.86-3.93,3.86-6.69v-57L842.21,481.33z
	 M616.36,157.58v254.9l-102.85,59.34v-254.9L616.36,157.58z M329.86,321.76l99.49,57.4L210.73,505.29l-99.49-57.4L329.86,321.76z
	 M103.51,461.26l99.5,57.41v254.11l-99.5-57.41V461.26z M631.8,620.55L849.94,494.7v121.15L631.8,741.7V620.55z M631.8,342.11
	v-61.92l157.05-90.61v243.13L631.8,342.11z M387.5,16.63l221.13,127.58l-102.84,59.33L284.66,75.96L387.5,16.63z M261.49,343.38
	l-47.33,27.31L57.79,280.47l203.7-117.52V343.38z M444.34,660.29l53.73,31v187.62L281.73,754.1L444.34,660.29z M513.51,878.91V700.2
	l102.85,59.34v60.04L513.51,878.91z"/>
</svg>
