<?xml version="1.0" encoding="utf-8"?>
<!-- Generator: Adobe Illustrator 25.2.3, SVG Export Plug-In . SVG Version: 6.00 Build 0)  -->
<svg version="1.1" id="Layer_1" xmlns="http://www.w3.org/2000/svg" xmlns:xlink="http://www.w3.org/1999/xlink" x="0px" y="0px"
	 viewBox="0 0 900 900" style="enable-background:new 0 0 900 900;" xml:space="preserve">
<style type="text/css">
	.st0{fill:#999999;}
	.st1{fill:#73ACFF;}
	.st2{fill:#FFFFFF;}
	.st3{fill:#2B2B2B;}
	.st4{fill:none;stroke:#000000;stroke-width:3;stroke-miterlimit:10;}
	.st5{fill:none;stroke:#000000;stroke-width:4;stroke-miterlimit:10;}
	.st6{fill:none;stroke:#FFFFFF;stroke-width:3;stroke-miterlimit:10;}
	.st7{fill:#E60338;}
	.st8{fill:#E2E2E2;}
	.st9{fill:none;stroke:#000000;stroke-width:14;stroke-linecap:round;stroke-linejoin:round;stroke-miterlimit:10;}
	.st10{fill:none;stroke:#000000;stroke-width:9;stroke-linecap:round;stroke-linejoin:round;stroke-miterlimit:10;}
	.st11{fill:none;stroke:#000000;stroke-width:11;stroke-linecap:round;stroke-linejoin:round;stroke-miterlimit:10;}
	.st12{fill:#020202;}
	.st13{fill:none;stroke:#000000;stroke-width:10;stroke-linecap:round;stroke-linejoin:round;stroke-miterlimit:10;}
	.st14{fill:#FCEE21;stroke:#000000;stroke-width:10;stroke-linecap:round;stroke-linejoin:round;stroke-miterlimit:10;}
	.st15{fill:#73ACFF;stroke:#000000;stroke-width:10;stroke-linecap:round;stroke-linejoin:round;stroke-miterlimit:10;}
	.st16{fill:#FFFFFF;stroke:#000000;stroke-width:10;stroke-linecap:round;stroke-linejoin:round;stroke-miterlimit:10;}
	.st17{fill:#73ACFF;stroke:#000000;stroke-width:10;stroke-miterlimit:10;}
</style>
<g>
	<polyline class="st13" points="623.23,145.7 387.8,9.87 270.09,77.78 505.52,213.61 623.23,145.7 623.23,417.1 505.52,485.01 	"/>
	<polyline class="st13" points="623.23,753.59 623.23,822.22 505.52,890.13 	"/>
	<line class="st13" x1="211.9" y1="513.89" x2="444.83" y2="379.51"/>
	<line class="st13" x1="623.23" y1="276.58" x2="794.89" y2="177.55"/>
	<line class="st13" x1="622.2" y1="145.19" x2="680.5" y2="111.56"/>
	<line class="st13" x1="390.79" y1="481.18" x2="444.83" y2="450"/>
	<line class="st13" x1="44.32" y1="281.3" x2="270.09" y2="151.04"/>
	<line class="st13" x1="623.23" y1="615.29" x2="855.68" y2="481.18"/>
	<line class="st13" x1="623.23" y1="753.59" x2="855.68" y2="619.49"/>
	<line class="st13" x1="211.9" y1="784.51" x2="444.36" y2="650.4"/>
	<line class="st13" x1="97.51" y1="447.9" x2="330.45" y2="313.51"/>
	<polyline class="st13" points="505.52,485.01 444.83,450 444.83,379.51 	"/>
	<line class="st13" x1="211.9" y1="784.51" x2="211.9" y2="513.89"/>
	<line class="st13" x1="794.89" y1="446.11" x2="794.89" y2="177.55"/>
	<line class="st13" x1="390.79" y1="619.49" x2="390.79" y2="481.18"/>
	<line class="st13" x1="623.23" y1="753.59" x2="623.23" y2="615.29"/>
	<line class="st13" x1="44.32" y1="418.46" x2="44.32" y2="281.3"/>
	<line class="st13" x1="855.68" y1="619.49" x2="855.68" y2="481.18"/>
	<line class="st13" x1="97.51" y1="718.52" x2="97.51" y2="447.9"/>
	<line class="st13" x1="211.9" y1="513.89" x2="97.51" y2="447.9"/>
	<line class="st13" x1="505.52" y1="890.13" x2="267.18" y2="752.62"/>
	<line class="st13" x1="623.23" y1="615.29" x2="390.79" y2="481.18"/>
	<line class="st13" x1="215.28" y1="379.93" x2="44.32" y2="281.3"/>
	<line class="st13" x1="855.68" y1="481.18" x2="623.23" y2="347.08"/>
	<line class="st13" x1="855.68" y1="481.18" x2="623.23" y2="347.08"/>
	<line class="st13" x1="623.23" y1="753.59" x2="390.79" y2="619.49"/>
	<line class="st13" x1="97.51" y1="448.65" x2="44.32" y2="417.96"/>
	<line class="st13" x1="211.9" y1="784.51" x2="97.51" y2="718.52"/>
	<line class="st13" x1="444.83" y1="379.51" x2="330.45" y2="313.51"/>
	<line class="st13" x1="794.89" y1="177.55" x2="680.5" y2="111.56"/>
	<line class="st13" x1="505.52" y1="213.61" x2="505.52" y2="485.01"/>
	<line class="st13" x1="505.52" y1="686.54" x2="505.52" y2="890.13"/>
	<line class="st13" x1="270.09" y1="77.78" x2="270.09" y2="348.34"/>
</g>
</svg>
