<?xml version="1.0" encoding="utf-8"?>
<!-- Generator: Adobe Illustrator 25.2.3, SVG Export Plug-In . SVG Version: 6.00 Build 0)  -->
<svg version="1.1" id="Layer_1" xmlns="http://www.w3.org/2000/svg" xmlns:xlink="http://www.w3.org/1999/xlink" x="0px" y="0px"
	 viewBox="0 0 900 900" style="enable-background:new 0 0 900 900;" xml:space="preserve">
<style type="text/css">
	.st0{fill:#999999;}
	.st1{fill:#73ACFF;}
	.st2{fill:#FFFFFF;}
	.st3{fill:#2B2B2B;}
	.st4{fill:none;stroke:#000000;stroke-width:3;stroke-miterlimit:10;}
	.st5{fill:none;stroke:#000000;stroke-width:4;stroke-miterlimit:10;}
	.st6{fill:none;stroke:#FFFFFF;stroke-width:3;stroke-miterlimit:10;}
	.st7{fill:#E60338;}
	.st8{fill:#E2E2E2;}
	.st9{fill:none;stroke:#000000;stroke-width:14;stroke-linecap:round;stroke-linejoin:round;stroke-miterlimit:10;}
	.st10{fill:none;stroke:#000000;stroke-width:9;stroke-linecap:round;stroke-linejoin:round;stroke-miterlimit:10;}
	.st11{fill:none;stroke:#000000;stroke-width:11;stroke-linecap:round;stroke-linejoin:round;stroke-miterlimit:10;}
	.st12{fill:#020202;}
	.st13{fill:#FCEE21;stroke:#000000;stroke-width:10;stroke-linecap:round;stroke-linejoin:round;stroke-miterlimit:10;}
	.st14{fill:#73ACFF;stroke:#000000;stroke-width:10;stroke-linecap:round;stroke-linejoin:round;stroke-miterlimit:10;}
	.st15{fill:#FFFFFF;stroke:#000000;stroke-width:10;stroke-linecap:round;stroke-linejoin:round;stroke-miterlimit:10;}
	.st16{fill:none;stroke:#000000;stroke-width:10;stroke-linecap:round;stroke-linejoin:round;stroke-miterlimit:10;}
	.st17{fill:#73ACFF;stroke:#000000;stroke-width:10;stroke-miterlimit:10;}
</style>
<g>
	<polygon class="st13" points="717.46,371.92 543.24,371.92 452.97,522.76 627.18,522.76 	"/>
	<polygon class="st13" points="888,678.36 717.46,371.92 627.18,522.76 797.72,829.19 	"/>
	<polygon class="st14" points="362.69,673.59 452.97,522.76 102.28,524.04 12,674.87 	"/>
	<polyline class="st15" points="549.24,70.81 633.19,221.64 543.24,371.92 452.97,522.76 369.02,371.92 549.24,70.81 	"/>
	<polyline class="st15" points="194.81,371.92 279.1,523.39 452.97,522.76 369.02,371.92 194.81,371.92 	"/>
	<polygon class="st15" points="194.81,371.92 375.03,70.81 549.24,70.81 369.02,371.92 	"/>
	<polyline class="st13" points="452.97,522.76 623.5,829.19 452.97,522.76 627.18,522.76 797.72,829.19 623.5,829.19 	"/>
	<polygon class="st14" points="452.97,522.76 362.69,673.59 446.63,824.42 95.94,825.7 12,674.87 362.69,673.59 446.63,824.42 
		536.91,673.59 	"/>
</g>
</svg>
