<?xml version="1.0" encoding="utf-8"?>
<!-- Generator: Adobe Illustrator 25.2.3, SVG Export Plug-In . SVG Version: 6.00 Build 0)  -->
<svg version="1.1" id="Layer_1" xmlns="http://www.w3.org/2000/svg" xmlns:xlink="http://www.w3.org/1999/xlink" x="0px" y="0px"
	 viewBox="0 0 900 900" style="enable-background:new 0 0 900 900;" xml:space="preserve">
<style type="text/css">
	.st0{fill:#999999;}
	.st1{fill:#73ACFF;}
	.st2{fill:#FFFFFF;}
	.st3{fill:#2B2B2B;}
	.st4{fill:none;stroke:#000000;stroke-width:3;stroke-miterlimit:10;}
	.st5{fill:none;stroke:#000000;stroke-width:4;stroke-miterlimit:10;}
	.st6{fill:none;stroke:#FFFFFF;stroke-width:3;stroke-miterlimit:10;}
	.st7{fill:#E60338;}
	.st8{fill:#E2E2E2;}
	.st9{fill:none;stroke:#000000;stroke-width:14;stroke-linecap:round;stroke-linejoin:round;stroke-miterlimit:10;}
	.st10{fill:none;stroke:#000000;stroke-width:9;stroke-linecap:round;stroke-linejoin:round;stroke-miterlimit:10;}
	.st11{fill:none;stroke:#000000;stroke-width:11;stroke-linecap:round;stroke-linejoin:round;stroke-miterlimit:10;}
	.st12{fill:#020202;}
	.st13{fill:#FCEE21;stroke:#000000;stroke-width:10;stroke-linecap:round;stroke-linejoin:round;stroke-miterlimit:10;}
	.st14{fill:#73ACFF;stroke:#000000;stroke-width:10;stroke-miterlimit:10;}
	.st15{fill:#FFFFFF;stroke:#000000;stroke-width:10;stroke-linecap:round;stroke-linejoin:round;stroke-miterlimit:10;}
	.st16{fill:none;stroke:#000000;stroke-width:10;stroke-linecap:round;stroke-linejoin:round;stroke-miterlimit:10;}
</style>
<g>
	<polygon class="st16" points="721.32,370.8 544.59,370.8 453.01,523.81 629.74,523.81 	"/>
	<polygon class="st16" points="894.31,681.65 721.32,370.8 629.74,523.81 802.74,834.66 	"/>
	<polygon class="st16" points="361.43,676.81 453.01,523.81 97.26,525.1 5.69,678.11 	"/>
	<polyline class="st16" points="550.68,65.34 635.83,218.35 544.59,370.8 453.01,523.81 367.86,370.8 550.68,65.34 	"/>
	<polyline class="st16" points="191.13,370.8 276.64,524.45 453.01,523.81 367.86,370.8 191.13,370.8 	"/>
	<polygon class="st16" points="191.13,370.8 373.95,65.34 550.68,65.34 367.86,370.8 	"/>
	<polyline class="st16" points="453.01,523.81 626.01,834.66 453.01,523.81 629.74,523.81 802.74,834.66 626.01,834.66 	"/>
	<polygon class="st16" points="453.01,523.81 361.43,676.81 446.58,829.82 90.84,831.12 5.69,678.11 361.43,676.81 446.58,829.82 
		538.16,676.81 	"/>
</g>
</svg>
