<?xml version="1.0" encoding="utf-8"?>
<!-- Generator: Adobe Illustrator 25.2.3, SVG Export Plug-In . SVG Version: 6.00 Build 0)  -->
<svg version="1.1" id="Layer_1" xmlns="http://www.w3.org/2000/svg" xmlns:xlink="http://www.w3.org/1999/xlink" x="0px" y="0px"
	 viewBox="0 0 900 900" style="enable-background:new 0 0 900 900;" xml:space="preserve">
<style type="text/css">
	.st0{fill:#999999;}
	.st1{fill:#73ACFF;}
	.st2{fill:#FFFFFF;}
	.st3{fill:#2B2B2B;}
	.st4{fill:none;stroke:#000000;stroke-width:3;stroke-miterlimit:10;}
	.st5{fill:none;stroke:#000000;stroke-width:4;stroke-miterlimit:10;}
	.st6{fill:none;stroke:#FFFFFF;stroke-width:3;stroke-miterlimit:10;}
	.st7{fill:#E60338;}
	.st8{fill:#E2E2E2;}
	.st9{fill:none;stroke:#000000;stroke-width:14;stroke-linecap:round;stroke-linejoin:round;stroke-miterlimit:10;}
	.st10{fill:none;stroke:#000000;stroke-width:9;stroke-linecap:round;stroke-linejoin:round;stroke-miterlimit:10;}
	.st11{fill:none;stroke:#000000;stroke-width:11;stroke-linecap:round;stroke-linejoin:round;stroke-miterlimit:10;}
	.st12{fill:#020202;}
</style>
<path d="M897.5,199.04c0-0.3-0.02-0.59-0.06-0.88c-0.01-0.07-0.02-0.13-0.03-0.2c-0.05-0.29-0.11-0.58-0.19-0.86
	c-0.01-0.02-0.01-0.05-0.02-0.07c-0.09-0.31-0.21-0.61-0.34-0.89c-0.02-0.05-0.05-0.1-0.07-0.15c-0.14-0.28-0.29-0.55-0.46-0.81
	c-0.01-0.01-0.01-0.02-0.01-0.02c-0.17-0.26-0.37-0.5-0.58-0.74c-0.05-0.05-0.1-0.11-0.15-0.16c-0.21-0.23-0.44-0.44-0.68-0.64
	c-0.03-0.02-0.06-0.04-0.09-0.06c-0.24-0.19-0.49-0.36-0.75-0.51c-0.03-0.02-0.05-0.04-0.08-0.06L594.82,20.37
	c-2.17-1.25-4.83-1.25-7,0L6,356.04c-0.07,0.04-0.14,0.09-0.21,0.13c-0.09,0.06-0.18,0.11-0.27,0.17c-0.11,0.08-0.22,0.16-0.32,0.24
	c-0.06,0.05-0.13,0.09-0.19,0.15c-0.14,0.12-0.28,0.24-0.41,0.37c-0.02,0.02-0.04,0.04-0.06,0.06c-0.16,0.16-0.31,0.32-0.44,0.49
	c-0.01,0.01-0.01,0.02-0.02,0.02c-0.13,0.16-0.25,0.32-0.36,0.48c-0.05,0.07-0.09,0.14-0.13,0.21c-0.07,0.11-0.14,0.22-0.2,0.33
	c-0.05,0.09-0.1,0.18-0.14,0.28c-0.05,0.1-0.1,0.19-0.14,0.29c-0.05,0.1-0.09,0.21-0.13,0.31c-0.04,0.1-0.07,0.19-0.11,0.29
	c-0.04,0.11-0.07,0.21-0.1,0.32c-0.03,0.11-0.06,0.21-0.08,0.32c-0.02,0.1-0.05,0.2-0.07,0.3c-0.03,0.14-0.05,0.28-0.06,0.42
	c-0.01,0.07-0.02,0.14-0.03,0.22c-0.02,0.23-0.03,0.45-0.03,0.68v80.15c0,0.08,0.01,0.16,0.01,0.23c0,0.14,0.01,0.27,0.02,0.41
	c0.01,0.14,0.03,0.27,0.05,0.41c0.01,0.08,0.02,0.15,0.03,0.23c0,0.01,0.01,0.02,0.01,0.03c0.07,0.38,0.18,0.74,0.3,1.09
	c0.02,0.05,0.04,0.1,0.06,0.15c0.13,0.33,0.28,0.65,0.46,0.96c0.03,0.06,0.07,0.12,0.1,0.17c0.18,0.29,0.38,0.58,0.61,0.84
	c0.04,0.04,0.08,0.08,0.11,0.12c0.24,0.27,0.5,0.53,0.77,0.76c0,0,0,0,0,0c0.28,0.23,0.59,0.44,0.91,0.63
	c0.04,0.02,0.07,0.05,0.11,0.07c0.31,0.17,0.63,0.32,0.96,0.44c0.06,0.02,0.11,0.04,0.17,0.06c0.33,0.11,0.66,0.21,1.01,0.27
	c0.06,0.01,0.13,0.02,0.19,0.03c0.34,0.05,0.69,0.09,1.05,0.09c0.02,0,0.03,0,0.05,0c0.23,0,0.46-0.01,0.68-0.04
	c0.09-0.01,0.19-0.03,0.28-0.04c0.11-0.01,0.21-0.02,0.32-0.04l509.22-94.25L408.71,555L6,787.34c-0.07,0.04-0.14,0.09-0.21,0.13
	c-0.09,0.06-0.18,0.11-0.27,0.17c-0.11,0.08-0.22,0.16-0.32,0.24c-0.06,0.05-0.13,0.09-0.19,0.15c-0.14,0.12-0.28,0.24-0.41,0.37
	c-0.02,0.02-0.04,0.04-0.06,0.06c-0.16,0.16-0.31,0.32-0.44,0.49c-0.01,0.01-0.01,0.02-0.02,0.02c-0.13,0.16-0.25,0.32-0.36,0.48
	c-0.05,0.07-0.09,0.14-0.13,0.21c-0.07,0.11-0.14,0.21-0.2,0.32c-0.05,0.09-0.1,0.19-0.14,0.28c-0.05,0.09-0.09,0.19-0.14,0.29
	c-0.05,0.1-0.09,0.21-0.13,0.31c-0.04,0.09-0.07,0.19-0.1,0.29c-0.04,0.11-0.07,0.21-0.1,0.32c-0.03,0.11-0.06,0.21-0.08,0.32
	c-0.02,0.1-0.05,0.2-0.07,0.3c-0.03,0.14-0.05,0.28-0.06,0.42c-0.01,0.07-0.02,0.14-0.03,0.22c-0.02,0.23-0.03,0.45-0.03,0.68v80.15
	c0,0.08,0.01,0.16,0.01,0.23c0,0.14,0.01,0.27,0.02,0.41c0.01,0.14,0.03,0.27,0.05,0.41c0.01,0.08,0.02,0.15,0.03,0.23
	c0,0.01,0.01,0.02,0.01,0.03c0.07,0.38,0.18,0.74,0.3,1.09c0.02,0.05,0.04,0.1,0.06,0.15c0.13,0.33,0.28,0.65,0.46,0.96
	c0.03,0.06,0.07,0.12,0.1,0.17c0.18,0.29,0.38,0.58,0.61,0.84c0.04,0.04,0.08,0.08,0.11,0.12c0.24,0.27,0.5,0.53,0.77,0.76
	c0,0,0,0,0,0c0.28,0.23,0.59,0.44,0.91,0.63c0.04,0.02,0.07,0.05,0.11,0.07c0.31,0.17,0.63,0.32,0.96,0.44
	c0.06,0.02,0.11,0.04,0.17,0.06c0.33,0.11,0.66,0.21,1.01,0.27c0.06,0.01,0.13,0.02,0.19,0.03c0.34,0.05,0.69,0.09,1.05,0.09
	c0.02,0,0.03,0,0.05,0c0.23,0,0.46-0.01,0.68-0.04c0.09-0.01,0.19-0.03,0.28-0.04c0.11-0.01,0.21-0.02,0.32-0.04l290.91-53.84v2.86
	c0,0.03,0,0.05,0,0.07c0,0.15,0.01,0.3,0.02,0.45c0.01,0.08,0.01,0.17,0.02,0.25c0.02,0.14,0.04,0.28,0.06,0.41
	c0.02,0.09,0.03,0.19,0.05,0.28c0.02,0.11,0.06,0.22,0.09,0.34c0.03,0.12,0.06,0.23,0.1,0.34c0.03,0.09,0.06,0.17,0.09,0.26
	c0.05,0.13,0.1,0.27,0.16,0.4c0.03,0.07,0.07,0.14,0.1,0.21c0.07,0.14,0.14,0.28,0.21,0.41c0.01,0.02,0.02,0.04,0.03,0.06
	c0.02,0.03,0.04,0.06,0.06,0.1c0.12,0.2,0.25,0.39,0.39,0.58c0.05,0.06,0.09,0.12,0.14,0.18c0.17,0.21,0.35,0.41,0.54,0.6
	c0.05,0.05,0.1,0.09,0.15,0.14c0.15,0.14,0.31,0.28,0.47,0.4c0.08,0.06,0.15,0.12,0.23,0.17c0.17,0.12,0.34,0.23,0.51,0.34
	c0.06,0.03,0.11,0.07,0.17,0.1c0.24,0.13,0.49,0.25,0.75,0.36c0.03,0.01,0.07,0.02,0.1,0.04c0.22,0.09,0.45,0.16,0.69,0.23
	c0.07,0.02,0.14,0.04,0.2,0.05c0.21,0.05,0.41,0.09,0.63,0.12c0.07,0.01,0.14,0.02,0.22,0.03c0.26,0.03,0.52,0.05,0.79,0.05
	c0.02,0,0.03,0,0.05,0c0.03,0,0.06-0.01,0.1-0.01c0.24,0,0.47-0.02,0.71-0.05c0.09-0.01,0.18-0.03,0.27-0.04
	c0.19-0.03,0.38-0.07,0.56-0.11c0.09-0.02,0.17-0.04,0.26-0.07c0.23-0.06,0.45-0.14,0.67-0.23c0.03-0.01,0.07-0.02,0.1-0.04
	c0.27-0.11,0.52-0.24,0.77-0.38c0.02-0.01,0.04-0.02,0.06-0.03l27.72-15.99l551.88-102.15c0.02,0,0.04-0.01,0.05-0.01
	c0.15-0.03,0.3-0.07,0.45-0.11c0.08-0.02,0.16-0.04,0.24-0.06c0.14-0.04,0.27-0.09,0.4-0.14c0.09-0.03,0.17-0.06,0.26-0.09
	c0.11-0.05,0.22-0.1,0.33-0.15c0.1-0.05,0.21-0.09,0.3-0.15c0.08-0.04,0.16-0.09,0.24-0.14c0.12-0.07,0.24-0.14,0.35-0.21
	c0.06-0.04,0.12-0.09,0.18-0.13c0.12-0.09,0.24-0.17,0.36-0.27c0.06-0.05,0.11-0.1,0.17-0.15c0.11-0.1,0.22-0.19,0.32-0.29
	c0.07-0.07,0.13-0.14,0.2-0.22c0.08-0.09,0.17-0.18,0.25-0.27c0.08-0.1,0.15-0.2,0.23-0.3c0.06-0.08,0.12-0.15,0.17-0.23
	c0.08-0.12,0.16-0.25,0.23-0.37c0.04-0.07,0.08-0.13,0.12-0.2c0.07-0.13,0.13-0.26,0.2-0.4c0.03-0.07,0.07-0.14,0.1-0.21
	c0.05-0.12,0.1-0.25,0.14-0.37c0.03-0.09,0.07-0.18,0.1-0.27c0.03-0.1,0.06-0.21,0.09-0.32c0.03-0.12,0.07-0.23,0.09-0.35
	c0.02-0.09,0.03-0.18,0.04-0.26c0.02-0.14,0.05-0.29,0.07-0.43c0.01-0.08,0.01-0.16,0.02-0.24c0.01-0.16,0.02-0.31,0.02-0.47
	c0-0.02,0-0.04,0-0.05v-80.16c0-0.3-0.02-0.59-0.06-0.88c-0.01-0.07-0.02-0.14-0.03-0.2c-0.05-0.29-0.1-0.57-0.18-0.85
	c-0.01-0.03-0.01-0.05-0.02-0.08c-0.09-0.31-0.21-0.6-0.34-0.89c-0.02-0.05-0.05-0.1-0.07-0.16c-0.14-0.28-0.28-0.55-0.45-0.81
	c-0.01-0.01-0.01-0.02-0.02-0.03c-0.17-0.26-0.37-0.5-0.58-0.74c-0.05-0.06-0.1-0.11-0.15-0.16c-0.21-0.23-0.44-0.44-0.68-0.64
	c-0.03-0.02-0.06-0.04-0.09-0.07c-0.24-0.19-0.49-0.36-0.75-0.51c-0.03-0.02-0.05-0.04-0.08-0.06l-107.83-62.21L894,499.85
	c0.06-0.03,0.11-0.07,0.16-0.11c0.12-0.07,0.23-0.15,0.35-0.22c0.09-0.06,0.18-0.13,0.26-0.2c0.09-0.07,0.18-0.14,0.26-0.21
	c0.1-0.08,0.19-0.17,0.28-0.25c0.07-0.07,0.14-0.13,0.21-0.2c0.09-0.1,0.18-0.19,0.27-0.29c0.06-0.07,0.12-0.14,0.18-0.22
	c0.08-0.1,0.16-0.2,0.23-0.31c0.06-0.08,0.12-0.17,0.17-0.25c0.06-0.1,0.12-0.19,0.18-0.29c0.06-0.1,0.12-0.2,0.17-0.31
	c0.05-0.09,0.09-0.18,0.13-0.27c0.05-0.12,0.11-0.24,0.15-0.36c0.03-0.09,0.06-0.17,0.09-0.26c0.04-0.13,0.09-0.25,0.12-0.38
	c0.03-0.09,0.05-0.18,0.07-0.28c0.03-0.12,0.06-0.25,0.08-0.37c0.02-0.11,0.04-0.22,0.05-0.33c0.01-0.11,0.03-0.22,0.04-0.33
	c0.01-0.14,0.02-0.28,0.02-0.41c0-0.07,0.01-0.13,0.01-0.19v-80.16c0-0.03,0-0.05,0-0.07c0-0.09-0.01-0.18-0.01-0.27
	c0-0.09-0.01-0.17-0.02-0.26c0-0.06-0.01-0.11-0.01-0.17c-0.01-0.09-0.02-0.17-0.04-0.26c-0.01-0.08-0.02-0.16-0.04-0.23
	c-0.01-0.07-0.02-0.13-0.04-0.2c-0.02-0.08-0.04-0.15-0.06-0.23c-0.02-0.07-0.04-0.15-0.06-0.22c-0.02-0.08-0.04-0.15-0.07-0.23
	c-0.02-0.06-0.05-0.13-0.07-0.19c-0.03-0.07-0.05-0.15-0.08-0.22c-0.03-0.08-0.06-0.16-0.1-0.24c-0.02-0.05-0.05-0.1-0.07-0.15
	c-0.04-0.08-0.08-0.16-0.12-0.24c-0.04-0.08-0.08-0.16-0.13-0.24c-0.01-0.02-0.02-0.04-0.03-0.06c-0.01-0.02-0.03-0.04-0.04-0.06
	c-0.05-0.08-0.1-0.16-0.15-0.23c-0.05-0.07-0.1-0.15-0.15-0.22c-0.03-0.05-0.06-0.09-0.1-0.14c-0.05-0.07-0.11-0.14-0.16-0.21
	c-0.05-0.06-0.1-0.12-0.15-0.18c-0.04-0.05-0.09-0.11-0.13-0.16c-0.05-0.06-0.11-0.11-0.16-0.17c-0.05-0.05-0.11-0.11-0.16-0.16
	c-0.06-0.06-0.11-0.11-0.17-0.17c-0.05-0.05-0.1-0.09-0.15-0.13c-0.06-0.05-0.12-0.1-0.18-0.15c-0.07-0.06-0.14-0.11-0.21-0.16
	c-0.04-0.03-0.09-0.06-0.14-0.1c-0.07-0.05-0.14-0.1-0.21-0.14c-0.08-0.05-0.16-0.1-0.24-0.15c-0.02-0.01-0.04-0.03-0.06-0.04
	l-159.96-92.29l157.74-29.2c0.02,0,0.04-0.01,0.05-0.01c0.15-0.03,0.3-0.07,0.45-0.11c0.08-0.02,0.16-0.04,0.24-0.06
	c0.14-0.04,0.27-0.09,0.4-0.14c0.09-0.03,0.17-0.06,0.26-0.09c0.11-0.05,0.22-0.1,0.33-0.15c0.1-0.05,0.21-0.09,0.3-0.15
	c0.08-0.04,0.16-0.09,0.24-0.14c0.12-0.07,0.24-0.14,0.35-0.21c0.06-0.04,0.12-0.09,0.18-0.13c0.12-0.09,0.24-0.17,0.36-0.27
	c0.06-0.05,0.11-0.1,0.17-0.15c0.11-0.1,0.22-0.19,0.32-0.29c0.07-0.07,0.13-0.14,0.2-0.22c0.08-0.09,0.17-0.18,0.25-0.27
	c0.08-0.1,0.15-0.2,0.23-0.3c0.06-0.08,0.12-0.15,0.17-0.23c0.08-0.12,0.16-0.25,0.23-0.37c0.04-0.07,0.08-0.13,0.12-0.2
	c0.07-0.13,0.13-0.26,0.2-0.4c0.03-0.07,0.07-0.14,0.1-0.21c0.05-0.12,0.1-0.25,0.14-0.37c0.03-0.09,0.07-0.18,0.1-0.27
	c0.03-0.1,0.06-0.21,0.09-0.32c0.03-0.12,0.07-0.23,0.09-0.35c0.02-0.09,0.03-0.18,0.04-0.26c0.02-0.14,0.05-0.29,0.07-0.43
	c0.01-0.08,0.01-0.16,0.02-0.24c0.01-0.16,0.02-0.31,0.02-0.47c0-0.02,0-0.04,0-0.05V199.04z M532.07,338.42c-0.01,0-0.01,0-0.02,0
	L16.5,433.85v-65.92L883.5,207.45v65.92L532.07,338.42z M591.32,34.52l279.23,161.1L48.29,347.8L591.32,34.52z M395.48,578.8
	l-84.33,151.65L48.29,779.1L395.48,578.8z M883.5,489.75L315.68,817.34v-64L883.5,425.75V489.75z M16.5,865.15v-65.92l285.85-52.91
	c-0.01,0.02-0.02,0.04-0.03,0.06c-0.02,0.04-0.04,0.08-0.06,0.11c-0.01,0.02-0.02,0.03-0.02,0.05c-0.03,0.06-0.05,0.13-0.07,0.19
	c-0.03,0.09-0.06,0.17-0.09,0.26c-0.02,0.05-0.03,0.09-0.05,0.14c-0.01,0.02-0.02,0.05-0.03,0.07c-0.02,0.06-0.03,0.12-0.05,0.18
	c-0.02,0.09-0.05,0.18-0.07,0.26c-0.02,0.08-0.04,0.16-0.06,0.24c-0.01,0.03-0.01,0.06-0.01,0.09c0,0.02-0.01,0.04-0.01,0.06
	c-0.02,0.09-0.03,0.18-0.04,0.27c-0.01,0.09-0.03,0.18-0.04,0.27c0,0.02,0,0.04,0,0.06c0,0.02,0,0.04,0,0.05
	c-0.01,0.1-0.01,0.2-0.02,0.3c0,0.09-0.01,0.18-0.01,0.28c0,0.01,0,0.01,0,0.02v63.07L16.5,865.15z M544.48,701.5l339.03-62.75
	v65.92l-507.27,93.89L544.48,701.5z M870.56,626.91l-289.74,53.63l191.35-110.39L870.56,626.91z M876.5,413.63L327.09,730.6
	l210.76-379l174.98-32.39L876.5,413.63z"/>
</svg>
