<?xml version="1.0" encoding="utf-8"?>
<!-- Generator: Adobe Illustrator 25.2.3, SVG Export Plug-In . SVG Version: 6.00 Build 0)  -->
<svg version="1.1" id="Layer_1" xmlns="http://www.w3.org/2000/svg" xmlns:xlink="http://www.w3.org/1999/xlink" x="0px" y="0px"
	 viewBox="0 0 900 900" style="enable-background:new 0 0 900 900;" xml:space="preserve">
<style type="text/css">
	.st0{fill:#999999;}
	.st1{fill:#73ACFF;}
	.st2{fill:#FFFFFF;}
	.st3{fill:#2B2B2B;}
	.st4{fill:none;stroke:#000000;stroke-width:3;stroke-miterlimit:10;}
	.st5{fill:none;stroke:#000000;stroke-width:4;stroke-miterlimit:10;}
	.st6{fill:none;stroke:#FFFFFF;stroke-width:3;stroke-miterlimit:10;}
	.st7{fill:#E60338;}
	.st8{fill:#E2E2E2;}
	.st9{fill:none;stroke:#000000;stroke-width:14;stroke-linecap:round;stroke-linejoin:round;stroke-miterlimit:10;}
	.st10{fill:none;stroke:#000000;stroke-width:9;stroke-linecap:round;stroke-linejoin:round;stroke-miterlimit:10;}
	.st11{fill:none;stroke:#000000;stroke-width:11;stroke-linecap:round;stroke-linejoin:round;stroke-miterlimit:10;}
	.st12{fill:#020202;}
</style>
<path d="M897.65,299.14c0-0.12,0-0.23-0.01-0.35c-0.01-0.1-0.01-0.2-0.02-0.3c-0.01-0.13-0.03-0.26-0.05-0.38
	c-0.01-0.09-0.03-0.18-0.05-0.27c-0.03-0.13-0.05-0.26-0.09-0.39c-0.02-0.09-0.05-0.18-0.08-0.27c-0.04-0.12-0.07-0.24-0.12-0.37
	c-0.04-0.1-0.08-0.21-0.12-0.31c-0.04-0.1-0.08-0.21-0.13-0.31c-0.06-0.12-0.12-0.24-0.19-0.36c-0.03-0.06-0.06-0.12-0.09-0.17
	c-0.01-0.02-0.03-0.04-0.04-0.07c-0.08-0.13-0.16-0.25-0.24-0.38c-0.05-0.07-0.09-0.14-0.14-0.21c-0.08-0.11-0.17-0.22-0.26-0.33
	c-0.06-0.07-0.12-0.15-0.18-0.22c-0.08-0.09-0.17-0.17-0.25-0.26c-0.08-0.08-0.16-0.16-0.25-0.24c-0.07-0.07-0.15-0.13-0.23-0.19
	c0,0-0.01-0.01-0.01-0.01c-0.01-0.01-0.01-0.01-0.02-0.02c-0.09-0.08-0.19-0.15-0.28-0.23c-0.07-0.05-0.14-0.1-0.21-0.14
	c-0.02-0.02-0.05-0.03-0.07-0.05c-0.1-0.07-0.2-0.13-0.3-0.19c-0.02-0.01-0.04-0.03-0.07-0.04L437.23,29.47
	c-0.06-0.03-0.12-0.06-0.18-0.09c-0.12-0.06-0.23-0.12-0.35-0.18c-0.11-0.05-0.21-0.09-0.32-0.14c-0.1-0.04-0.2-0.08-0.29-0.11
	c-0.13-0.05-0.25-0.08-0.38-0.12c-0.09-0.02-0.17-0.05-0.26-0.07c-0.14-0.03-0.27-0.06-0.41-0.09c-0.08-0.02-0.17-0.03-0.25-0.04
	c-0.14-0.02-0.27-0.04-0.41-0.05c-0.09-0.01-0.18-0.02-0.28-0.02c-0.13-0.01-0.25-0.01-0.38-0.01c-0.11,0-0.21,0-0.32,0.01
	c-0.11,0.01-0.22,0.01-0.33,0.02c-0.12,0.01-0.24,0.03-0.36,0.04c-0.1,0.02-0.2,0.03-0.3,0.05c-0.12,0.02-0.24,0.05-0.37,0.08
	c-0.1,0.03-0.2,0.05-0.3,0.08c-0.11,0.03-0.23,0.07-0.34,0.11c-0.11,0.04-0.22,0.08-0.33,0.13c-0.1,0.04-0.19,0.08-0.29,0.12
	c-0.13,0.06-0.26,0.13-0.38,0.2c-0.05,0.03-0.11,0.05-0.16,0.08l-81.38,46.95l-81.38-46.95c-0.06-0.03-0.12-0.06-0.18-0.09
	c-0.12-0.06-0.23-0.12-0.35-0.18c-0.11-0.05-0.21-0.09-0.32-0.14c-0.1-0.04-0.2-0.08-0.29-0.11c-0.13-0.05-0.25-0.08-0.38-0.12
	c-0.09-0.02-0.17-0.05-0.26-0.07c-0.14-0.03-0.27-0.06-0.41-0.09c-0.08-0.02-0.17-0.03-0.25-0.04c-0.14-0.02-0.27-0.04-0.41-0.05
	c-0.09-0.01-0.18-0.02-0.28-0.02c-0.13-0.01-0.25-0.01-0.38-0.01c-0.11,0-0.21,0-0.32,0.01c-0.11,0.01-0.22,0.01-0.33,0.02
	c-0.12,0.01-0.24,0.03-0.36,0.04c-0.1,0.02-0.2,0.03-0.3,0.05c-0.12,0.02-0.24,0.05-0.37,0.08c-0.1,0.03-0.2,0.05-0.3,0.08
	c-0.11,0.03-0.23,0.07-0.34,0.11c-0.11,0.04-0.22,0.08-0.33,0.13c-0.1,0.04-0.19,0.08-0.29,0.12c-0.13,0.06-0.26,0.13-0.38,0.2
	c-0.05,0.03-0.11,0.05-0.16,0.08L179.1,76.42L97.73,29.47c-0.06-0.03-0.12-0.06-0.18-0.09c-0.12-0.06-0.23-0.12-0.35-0.18
	c-0.11-0.05-0.21-0.09-0.32-0.14c-0.1-0.04-0.2-0.08-0.29-0.11c-0.13-0.05-0.25-0.08-0.38-0.12c-0.08-0.02-0.17-0.05-0.26-0.07
	c-0.14-0.03-0.27-0.06-0.41-0.09c-0.08-0.02-0.17-0.03-0.25-0.04c-0.14-0.02-0.27-0.04-0.41-0.05c-0.09-0.01-0.18-0.02-0.28-0.02
	c-0.13-0.01-0.25-0.01-0.38-0.01c-0.11,0-0.21,0-0.32,0.01c-0.11,0.01-0.22,0.01-0.33,0.02c-0.12,0.01-0.24,0.03-0.36,0.04
	c-0.1,0.02-0.2,0.03-0.3,0.05c-0.12,0.02-0.24,0.05-0.37,0.08c-0.1,0.03-0.2,0.05-0.3,0.08c-0.11,0.03-0.23,0.07-0.34,0.11
	c-0.11,0.04-0.22,0.08-0.33,0.13c-0.1,0.04-0.19,0.08-0.29,0.12c-0.13,0.06-0.26,0.13-0.38,0.2c-0.05,0.03-0.11,0.05-0.16,0.08
	L5.86,78.44c-0.02,0.01-0.04,0.03-0.06,0.04c-0.08,0.05-0.16,0.1-0.24,0.15c-0.07,0.05-0.14,0.09-0.21,0.14
	c-0.05,0.03-0.09,0.06-0.14,0.1C5.14,78.91,5.07,78.97,5,79.03c-0.06,0.05-0.12,0.1-0.18,0.15c-0.05,0.04-0.1,0.09-0.15,0.13
	c-0.06,0.05-0.12,0.11-0.17,0.17c-0.05,0.05-0.11,0.11-0.16,0.16c-0.05,0.06-0.11,0.11-0.16,0.17c-0.05,0.05-0.09,0.1-0.13,0.16
	c-0.05,0.06-0.1,0.12-0.15,0.18c-0.05,0.07-0.11,0.14-0.16,0.21c-0.03,0.05-0.06,0.09-0.1,0.14c-0.05,0.07-0.1,0.14-0.15,0.22
	c-0.05,0.08-0.1,0.15-0.14,0.23C3.32,80.96,3.3,80.98,3.29,81c-0.01,0.02-0.02,0.04-0.03,0.07c-0.04,0.08-0.09,0.16-0.13,0.24
	c-0.04,0.08-0.08,0.15-0.11,0.23c-0.02,0.05-0.05,0.1-0.07,0.15c-0.04,0.08-0.07,0.16-0.1,0.24c-0.03,0.07-0.06,0.15-0.08,0.22
	c-0.02,0.06-0.05,0.13-0.07,0.19c-0.02,0.07-0.04,0.15-0.07,0.23c-0.02,0.07-0.04,0.15-0.06,0.22c-0.02,0.08-0.04,0.16-0.06,0.24
	c-0.01,0.06-0.02,0.13-0.04,0.2c-0.01,0.08-0.03,0.16-0.04,0.23c-0.01,0.09-0.03,0.18-0.04,0.26c-0.01,0.05-0.01,0.11-0.01,0.16
	c-0.01,0.09-0.01,0.17-0.02,0.26c0,0.09-0.01,0.18-0.01,0.28c0,0.02,0,0.05,0,0.07v516.35c0,0.06,0.01,0.13,0.01,0.19
	c0,0.14,0.01,0.28,0.02,0.42c0.01,0.11,0.02,0.22,0.04,0.33c0.02,0.11,0.03,0.22,0.05,0.33c0.02,0.13,0.05,0.25,0.08,0.37
	c0.02,0.09,0.05,0.19,0.07,0.28c0.04,0.13,0.08,0.26,0.12,0.38c0.03,0.09,0.06,0.17,0.09,0.26c0.05,0.12,0.1,0.24,0.15,0.36
	c0.04,0.09,0.08,0.18,0.13,0.27c0.05,0.1,0.11,0.21,0.17,0.31c0.06,0.1,0.12,0.2,0.18,0.29c0.06,0.09,0.11,0.17,0.17,0.26
	c0.07,0.1,0.15,0.21,0.23,0.31c0.06,0.07,0.12,0.15,0.18,0.22c0.09,0.1,0.17,0.2,0.27,0.29c0.07,0.07,0.14,0.14,0.21,0.2
	c0.09,0.09,0.18,0.17,0.28,0.25c0.09,0.07,0.18,0.14,0.27,0.21c0.09,0.07,0.17,0.13,0.26,0.2c0.11,0.08,0.23,0.15,0.35,0.23
	c0.06,0.03,0.11,0.07,0.16,0.11l456.92,263.61c0.02,0.01,0.04,0.02,0.05,0.03c0.25,0.14,0.5,0.27,0.77,0.38
	c0.02,0.01,0.04,0.01,0.06,0.02c0.24,0.1,0.48,0.18,0.73,0.25c0.07,0.02,0.14,0.04,0.21,0.05c0.21,0.05,0.42,0.09,0.63,0.12
	c0.07,0.01,0.14,0.02,0.22,0.03c0.27,0.03,0.55,0.05,0.83,0.05s0.56-0.02,0.83-0.05c0.07-0.01,0.14-0.02,0.22-0.03
	c0.21-0.03,0.42-0.07,0.63-0.12c0.07-0.02,0.14-0.03,0.21-0.05c0.25-0.07,0.5-0.15,0.73-0.25c0.02-0.01,0.04-0.01,0.06-0.02
	c0.27-0.11,0.52-0.24,0.77-0.38c0.02-0.01,0.04-0.02,0.05-0.03l84.88-48.97c2.17-1.25,3.5-3.56,3.5-6.06v-85.81l74.38,42.91
	c0.02,0.01,0.04,0.02,0.05,0.03c0.25,0.14,0.5,0.27,0.77,0.38c0.02,0.01,0.04,0.01,0.06,0.02c0.24,0.1,0.48,0.18,0.73,0.25
	c0.07,0.02,0.14,0.04,0.21,0.05c0.21,0.05,0.42,0.09,0.63,0.12c0.07,0.01,0.14,0.02,0.22,0.03c0.27,0.03,0.55,0.05,0.83,0.05
	s0.56-0.02,0.83-0.05c0.07-0.01,0.14-0.02,0.22-0.03c0.21-0.03,0.42-0.07,0.63-0.12c0.07-0.02,0.14-0.03,0.21-0.05
	c0.25-0.07,0.5-0.15,0.73-0.25c0.02-0.01,0.04-0.01,0.06-0.02c0.27-0.11,0.52-0.24,0.77-0.38c0.02-0.01,0.04-0.02,0.05-0.03
	l84.88-48.97c0.06-0.03,0.11-0.07,0.16-0.11c0.12-0.07,0.24-0.15,0.35-0.23c0.09-0.06,0.18-0.13,0.26-0.2
	c0.09-0.07,0.18-0.14,0.27-0.21c0.1-0.08,0.19-0.17,0.28-0.25c0.07-0.07,0.14-0.13,0.21-0.2c0.09-0.1,0.18-0.19,0.27-0.29
	c0.06-0.07,0.12-0.14,0.18-0.22c0.08-0.1,0.15-0.2,0.23-0.31c0.06-0.08,0.12-0.17,0.17-0.26c0.06-0.1,0.12-0.19,0.18-0.29
	c0.06-0.1,0.12-0.2,0.17-0.31c0.05-0.09,0.09-0.18,0.13-0.27c0.05-0.12,0.11-0.24,0.15-0.36c0.03-0.09,0.06-0.17,0.09-0.26
	c0.04-0.13,0.09-0.25,0.12-0.38c0.03-0.09,0.05-0.18,0.07-0.28c0.03-0.12,0.06-0.25,0.08-0.37c0.02-0.11,0.04-0.22,0.05-0.33
	c0.01-0.11,0.03-0.22,0.04-0.33c0.01-0.14,0.02-0.28,0.02-0.42c0-0.06,0.01-0.13,0.01-0.19v-85.8l74.37,42.9
	c0.04,0.03,0.09,0.04,0.14,0.07c0.14,0.08,0.28,0.14,0.42,0.21c0.19,0.09,0.38,0.17,0.57,0.23c0.13,0.05,0.27,0.1,0.4,0.14
	c0.13,0.04,0.26,0.07,0.39,0.1c0.13,0.03,0.27,0.06,0.4,0.08c0.13,0.02,0.26,0.05,0.4,0.06c0.15,0.02,0.31,0.02,0.46,0.03
	c0.1,0,0.2,0.02,0.31,0.02c0.08,0,0.16-0.01,0.24-0.02c0.19-0.01,0.38-0.02,0.56-0.04c0.1-0.01,0.2-0.03,0.3-0.05
	c0.19-0.03,0.37-0.06,0.55-0.11c0.08-0.02,0.17-0.04,0.25-0.07c0.24-0.07,0.47-0.14,0.7-0.23c0.03-0.01,0.05-0.02,0.08-0.03
	c0.27-0.11,0.53-0.24,0.78-0.38c0.01-0.01,0.03-0.01,0.04-0.02l84.88-48.97c2.17-1.25,3.5-3.56,3.5-6.06V299.44
	C897.65,299.34,897.65,299.24,897.65,299.14z M433.73,43.61l442.91,255.53l-70.87,40.88l-81.38-46.95L362.86,84.5L433.73,43.61z
	 M643.03,352.15l70.88-40.89v402.26l-70.88,40.89V352.15z M263.98,43.61l81.42,46.97c0,0,0.01,0.01,0.01,0.01l361.48,208.55
	l-70.87,40.88l-81.38-46.95L193.11,84.5L263.98,43.61z M16.35,96.62l442.92,255.53v500.19L16.35,596.81V96.62z M466.28,340.03
	L23.36,84.5l70.87-40.88l81.41,46.97c0.01,0,0.01,0.01,0.02,0.01l361.48,208.55L466.28,340.03z M473.28,852.34V352.15l70.88-40.89
	v500.19L473.28,852.34z M558.15,311.26l70.88,40.89v402.26l-70.88-40.89V311.26z M727.9,311.26l70.88,40.89v304.33L727.9,615.6
	V311.26z M812.78,656.47V352.15l70.87-40.88v304.32L812.78,656.47z"/>
</svg>
