<?xml version="1.0" encoding="utf-8"?>
<!-- Generator: Adobe Illustrator 25.2.3, SVG Export Plug-In . SVG Version: 6.00 Build 0)  -->
<svg version="1.1" id="Layer_1" xmlns="http://www.w3.org/2000/svg" xmlns:xlink="http://www.w3.org/1999/xlink" x="0px" y="0px"
	 viewBox="0 0 900 900" style="enable-background:new 0 0 900 900;" xml:space="preserve">
<style type="text/css">
	.st0{fill:#999999;}
	.st1{fill:#73ACFF;}
	.st2{fill:#FFFFFF;}
	.st3{fill:#2B2B2B;}
	.st4{fill:none;stroke:#000000;stroke-width:3;stroke-miterlimit:10;}
	.st5{fill:none;stroke:#000000;stroke-width:4;stroke-miterlimit:10;}
	.st6{fill:none;stroke:#FFFFFF;stroke-width:3;stroke-miterlimit:10;}
	.st7{fill:#E60338;}
	.st8{fill:#E2E2E2;}
	.st9{fill:none;stroke:#000000;stroke-width:14;stroke-linecap:round;stroke-linejoin:round;stroke-miterlimit:10;}
	.st10{fill:none;stroke:#000000;stroke-width:9;stroke-linecap:round;stroke-linejoin:round;stroke-miterlimit:10;}
	.st11{fill:none;stroke:#000000;stroke-width:11;stroke-linecap:round;stroke-linejoin:round;stroke-miterlimit:10;}
	.st12{fill:#020202;}
	.st13{fill:none;stroke:#000000;stroke-width:10;stroke-linecap:round;stroke-linejoin:round;stroke-miterlimit:10;}
	.st14{fill:#FCEE21;stroke:#000000;stroke-width:10;stroke-linecap:round;stroke-linejoin:round;stroke-miterlimit:10;}
	.st15{fill:#73ACFF;stroke:#000000;stroke-width:10;stroke-linecap:round;stroke-linejoin:round;stroke-miterlimit:10;}
	.st16{fill:#FFFFFF;stroke:#000000;stroke-width:10;stroke-linecap:round;stroke-linejoin:round;stroke-miterlimit:10;}
	.st17{fill:#73ACFF;stroke:#000000;stroke-width:10;stroke-miterlimit:10;}
</style>
<g>
	<line class="st13" x1="466.34" y1="866.05" x2="466.34" y2="347.72"/>
	<line class="st13" x1="636.73" y1="767.74" x2="636.73" y2="347.72"/>
	<line class="st13" x1="807.13" y1="669.43" x2="807.13" y2="347.72"/>
	<line class="st13" x1="7.67" y1="601.43" x2="7.67" y2="83.11"/>
	<line class="st13" x1="721.93" y1="718.59" x2="721.93" y2="298.57"/>
	<line class="st13" x1="466.34" y1="347.72" x2="551.53" y2="298.57"/>
	<line class="st13" x1="636.73" y1="347.72" x2="721.93" y2="298.57"/>
	<line class="st13" x1="807.13" y1="347.72" x2="892.33" y2="298.57"/>
	<line class="st13" x1="348.47" y1="83.11" x2="433.66" y2="33.95"/>
	<polyline class="st13" points="551.53,718.59 636.73,767.74 721.93,718.59 	"/>
	<line class="st13" x1="7.67" y1="83.11" x2="92.87" y2="33.95"/>
	<line class="st13" x1="178.07" y1="83.11" x2="263.27" y2="33.95"/>
	<line class="st13" x1="466.34" y1="347.72" x2="7.67" y2="83.11"/>
	<line class="st13" x1="551.53" y1="298.57" x2="636.73" y2="347.72"/>
	<polyline class="st13" points="7.67,601.43 466.34,866.05 551.53,816.89 551.53,298.57 	"/>
	<polyline class="st13" points="721.93,620.29 807.12,669.44 892.32,620.28 892.32,298.57 	"/>
	<line class="st13" x1="551.53" y1="298.57" x2="92.87" y2="33.95"/>
	<line class="st13" x1="721.93" y1="298.57" x2="263.27" y2="33.95"/>
	<line class="st13" x1="892.33" y1="298.57" x2="433.66" y2="33.95"/>
	<line class="st13" x1="807.13" y1="347.72" x2="721.93" y2="298.57"/>
</g>
</svg>
