<?xml version="1.0" encoding="utf-8"?>
<!-- Generator: Adobe Illustrator 25.2.3, SVG Export Plug-In . SVG Version: 6.00 Build 0)  -->
<svg version="1.1" id="Layer_1" xmlns="http://www.w3.org/2000/svg" xmlns:xlink="http://www.w3.org/1999/xlink" x="0px" y="0px"
	 viewBox="0 0 900 900" style="enable-background:new 0 0 900 900;" xml:space="preserve">
<style type="text/css">
	.st0{fill:#CC9A0D;stroke:#000000;stroke-width:7;stroke-linecap:round;stroke-linejoin:round;stroke-miterlimit:10;}
	.st1{fill:#3F8FEF;stroke:#000000;stroke-width:7;stroke-linecap:round;stroke-linejoin:round;stroke-miterlimit:10;}
	.st2{fill:#195091;stroke:#000000;stroke-width:7;stroke-linecap:round;stroke-linejoin:round;stroke-miterlimit:10;}
	.st3{fill:#999999;}
	.st4{fill:#73ACFF;}
	.st5{fill:#FFFFFF;}
	.st6{fill:#2B2B2B;}
	.st7{fill:none;stroke:#000000;stroke-width:3;stroke-miterlimit:10;}
	.st8{fill:none;stroke:#000000;stroke-width:4;stroke-miterlimit:10;}
	.st9{fill:none;stroke:#FFFFFF;stroke-width:3;stroke-miterlimit:10;}
	.st10{fill:#E60338;}
	.st11{fill:#E2E2E2;}
	.st12{fill:none;stroke:#000000;stroke-width:14;stroke-linecap:round;stroke-linejoin:round;stroke-miterlimit:10;}
	.st13{fill:none;stroke:#000000;stroke-width:9;stroke-linecap:round;stroke-linejoin:round;stroke-miterlimit:10;}
	.st14{fill:none;stroke:#000000;stroke-width:11;stroke-linecap:round;stroke-linejoin:round;stroke-miterlimit:10;}
	.st15{fill:#020202;}
	.st16{fill:none;stroke:#000000;stroke-width:7;stroke-linecap:round;stroke-linejoin:round;stroke-miterlimit:10;}
	.st17{fill:#999999;stroke:#000000;stroke-width:7;stroke-linecap:round;stroke-linejoin:round;stroke-miterlimit:10;}
	.st18{fill:#FCEE21;stroke:#000000;stroke-width:7;stroke-linecap:round;stroke-linejoin:round;stroke-miterlimit:10;}
	.st19{fill:#FFFFFF;stroke:#000000;stroke-width:7;stroke-linecap:round;stroke-linejoin:round;stroke-miterlimit:10;}
	.st20{fill:none;stroke:#000000;stroke-width:10;stroke-linecap:round;stroke-linejoin:round;stroke-miterlimit:10;}
	.st21{fill:#FCEE21;stroke:#000000;stroke-width:10;stroke-linecap:round;stroke-linejoin:round;stroke-miterlimit:10;}
	.st22{fill:#73ACFF;stroke:#000000;stroke-width:10;stroke-miterlimit:10;}
	.st23{fill:#FFFFFF;stroke:#000000;stroke-width:10;stroke-linecap:round;stroke-linejoin:round;stroke-miterlimit:10;}
	.st24{fill:#E6E6E6;stroke:#000000;stroke-width:7;stroke-linecap:round;stroke-linejoin:round;stroke-miterlimit:10;}
	.st25{fill:#D8C51D;stroke:#000000;stroke-width:7;stroke-linecap:round;stroke-linejoin:round;stroke-miterlimit:10;}
</style>
<g>
	<polygon class="st16" points="636.73,767.74 636.73,347.72 551.53,298.57 551.53,718.59 	"/>
	<polyline class="st16" points="466.34,347.72 551.53,298.57 551.53,816.89 466.34,866.05 	"/>
	<polygon class="st16" points="7.67,601.43 7.67,83.11 466.34,347.72 466.34,866.05 	"/>
	<line class="st16" x1="466.34" y1="866.05" x2="466.34" y2="347.72"/>
	<polygon class="st16" points="807.13,669.43 807.13,347.72 721.93,298.57 721.93,620.29 	"/>
	<polyline class="st16" points="721.93,298.57 721.93,718.59 636.73,767.74 636.73,347.72 721.93,298.57 	"/>
	<polygon class="st16" points="807.13,347.72 892.33,298.57 892.32,620.28 807.12,669.44 	"/>
	<polyline class="st16" points="721.93,620.29 807.12,669.44 892.32,620.28 892.32,298.57 	"/>
	<polygon class="st16" points="7.67,83.11 92.87,33.95 551.53,298.57 466.34,347.72 	"/>
	<polygon class="st16" points="721.93,298.57 263.27,33.95 178.07,83.11 636.73,347.72 	"/>
	<polygon class="st16" points="348.47,83.11 433.66,33.95 892.33,298.57 807.13,347.72 	"/>
	<polyline class="st16" points="807.13,347.72 721.93,298.57 636.73,347.72 	"/>
</g>
</svg>
