<svg width="64" height="64" viewBox="0 0 64 64" fill="none" xmlns="http://www.w3.org/2000/svg">
<path d="M44.3185 10.3609L27.5768 0.701874L19.2063 5.53103L35.948 15.1901L44.3185 10.3609Z" stroke="white" stroke-miterlimit="10" stroke-linecap="round" stroke-linejoin="round"/>
<path d="M35.948 48.8206V63.2981L44.3185 58.469V53.5886L35.948 48.8206Z" stroke="white" stroke-miterlimit="10" stroke-linecap="round" stroke-linejoin="round"/>
<path d="M27.7896 34.2172L31.6324 32" stroke="white" stroke-miterlimit="10" stroke-linecap="round" stroke-linejoin="round"/>
<path d="M31.5988 46.2507L15.0684 55.7874V36.5433L31.6323 26.9874V32L27.7894 34.2173V44.0526L31.5988 46.2507Z" stroke="white" stroke-miterlimit="10" stroke-linecap="round" stroke-linejoin="round"/>
<path d="M35.9481 34.4896L31.6323 32V26.9874" stroke="white" stroke-miterlimit="10" stroke-linecap="round" stroke-linejoin="round"/>
<path d="M56.5255 31.7234V12.6258L44.3186 19.6679V24.6813L56.5255 31.7234Z" stroke="white" stroke-miterlimit="10" stroke-linecap="round" stroke-linejoin="round"/>
<path d="M44.3186 53.5886V43.754" stroke="white" stroke-miterlimit="10" stroke-linecap="round" stroke-linejoin="round"/>
<path d="M44.3186 43.754L60.8484 34.2173V44.0526L44.3186 53.5886" stroke="white" stroke-miterlimit="10" stroke-linecap="round" stroke-linejoin="round"/>
<path d="M15.3088 27.0173L3.15161 20.0036L19.2064 10.7406V24.7709L15.3088 27.0173Z" stroke="white" stroke-miterlimit="10" stroke-linecap="round" stroke-linejoin="round"/>
<path d="M60.8484 34.2172L44.3186 24.6812" stroke="white" stroke-miterlimit="10" stroke-linecap="round" stroke-linejoin="round"/>
<path d="M27.7896 34.2172L44.3186 43.754L60.8484 34.2172L44.3186 24.6812V29.6604L35.9481 34.4896L31.6324 32L27.7896 34.2172Z" stroke="white" stroke-miterlimit="10" stroke-linecap="round" stroke-linejoin="round"/>
<path d="M44.3186 53.5886L27.7896 44.0526V34.2173L44.3186 43.754V53.5886Z" stroke="white" stroke-miterlimit="10" stroke-linecap="round" stroke-linejoin="round"/>
<path d="M6.93401 31.904L3.15161 29.7216V29.7572V20.0036L15.3088 27.0173L6.93401 31.8507V31.904Z" stroke="white" stroke-miterlimit="10" stroke-linecap="round" stroke-linejoin="round"/>
<path d="M6.93408 31.8507V51.0948L15.0685 55.7874V36.5433L6.93408 31.8507Z" stroke="white" stroke-miterlimit="10" stroke-linecap="round" stroke-linejoin="round"/>
<path d="M6.93408 31.8507L23.4987 22.2941L31.6324 26.9874L15.0685 36.5433L6.93408 31.8507Z" stroke="white" stroke-miterlimit="10" stroke-linecap="round" stroke-linejoin="round"/>
<path d="M44.3186 19.6679L56.5255 12.6258L48.3911 7.93317L44.2454 10.3246L44.3186 10.3609V19.6679Z" stroke="white" stroke-miterlimit="10" stroke-linecap="round" stroke-linejoin="round"/>
<path d="M35.948 34.4896V15.1901L44.3185 10.3609V29.6605L35.948 34.4896Z" stroke="white" stroke-miterlimit="10" stroke-linecap="round" stroke-linejoin="round"/>
<path d="M18.9995 53.5196L35.9481 63.2981V48.8206L31.599 46.2507L18.9995 53.5196Z" stroke="white" stroke-miterlimit="10" stroke-linecap="round" stroke-linejoin="round"/>
<path d="M19.2063 24.7709V5.53104L35.948 15.1901V34.4896L31.6323 32V26.9874L23.4986 22.2941L19.2063 24.7709Z" stroke="white" stroke-miterlimit="10" stroke-linecap="round" stroke-linejoin="round"/>
</svg>
