<svg width="60" height="60" viewBox="0 0 60 60" fill="none" xmlns="http://www.w3.org/2000/svg">
<path d="M9.95198 51.6539C9.53998 51.6539 9.12998 51.498 8.81598 51.184C3.15798 45.526 0.039978 38.002 0.039978 30C0.039978 21.998 3.15598 14.474 8.81398 8.81595C9.44198 8.18795 10.46 8.18995 11.086 8.81595C11.714 9.44395 11.714 10.462 11.086 11.088C6.03598 16.14 3.25598 22.856 3.25598 30C3.25598 37.144 6.03798 43.86 11.09 48.912C11.718 49.54 11.718 50.558 11.09 51.184C10.774 51.498 10.364 51.6539 9.95198 51.6539Z" fill="#353535"/>
<path d="M50.048 51.654C49.636 51.654 49.226 51.498 48.912 51.184C48.284 50.556 48.284 49.538 48.912 48.912C53.964 43.86 56.746 37.144 56.746 30C56.746 22.856 53.964 16.14 48.912 11.088C48.284 10.46 48.284 9.44197 48.912 8.81597C49.54 8.18797 50.558 8.18797 51.184 8.81597C56.842 14.474 59.96 21.998 59.96 30C59.96 38.002 56.844 45.526 51.186 51.184C50.87 51.498 50.46 51.654 50.048 51.654Z" fill="#353535"/>
<path d="M18.636 42.972C18.224 42.972 17.814 42.816 17.5 42.502C14.16 39.164 12.322 34.724 12.322 30.002C12.322 25.28 14.16 20.84 17.5 17.502C18.128 16.874 19.146 16.874 19.772 17.502C20.4 18.13 20.4 19.148 19.772 19.774C17.04 22.504 15.536 26.136 15.536 30C15.536 33.864 17.04 37.496 19.772 40.228C20.4 40.856 20.4 41.874 19.772 42.5C19.458 42.814 19.048 42.972 18.636 42.972Z" fill="#353535"/>
<path d="M41.364 42.972C40.952 42.972 40.542 42.816 40.228 42.502C39.6 41.874 39.6 40.856 40.228 40.23C42.96 37.498 44.464 33.866 44.464 30.002C44.464 26.138 42.96 22.506 40.228 19.774C39.6 19.146 39.6 18.128 40.228 17.502C40.856 16.874 41.874 16.874 42.5 17.502C45.84 20.842 47.678 25.28 47.678 30.002C47.678 34.724 45.84 39.164 42.5 42.502C42.186 42.814 41.776 42.972 41.364 42.972Z" fill="#353535"/>
<path d="M30 34.822C32.6631 34.822 34.822 32.6631 34.822 30C34.822 27.3369 32.6631 25.178 30 25.178C27.3369 25.178 25.178 27.3369 25.178 30C25.178 32.6631 27.3369 34.822 30 34.822Z" fill="#353535"/>
</svg>
