<svg width="60" height="60" viewBox="0 0 60 60" fill="none" xmlns="http://www.w3.org/2000/svg">
<g clip-path="url(#clip0_252_106)">
<path d="M19.136 22.5119C23 22.5119 26.864 22.462 30.726 22.544C31.85 22.5679 32.084 22.202 32.008 21.1919C31.924 20.066 32.02 18.9279 31.978 17.7979C31.942 16.792 32.374 16.402 33.372 16.41C37.08 16.438 40.788 16.3839 44.494 16.448C45.45 16.4639 45.65 16.1639 45.61 15.2859C45.54 13.766 45.564 12.2419 45.604 10.7199C45.62 10.1019 45.518 9.84195 44.802 9.84595C40.158 9.87995 35.514 9.87595 30.87 9.84795C30.242 9.84395 30.094 10.0339 30.102 10.6339C30.134 13.1699 30.088 15.7079 30.128 18.2439C30.144 19.288 29.766 19.726 28.692 19.7139C25.258 19.6779 21.824 19.6819 18.39 19.712C17.396 19.7199 16.978 19.3379 16.988 18.33C17.018 15.3639 17.024 12.396 16.986 9.42995C16.972 8.37395 17.374 7.95995 18.436 7.97395C21.362 8.01395 24.29 7.95995 27.216 8.00595C27.994 8.01795 28.368 7.88395 28.254 7.01595C28.178 6.43995 28.218 5.84595 28.246 5.26195C28.272 4.69595 28.278 4.30795 27.484 4.24595C26.824 4.19395 26.658 3.56195 26.954 2.98195C27.378 2.14995 27.834 1.32995 28.352 0.55595C28.858 -0.20005 29.524 -0.18005 30.038 0.59795C30.508 1.31195 30.92 2.06795 31.32 2.82395C31.746 3.62595 31.544 4.23595 30.594 4.31195C30.134 4.34995 30.136 4.50195 30.106 4.84795C29.842 7.98795 29.836 7.98995 32.946 7.98995C37.238 7.99195 41.532 7.98795 45.824 7.98995C47.326 7.98995 47.458 8.11595 47.46 9.56995C47.464 11.9499 47.464 14.3319 47.46 16.712C47.456 18.1659 47.324 18.292 45.824 18.294C42.156 18.2959 38.486 18.3139 34.818 18.28C34.096 18.274 33.752 18.4 33.846 19.2139C33.968 20.284 33.396 21.7239 34.078 22.3399C34.664 22.8699 36.076 22.506 37.122 22.5079C42.352 22.514 47.58 22.5099 52.81 22.5119C54.334 22.5119 54.464 22.646 54.466 24.202C54.468 27.1679 54.47 30.134 54.466 33.102C54.464 34.538 54.304 34.688 52.828 34.692C51.462 34.696 50.094 34.728 48.73 34.678C48.064 34.652 47.886 34.856 47.894 35.516C47.93 38.482 47.88 41.45 47.924 44.416C47.94 45.508 47.568 45.97 46.434 45.954C43.352 45.908 40.268 45.914 37.186 45.952C36.14 45.964 35.708 45.584 35.718 44.514C35.754 41.08 35.75 37.644 35.722 34.21C35.714 33.214 36.098 32.7999 37.106 32.812C39.798 32.844 42.492 32.806 45.184 32.8359C45.8 32.8419 46.048 32.7439 46.058 32.034C46.094 29.078 46.124 29.078 43.136 29.076C40.404 29.076 37.672 29.108 34.94 29.056C34.11 29.04 33.784 29.182 33.834 30.11C33.924 31.784 33.824 33.466 33.872 35.144C33.902 36.214 33.452 36.5979 32.406 36.584C29.44 36.546 26.474 36.594 23.508 36.554C22.804 36.544 22.546 36.692 22.6 37.442C22.674 38.452 22.652 39.472 22.606 40.484C22.578 41.086 22.746 41.286 23.374 41.27C25.05 41.226 26.73 41.254 28.408 41.256C30.004 41.2579 30.11 41.368 30.112 43.016C30.112 47.7 30.138 52.384 30.088 57.068C30.078 57.95 30.3 58.152 31.17 58.1419C35.656 58.0919 40.144 58.1 44.632 58.138C45.404 58.144 45.614 57.934 45.586 57.174C45.528 55.576 45.556 53.9739 45.574 52.374C45.58 51.852 45.568 51.52 44.854 51.542C42.904 51.5999 40.952 51.5799 39 51.548C38.538 51.54 38.336 51.738 38.094 52.082C37.25 53.29 36.086 53.698 34.862 53.282C33.682 52.88 32.926 51.854 32.92 50.6399C32.914 49.388 33.716 48.312 34.938 47.934C36.126 47.566 37.308 47.964 38.066 49.1399C38.38 49.6259 38.71 49.696 39.198 49.692C41.462 49.678 43.726 49.716 45.988 49.672C47.036 49.652 47.472 50.044 47.454 51.1119C47.412 53.61 47.418 56.108 47.452 58.606C47.466 59.604 47.068 60.006 46.064 60.002C40.6 59.98 35.136 59.9759 29.674 60.0039C28.614 60.0099 28.218 59.604 28.224 58.548C28.254 53.748 28.218 48.9459 28.256 44.146C28.262 43.358 28.12 43.048 27.26 43.108C26.056 43.1899 24.838 43.18 23.634 43.11C22.838 43.064 22.576 43.256 22.596 44.108C22.656 46.8779 22.588 49.6499 22.634 52.4219C22.654 53.5499 22.2 53.936 21.102 53.92C18.058 53.876 15.014 53.876 11.97 53.92C10.888 53.936 10.406 53.586 10.422 52.44C10.468 49.2 10.468 45.96 10.422 42.722C10.406 41.578 10.882 41.222 11.968 41.242C14.62 41.288 17.276 41.234 19.928 41.272C20.602 41.282 20.788 41.078 20.754 40.426C20.69 39.186 21.172 37.548 20.552 36.8079C19.912 36.0439 18.214 36.594 16.982 36.584C13.744 36.554 10.504 36.546 7.26399 36.59C6.16399 36.604 5.72399 36.214 5.73799 35.088C5.77999 31.38 5.77599 27.6719 5.73999 23.9639C5.72999 22.91 6.12199 22.4959 7.18599 22.5059C11.174 22.5319 15.156 22.5119 19.136 22.5119ZM19.904 24.386C16.124 24.386 12.342 24.398 8.56199 24.374C7.92599 24.37 7.59799 24.4119 7.61399 25.2179C7.67199 28.1019 7.65599 30.988 7.61999 33.872C7.61199 34.538 7.80399 34.71 8.45999 34.706C12.28 34.676 16.1 34.676 19.92 34.706C20.566 34.71 20.786 34.56 20.766 33.882C20.718 32.13 20.784 30.372 20.736 28.62C20.708 27.55 21.158 27.168 22.202 27.184C24.89 27.224 27.58 27.198 30.27 27.198C31.994 27.198 31.946 27.198 32.01 25.5219C32.042 24.65 31.854 24.344 30.896 24.3619C27.234 24.424 23.568 24.386 19.904 24.386ZM43.328 24.386C40.444 24.386 37.56 24.4079 34.678 24.3699C34.008 24.3619 33.772 24.562 33.856 25.2139C33.896 25.52 33.906 25.844 33.854 26.146C33.7 27.038 34.066 27.228 34.924 27.216C38.702 27.164 42.482 27.192 46.262 27.194C47.782 27.196 47.908 27.328 47.912 28.884C47.914 29.936 47.944 30.99 47.9 32.04C47.876 32.632 48.024 32.864 48.662 32.828C49.672 32.7719 50.69 32.768 51.7 32.828C52.396 32.868 52.634 32.704 52.616 31.948C52.558 29.728 52.552 27.504 52.618 25.2859C52.644 24.454 52.326 24.358 51.624 24.3679C48.862 24.4059 46.094 24.3839 43.328 24.386ZM37.61 39.374C37.61 40.7 37.636 42.028 37.598 43.354C37.582 43.916 37.75 44.078 38.314 44.072C40.654 44.042 42.996 44.042 45.336 44.072C45.898 44.08 46.058 43.92 46.052 43.356C46.024 40.704 46.024 38.0499 46.052 35.396C46.058 34.8359 45.902 34.672 45.336 34.678C42.996 34.708 40.654 34.708 38.314 34.678C37.754 34.67 37.58 34.83 37.596 35.394C37.638 36.72 37.612 38.048 37.61 39.374ZM20.75 47.574C20.75 46.326 20.722 45.076 20.762 43.828C20.78 43.266 20.612 43.102 20.048 43.11C17.708 43.14 15.366 43.14 13.026 43.11C12.464 43.102 12.302 43.262 12.308 43.826C12.338 46.322 12.336 48.82 12.308 51.318C12.302 51.88 12.46 52.0439 13.024 52.0359C15.364 52.006 17.706 52.006 20.046 52.0359C20.606 52.0439 20.782 51.888 20.764 51.32C20.722 50.074 20.75 48.824 20.75 47.574ZM23.556 17.8259C24.882 17.8259 26.21 17.7999 27.536 17.8379C28.094 17.854 28.264 17.6939 28.256 17.1259C28.224 14.9419 28.226 12.7559 28.256 10.5699C28.264 10.0119 28.11 9.84395 27.542 9.84995C24.89 9.87795 22.236 9.87795 19.584 9.84995C19.026 9.84395 18.856 9.99595 18.864 10.5639C18.896 12.7479 18.894 14.9339 18.864 17.1199C18.856 17.6779 19.008 17.858 19.578 17.8399C20.902 17.7979 22.23 17.8259 23.556 17.8259ZM27.396 34.69C28.684 34.69 29.972 34.668 31.258 34.7C31.782 34.712 32.024 34.618 32.004 34.012C31.958 32.608 31.948 31.202 32.008 29.8C32.036 29.12 31.746 29.056 31.194 29.06C28.58 29.08 25.966 29.082 23.354 29.058C22.83 29.0539 22.59 29.142 22.61 29.746C22.656 31.15 22.666 32.556 22.606 33.958C22.578 34.638 22.864 34.71 23.418 34.698C24.744 34.67 26.07 34.69 27.396 34.69Z" fill="#353535"/>
</g>
<defs>
<clipPath id="clip0_252_106">
<rect width="60" height="60" fill="white"/>
</clipPath>
</defs>
</svg>
